{"glyphs":{"0":{"ha":903,"x_min":0,"x_max":0,"o":"m 440 -22 b 867 517 690 -22 867 215 b 461 1022 867 808 704 1022 b 36 485 211 1022 36 786 b 440 -22 36 189 204 -22 z m 478 189 b 350 582 408 189 350 371 b 426 811 350 739 376 811 b 553 415 493 811 553 633 b 478 189 553 261 528 189 z "},"1":{"ha":696,"x_min":0,"x_max":0,"o":"m 365 -12 b 672 86 544 -12 672 6 b 589 171 672 144 626 153 b 549 235 565 182 549 197 l 549 792 b 574 867 549 839 556 849 b 606 928 594 889 606 906 b 481 1011 606 982 558 1011 b 200 957 411 1011 296 992 b 19 814 99 922 19 872 b 100 749 19 774 47 749 b 143 750 119 749 131 750 b 182 692 168 750 182 738 l 182 235 b 136 171 182 196 161 182 b 58 86 100 154 58 143 b 365 -12 58 6 186 -12 z "},"2":{"ha":893,"x_min":0,"x_max":0,"o":"m 776 351 b 706 314 743 351 725 333 b 665 272 689 297 674 279 b 556 242 636 249 608 242 l 442 242 b 626 392 488 272 550 319 b 790 713 711 474 790 574 b 451 1022 790 889 661 1022 b 133 892 315 1022 206 967 b 56 725 86 842 56 783 b 136 644 56 681 92 644 b 229 692 171 644 193 658 b 356 765 269 728 310 765 b 440 675 406 765 440 733 b 321 449 440 603 381 522 b 46 147 269 386 176 286 b 3 63 14 114 3 88 b 79 -4 3 33 22 -4 b 251 0 144 -4 208 0 l 629 0 b 697 -44 643 -28 665 -44 b 864 218 808 -44 864 114 b 776 351 864 294 832 351 z "},"3":{"ha":847,"x_min":0,"x_max":0,"o":"m 622 604 b 747 801 704 651 747 714 b 406 1022 747 929 614 1022 b 117 940 300 1022 200 997 b 47 832 81 915 47 878 b 121 756 47 785 82 756 b 194 779 142 756 167 767 b 299 808 228 793 265 808 b 386 718 349 808 386 778 b 250 592 386 660 340 624 b 167 510 204 574 167 571 b 239 406 167 454 197 406 b 340 422 279 406 306 422 b 444 307 397 422 444 378 b 308 186 444 226 379 186 b 178 213 256 186 214 200 b 86 236 143 225 114 236 b 8 158 43 236 8 204 b 71 58 8 119 31 89 b 372 -22 133 13 238 -22 b 817 333 646 -22 817 146 b 622 604 817 464 747 564 z "},"4":{"ha":872,"x_min":0,"x_max":0,"o":"m 771 421 l 738 421 l 738 894 b 578 1013 738 981 682 1013 b 331 872 447 1013 404 961 b 65 479 228 747 140 618 b 3 300 35 422 3 364 b 138 164 3 215 54 164 l 385 164 l 385 57 b 560 -12 385 8 401 -12 b 738 57 718 -12 738 8 l 738 164 l 771 164 b 842 293 819 164 842 186 b 771 421 842 399 819 421 z m 399 743 l 399 421 l 192 421 b 399 743 249 532 318 638 z "},"5":{"ha":860,"x_min":0,"x_max":0,"o":"m 419 640 b 278 631 378 640 340 639 b 294 736 283 668 289 704 l 611 736 b 785 925 731 736 785 792 b 724 1019 785 988 760 1019 b 657 1000 694 1019 669 1008 l 226 1000 b 135 926 178 1000 143 982 b 74 453 103 724 74 514 b 151 382 74 393 119 382 b 278 388 189 382 211 388 b 456 279 404 388 456 344 b 311 179 456 210 396 179 b 99 219 218 179 150 219 b 22 143 54 219 22 185 b 367 -25 22 51 224 -25 b 826 324 619 -25 826 106 b 419 640 826 507 697 640 z "},"6":{"ha":888,"x_min":0,"x_max":0,"o":"m 599 694 b 389 613 532 694 453 676 b 568 849 425 729 500 796 b 664 961 629 894 664 925 b 574 1035 664 1008 625 1035 b 375 982 511 1035 438 1015 b 33 428 218 897 33 706 b 454 -22 33 160 208 -22 b 869 383 688 -22 869 140 b 599 694 869 568 742 694 z m 494 149 b 367 425 431 149 372 278 b 428 489 376 474 404 489 b 554 249 494 489 554 351 b 494 149 554 179 524 149 z "},"7":{"ha":826,"x_min":0,"x_max":0,"o":"m 699 1000 l 224 1000 b 157 1038 210 1024 188 1038 b 7 763 54 1038 7 868 b 101 611 7 690 32 611 b 181 653 136 611 163 628 b 218 701 196 675 207 689 b 310 725 240 725 272 725 l 533 725 b 489 617 525 699 511 663 b 288 282 440 518 361 393 b 182 106 221 183 183 147 b 388 -11 181 43 268 -11 b 560 167 469 -11 500 24 b 725 607 642 363 682 482 b 804 906 778 758 804 860 b 699 1000 804 960 767 1000 z "},"8":{"ha":893,"x_min":0,"x_max":0,"o":"m 699 579 b 831 764 785 622 831 683 b 454 1022 831 918 689 1022 b 54 708 201 1022 54 882 b 167 479 54 622 92 540 b 36 267 81 426 36 354 b 442 -22 36 89 226 -22 b 857 315 690 -22 857 114 b 699 579 857 429 815 511 z m 457 853 b 583 750 542 853 583 804 b 535 653 583 721 571 685 b 369 786 447 686 369 724 b 457 853 369 825 407 853 z m 443 151 b 297 303 361 151 297 210 b 322 400 297 335 306 371 b 547 235 488 339 547 307 b 443 151 547 185 501 151 z "},"9":{"ha":888,"x_min":0,"x_max":0,"o":"m 433 1035 b 24 635 203 1035 24 874 b 289 329 24 453 150 329 b 503 418 350 329 436 344 b 278 165 467 296 383 231 b 183 53 215 126 183 89 b 286 -22 183 6 226 -22 b 471 26 344 -22 411 -4 b 854 585 667 126 854 307 b 433 1035 854 853 679 1035 z m 460 533 b 339 769 396 533 339 671 b 393 864 339 835 367 864 b 519 606 456 864 510 744 b 460 533 511 550 482 533 z "}," ":{"ha":261,"x_min":0,"x_max":0,"o":""},"A":{"ha":1167,"x_min":0,"x_max":0,"o":"m 1131 168 b 1038 299 1108 178 1082 204 b 788 875 979 422 840 779 b 546 1013 732 975 653 1013 b 357 835 414 1013 367 954 b 343 736 354 799 357 782 b 175 342 324 674 217 431 b 50 164 106 193 88 179 b -14 82 8 147 -14 122 b 204 -12 -14 13 68 -12 b 414 86 332 -12 414 11 b 346 163 414 124 389 142 b 331 207 326 172 326 186 b 340 246 332 217 336 231 b 503 257 390 254 442 257 b 665 247 563 257 615 256 b 672 211 669 232 672 219 b 640 161 672 183 661 171 b 583 88 599 140 583 121 b 878 -12 583 8 694 -12 b 1182 92 1060 -12 1182 13 b 1131 168 1182 135 1161 154 z m 503 414 b 396 413 469 414 432 413 b 496 661 425 494 461 583 b 606 413 532 586 572 494 b 503 414 571 413 538 414 z "},"Á":{"ha":1167,"x_min":0,"x_max":0,"o":"m 469 1047 b 558 1075 501 1047 528 1058 b 726 1179 615 1106 675 1140 b 797 1269 775 1215 797 1238 b 668 1315 797 1301 775 1315 b 531 1265 589 1315 558 1299 b 428 1121 499 1226 458 1174 b 415 1085 418 1104 415 1094 b 469 1047 415 1065 435 1047 z m 1131 168 b 1038 299 1108 178 1082 204 b 788 875 979 422 840 779 b 546 1013 732 975 653 1013 b 357 835 414 1013 367 954 b 343 736 354 799 357 782 b 175 342 324 674 217 431 b 50 164 106 193 88 179 b -14 82 8 147 -14 122 b 204 -12 -14 13 68 -12 b 414 86 332 -12 414 11 b 346 163 414 124 389 142 b 331 207 326 172 326 186 b 340 246 332 217 336 231 b 503 257 390 254 442 257 b 665 247 563 257 615 256 b 672 211 669 232 672 219 b 640 161 672 183 661 171 b 583 88 599 140 583 121 b 878 -12 583 8 694 -12 b 1182 92 1060 -12 1182 13 b 1131 168 1182 135 1161 154 z m 503 414 b 396 413 469 414 432 413 b 496 661 425 494 461 583 b 606 413 532 586 572 494 b 503 414 571 413 538 414 z "},"Ă":{"ha":1167,"x_min":0,"x_max":0,"o":"m 538 1060 b 764 1190 647 1060 722 1114 b 783 1274 781 1221 785 1242 b 732 1325 782 1308 758 1325 b 643 1268 697 1325 676 1303 b 538 1217 615 1239 581 1217 b 433 1267 499 1217 461 1238 b 343 1325 400 1301 381 1325 b 292 1271 313 1325 293 1303 b 311 1190 290 1244 300 1211 b 538 1060 347 1125 415 1060 z m 1131 168 b 1038 299 1108 178 1082 204 b 788 875 979 422 840 779 b 546 1013 732 975 653 1013 b 357 835 414 1013 367 954 b 343 736 354 799 357 782 b 175 342 324 674 217 431 b 50 164 106 193 88 179 b -14 82 8 147 -14 122 b 204 -12 -14 13 68 -12 b 414 86 332 -12 414 11 b 346 163 414 124 389 142 b 331 207 326 172 326 186 b 340 246 332 217 336 231 b 503 257 390 254 442 257 b 665 247 563 257 615 256 b 672 211 669 232 672 219 b 640 161 672 183 661 171 b 583 88 599 140 583 121 b 878 -12 583 8 694 -12 b 1182 92 1060 -12 1182 13 b 1131 168 1182 135 1161 154 z m 503 414 b 396 413 469 414 432 413 b 496 661 425 494 461 583 b 606 413 532 586 572 494 b 503 414 571 413 538 414 z "},"Â":{"ha":1167,"x_min":0,"x_max":0,"o":"m 347 1057 b 436 1086 375 1057 403 1068 b 546 1163 476 1107 511 1133 b 656 1086 581 1133 615 1107 b 744 1057 689 1068 717 1057 b 797 1099 782 1057 797 1076 b 778 1150 797 1111 792 1128 b 681 1268 754 1188 715 1236 b 546 1318 643 1301 613 1318 b 411 1268 479 1318 449 1301 b 314 1150 379 1239 338 1188 b 294 1099 300 1128 294 1111 b 347 1057 294 1076 310 1057 z m 1131 168 b 1038 299 1108 178 1082 204 b 788 875 979 422 840 779 b 546 1013 732 975 653 1013 b 357 835 414 1013 367 954 b 343 736 354 799 357 782 b 175 342 324 674 217 431 b 50 164 106 193 88 179 b -14 82 8 147 -14 122 b 204 -12 -14 13 68 -12 b 414 86 332 -12 414 11 b 346 163 414 124 389 142 b 331 207 326 172 326 186 b 340 246 332 217 336 231 b 503 257 390 254 442 257 b 665 247 563 257 615 256 b 672 211 669 232 672 219 b 640 161 672 183 661 171 b 583 88 599 140 583 121 b 878 -12 583 8 694 -12 b 1182 92 1060 -12 1182 13 b 1131 168 1182 135 1161 154 z m 503 414 b 396 413 469 414 432 413 b 496 661 425 494 461 583 b 606 413 532 586 572 494 b 503 414 571 413 538 414 z "},"Ä":{"ha":1167,"x_min":0,"x_max":0,"o":"m 393 1063 b 501 1174 453 1063 501 1113 b 393 1286 501 1236 453 1286 b 286 1174 333 1286 286 1236 b 393 1063 286 1113 333 1063 z m 681 1063 b 789 1174 740 1063 789 1113 b 681 1286 789 1236 740 1286 b 574 1174 621 1286 574 1236 b 681 1063 574 1113 621 1063 z m 1131 168 b 1038 299 1108 178 1082 204 b 788 875 979 422 840 779 b 546 1013 732 975 653 1013 b 357 835 414 1013 367 954 b 343 736 354 799 357 782 b 175 342 324 674 217 431 b 50 164 106 193 88 179 b -14 82 8 147 -14 122 b 204 -12 -14 13 68 -12 b 414 86 332 -12 414 11 b 346 163 414 124 389 142 b 331 207 326 172 326 186 b 340 246 332 217 336 231 b 503 257 390 254 442 257 b 665 247 563 257 615 256 b 672 211 669 232 672 219 b 640 161 672 183 661 171 b 583 88 599 140 583 121 b 878 -12 583 8 694 -12 b 1182 92 1060 -12 1182 13 b 1131 168 1182 135 1161 154 z m 503 414 b 396 413 469 414 432 413 b 496 661 425 494 461 583 b 606 413 532 586 572 494 b 503 414 571 413 538 414 z "},"À":{"ha":1167,"x_min":0,"x_max":0,"o":"m 342 1179 b 510 1075 393 1140 453 1106 b 599 1047 540 1058 567 1047 b 653 1085 633 1047 653 1065 b 640 1121 653 1094 650 1104 b 538 1265 610 1174 569 1226 b 400 1315 510 1299 479 1315 b 271 1269 293 1315 271 1301 b 342 1179 271 1238 293 1215 z m 1131 168 b 1038 299 1108 178 1082 204 b 788 875 979 422 840 779 b 546 1013 732 975 653 1013 b 357 835 414 1013 367 954 b 343 736 354 799 357 782 b 175 342 324 674 217 431 b 50 164 106 193 88 179 b -14 82 8 147 -14 122 b 204 -12 -14 13 68 -12 b 414 86 332 -12 414 11 b 346 163 414 124 389 142 b 331 207 326 172 326 186 b 340 246 332 217 336 231 b 503 257 390 254 442 257 b 665 247 563 257 615 256 b 672 211 669 232 672 219 b 640 161 672 183 661 171 b 583 88 599 140 583 121 b 878 -12 583 8 694 -12 b 1182 92 1060 -12 1182 13 b 1131 168 1182 135 1161 154 z m 503 414 b 396 413 469 414 432 413 b 496 661 425 494 461 583 b 606 413 532 586 572 494 b 503 414 571 413 538 414 z "},"Ā":{"ha":1167,"x_min":0,"x_max":0,"o":"m 340 1094 b 535 1101 403 1094 475 1101 b 714 1097 592 1101 669 1097 b 788 1199 768 1097 788 1151 b 736 1257 788 1231 776 1257 b 542 1249 675 1257 603 1249 b 361 1253 479 1249 408 1253 b 288 1153 307 1253 288 1197 b 340 1094 288 1119 299 1094 z m 1131 168 b 1038 299 1108 178 1082 204 b 788 875 979 422 840 779 b 546 1013 732 975 653 1013 b 357 835 414 1013 367 954 b 343 736 354 799 357 782 b 175 342 324 674 217 431 b 50 164 106 193 88 179 b -14 82 8 147 -14 122 b 204 -12 -14 13 68 -12 b 414 86 332 -12 414 11 b 346 163 414 124 389 142 b 331 207 326 172 326 186 b 340 246 332 217 336 231 b 503 257 390 254 442 257 b 665 247 563 257 615 256 b 672 211 669 232 672 219 b 640 161 672 183 661 171 b 583 88 599 140 583 121 b 878 -12 583 8 694 -12 b 1182 92 1060 -12 1182 13 b 1131 168 1182 135 1161 154 z m 503 414 b 396 413 469 414 432 413 b 496 661 425 494 461 583 b 606 413 532 586 572 494 b 503 414 571 413 538 414 z "},"Ą":{"ha":1167,"x_min":0,"x_max":0,"o":"m 1182 92 b 1131 168 1182 135 1161 154 b 1038 299 1108 178 1082 204 b 788 875 979 422 840 779 b 546 1013 732 975 653 1013 b 357 835 414 1013 367 954 b 343 736 354 799 357 782 b 175 342 324 674 217 431 b 50 164 106 193 88 179 b -14 82 8 147 -14 122 b 204 -12 -14 13 68 -12 b 414 86 332 -12 414 11 b 346 163 414 124 389 142 b 331 207 326 172 326 186 b 340 246 332 217 336 231 b 503 257 390 254 442 257 b 665 247 563 257 615 256 b 672 211 669 232 672 219 b 640 161 672 183 661 171 b 583 88 599 140 583 121 b 835 -12 583 15 676 -8 b 744 -168 778 -61 744 -117 b 878 -281 744 -236 800 -281 b 1004 -233 933 -281 979 -258 b 1025 -187 1018 -219 1025 -203 b 993 -149 1025 -162 1011 -149 b 969 -156 985 -149 976 -153 b 940 -164 961 -158 951 -164 b 918 -128 928 -164 918 -156 b 968 -10 918 -97 935 -51 b 1182 92 1099 -3 1182 26 z m 503 414 b 396 413 469 414 432 413 b 496 661 425 494 461 583 b 606 413 532 586 572 494 b 503 414 571 413 538 414 z "},"Å":{"ha":1167,"x_min":0,"x_max":0,"o":"m 538 1033 b 739 1186 664 1033 738 1089 b 538 1339 740 1285 664 1339 b 336 1186 411 1339 335 1285 b 538 1033 338 1089 411 1033 z m 538 1254 b 589 1181 571 1254 589 1228 b 538 1119 589 1142 574 1119 b 486 1196 504 1119 486 1147 b 538 1254 486 1232 503 1254 z m 1131 168 b 1038 299 1108 178 1082 204 b 788 875 979 422 840 779 b 546 1013 732 975 653 1013 b 357 835 414 1013 367 954 b 343 736 354 799 357 782 b 175 342 324 674 217 431 b 50 164 106 193 88 179 b -14 82 8 147 -14 122 b 204 -12 -14 13 68 -12 b 414 86 332 -12 414 11 b 346 163 414 124 389 142 b 331 207 326 172 326 186 b 340 246 332 217 336 231 b 503 257 390 254 442 257 b 665 247 563 257 615 256 b 672 211 669 232 672 219 b 640 161 672 183 661 171 b 583 88 599 140 583 121 b 878 -12 583 8 694 -12 b 1182 92 1060 -12 1182 13 b 1131 168 1182 135 1161 154 z m 503 414 b 396 413 469 414 432 413 b 496 661 425 494 461 583 b 606 413 532 586 572 494 b 503 414 571 413 538 414 z "},"Ã":{"ha":1167,"x_min":0,"x_max":0,"o":"m 338 1074 b 411 1124 367 1074 386 1092 b 444 1151 425 1142 432 1151 b 619 1060 474 1151 506 1060 b 771 1167 699 1060 746 1111 b 785 1236 782 1192 785 1218 b 739 1294 785 1269 764 1294 b 665 1244 710 1294 690 1276 b 632 1217 651 1226 644 1217 b 457 1308 603 1217 571 1308 b 306 1201 378 1308 331 1257 b 292 1132 294 1176 292 1150 b 338 1074 292 1099 313 1074 z m 1131 168 b 1038 299 1108 178 1082 204 b 788 875 979 422 840 779 b 546 1013 732 975 653 1013 b 357 835 414 1013 367 954 b 343 736 354 799 357 782 b 175 342 324 674 217 431 b 50 164 106 193 88 179 b -14 82 8 147 -14 122 b 204 -12 -14 13 68 -12 b 414 86 332 -12 414 11 b 346 163 414 124 389 142 b 331 207 326 172 326 186 b 340 246 332 217 336 231 b 503 257 390 254 442 257 b 665 247 563 257 615 256 b 672 211 669 232 672 219 b 640 161 672 183 661 171 b 583 88 599 140 583 121 b 878 -12 583 8 694 -12 b 1182 92 1060 -12 1182 13 b 1131 168 1182 135 1161 154 z m 503 414 b 396 413 469 414 432 413 b 496 661 425 494 461 583 b 606 413 532 586 572 494 b 503 414 571 413 538 414 z "},"Æ":{"ha":1558,"x_min":0,"x_max":0,"o":"m 1440 394 b 1346 303 1393 394 1365 357 b 1293 196 1333 267 1314 219 b 1168 160 1271 171 1243 160 l 1107 160 b 1035 293 1040 160 1035 179 l 1035 432 b 1150 392 1131 431 1144 418 b 1221 318 1158 344 1171 318 b 1318 507 1288 318 1319 399 b 1221 694 1317 615 1288 694 b 1150 618 1171 694 1157 665 b 1035 578 1146 592 1129 579 l 1035 719 b 1107 840 1035 821 1040 840 l 1168 840 b 1282 810 1239 840 1261 828 b 1331 731 1299 794 1313 767 b 1415 658 1353 686 1372 658 b 1504 799 1461 658 1504 701 b 1358 1035 1504 931 1439 1035 b 1294 1000 1331 1035 1308 1022 l 993 1000 b 643 1003 878 1000 728 1003 b 439 917 499 1003 439 981 b 519 813 439 849 519 847 b 508 783 519 801 514 794 b 479 738 497 767 488 750 b 231 340 424 646 285 418 b 65 164 131 196 107 179 b -19 74 11 144 -19 113 b 186 -12 -19 14 60 -12 b 435 93 360 -12 435 24 b 372 163 435 128 411 150 b 364 210 351 169 354 186 b 393 267 369 224 381 243 b 510 272 429 271 468 272 b 683 260 574 272 632 271 l 683 228 b 651 158 683 192 683 174 b 592 83 628 147 592 125 b 776 -3 592 19 654 -3 b 993 0 831 -3 897 0 l 1303 0 b 1375 -35 1319 -22 1343 -35 b 1533 246 1463 -35 1533 101 b 1440 394 1533 347 1492 394 z m 546 429 b 488 428 526 429 507 429 b 683 735 547 528 621 642 l 683 429 b 546 429 635 426 592 429 z "},"B":{"ha":1064,"x_min":0,"x_max":0,"o":"m 838 543 b 982 754 901 572 982 629 b 619 1010 982 944 803 1010 b 350 1004 550 1010 440 1004 b 201 1007 301 1004 250 1007 b 29 922 90 1007 29 985 b 86 846 29 881 68 857 b 117 776 117 826 117 814 l 117 228 b 86 158 117 190 117 178 b 29 82 68 147 29 125 b 201 -3 29 19 90 -3 b 353 1 251 -3 299 1 b 642 -4 419 1 481 -4 b 1040 290 790 -4 1040 61 b 838 543 1040 449 921 528 z m 492 839 b 540 857 500 853 521 857 b 636 714 603 857 636 796 b 518 576 636 638 606 576 b 483 578 510 576 497 576 l 483 776 b 492 839 483 806 483 825 z m 554 149 b 493 174 525 149 503 156 b 483 240 483 190 483 215 l 483 438 b 528 440 499 439 515 440 b 668 292 615 440 668 388 b 554 149 668 203 622 149 z "},"C":{"ha":1038,"x_min":0,"x_max":0,"o":"m 940 374 b 850 313 896 374 874 339 b 693 238 803 258 750 238 b 396 633 540 238 396 429 b 553 836 396 753 443 838 b 774 690 642 835 708 774 b 907 599 818 635 846 599 b 1013 749 950 599 1013 632 b 851 1014 1013 878 946 1014 b 785 976 822 1014 799 1000 b 563 1022 725 1003 651 1022 b 25 504 264 1022 25 804 b 532 -22 25 214 269 -22 b 751 26 615 -22 689 -1 b 818 -1 767 8 790 -1 b 1013 274 917 -1 1013 151 b 940 374 1013 332 988 374 z "},"Ć":{"ha":1038,"x_min":0,"x_max":0,"o":"m 435 1047 b 524 1075 467 1047 493 1058 b 692 1179 581 1106 640 1140 b 763 1269 740 1215 763 1238 b 633 1315 763 1301 740 1315 b 496 1265 554 1315 524 1299 b 393 1121 464 1226 424 1174 b 381 1085 383 1104 381 1094 b 435 1047 381 1065 400 1047 z m 940 374 b 850 313 896 374 874 339 b 693 238 803 258 750 238 b 396 633 540 238 396 429 b 553 836 396 753 443 838 b 774 690 642 835 708 774 b 907 599 818 635 846 599 b 1013 749 950 599 1013 632 b 851 1014 1013 878 946 1014 b 785 976 822 1014 799 1000 b 563 1022 725 1003 651 1022 b 25 504 264 1022 25 804 b 532 -22 25 214 269 -22 b 751 26 615 -22 689 -1 b 818 -1 767 8 790 -1 b 1013 274 917 -1 1013 151 b 940 374 1013 332 988 374 z "},"Č":{"ha":1038,"x_min":0,"x_max":0,"o":"m 376 1114 b 511 1064 414 1081 444 1064 b 646 1114 578 1064 608 1081 b 743 1232 678 1143 719 1194 b 763 1283 757 1254 763 1271 b 710 1325 763 1306 747 1325 b 621 1296 682 1325 654 1314 b 511 1219 581 1275 546 1249 b 401 1296 476 1249 442 1275 b 313 1325 368 1314 340 1325 b 260 1283 275 1325 260 1306 b 279 1232 260 1271 265 1254 b 376 1114 303 1194 342 1146 z m 940 374 b 850 313 896 374 874 339 b 693 238 803 258 750 238 b 396 633 540 238 396 429 b 553 836 396 753 443 838 b 774 690 642 835 708 774 b 907 599 818 635 846 599 b 1013 749 950 599 1013 632 b 851 1014 1013 878 946 1014 b 785 976 822 1014 799 1000 b 563 1022 725 1003 651 1022 b 25 504 264 1022 25 804 b 532 -22 25 214 269 -22 b 751 26 615 -22 689 -1 b 818 -1 767 8 790 -1 b 1013 274 917 -1 1013 151 b 940 374 1013 332 988 374 z "},"Ç":{"ha":1038,"x_min":0,"x_max":0,"o":"m 940 374 b 850 313 896 374 874 339 b 693 238 803 258 750 238 b 396 633 540 238 396 429 b 553 836 396 753 443 838 b 774 690 642 835 708 774 b 907 599 818 635 846 599 b 1013 749 950 599 1013 632 b 851 1014 1013 878 946 1014 b 785 976 822 1014 799 1000 b 563 1022 725 1003 651 1022 b 25 504 264 1022 25 804 b 419 -8 25 256 203 47 l 389 -111 b 456 -164 399 -131 433 -158 b 519 -149 476 -156 500 -149 b 568 -169 553 -149 568 -156 b 515 -193 568 -183 549 -193 b 428 -175 482 -193 453 -183 b 389 -165 413 -169 399 -165 b 350 -203 368 -165 350 -182 b 386 -249 350 -221 364 -236 b 532 -281 424 -269 485 -281 b 718 -157 646 -281 718 -232 b 557 -43 718 -90 653 -43 b 510 -47 540 -43 525 -44 l 517 -22 l 532 -22 b 751 26 615 -22 689 -1 b 818 -1 767 8 790 -1 b 1013 274 917 -1 1013 151 b 940 374 1013 332 988 374 z "},"Ĉ":{"ha":1038,"x_min":0,"x_max":0,"o":"m 313 1057 b 401 1086 340 1057 368 1068 b 511 1163 442 1107 476 1133 b 621 1086 546 1133 581 1107 b 710 1057 654 1068 682 1057 b 763 1099 747 1057 763 1076 b 743 1150 763 1111 757 1128 b 646 1268 719 1188 681 1236 b 511 1318 608 1301 578 1318 b 376 1268 444 1318 414 1301 b 279 1150 344 1239 303 1188 b 260 1099 265 1128 260 1111 b 313 1057 260 1076 275 1057 z m 940 374 b 850 313 896 374 874 339 b 693 238 803 258 750 238 b 396 633 540 238 396 429 b 553 836 396 753 443 838 b 774 690 642 835 708 774 b 907 599 818 635 846 599 b 1013 749 950 599 1013 632 b 851 1014 1013 878 946 1014 b 785 976 822 1014 799 1000 b 563 1022 725 1003 651 1022 b 25 504 264 1022 25 804 b 532 -22 25 214 269 -22 b 751 26 615 -22 689 -1 b 818 -1 767 8 790 -1 b 1013 274 917 -1 1013 151 b 940 374 1013 332 988 374 z "},"Ċ":{"ha":1038,"x_min":0,"x_max":0,"o":"m 506 1057 b 619 1174 568 1057 619 1110 b 506 1292 619 1239 568 1292 b 393 1174 443 1292 393 1239 b 506 1057 393 1110 443 1057 z m 940 374 b 850 313 896 374 874 339 b 693 238 803 258 750 238 b 396 633 540 238 396 429 b 553 836 396 753 443 838 b 774 690 642 835 708 774 b 907 599 818 635 846 599 b 1013 749 950 599 1013 632 b 851 1014 1013 878 946 1014 b 785 976 822 1014 799 1000 b 563 1022 725 1003 651 1022 b 25 504 264 1022 25 804 b 532 -22 25 214 269 -22 b 751 26 615 -22 689 -1 b 818 -1 767 8 790 -1 b 1013 274 917 -1 1013 151 b 940 374 1013 332 988 374 z "},"D":{"ha":1153,"x_min":0,"x_max":0,"o":"m 579 -7 b 1126 513 889 -7 1126 194 b 579 1010 1126 817 889 1010 b 339 1003 478 1010 438 1003 b 175 1006 285 1003 229 1006 b 32 918 92 1006 32 981 b 85 842 32 875 68 853 b 115 772 115 822 115 808 l 115 228 b 85 158 115 192 115 178 b 32 82 68 147 32 125 b 175 -3 32 19 92 -3 b 349 0 229 -3 285 0 b 579 -7 438 0 478 -7 z m 550 157 b 493 186 521 157 503 167 b 482 249 485 201 482 222 l 482 754 b 493 818 482 783 486 806 b 549 843 500 831 518 843 b 725 500 665 843 725 694 b 550 157 725 306 665 157 z "},"Ð":{"ha":1158,"x_min":0,"x_max":0,"o":"m 585 1010 b 344 1003 483 1010 443 1003 b 181 1006 290 1003 235 1006 b 38 918 97 1006 38 981 b 90 842 38 875 74 853 b 121 772 121 822 121 808 l 121 582 l 100 582 b 38 510 51 582 38 553 b 100 436 38 465 51 436 l 121 436 l 121 228 b 90 158 121 192 121 178 b 38 82 74 147 38 125 b 181 -3 38 19 97 -3 b 354 0 235 -3 290 0 b 585 -7 443 0 483 -7 b 1132 513 894 -7 1132 194 b 585 1010 1132 817 894 1010 z m 556 157 b 499 186 526 157 508 167 b 488 249 490 201 488 222 l 488 436 l 565 436 b 628 510 614 436 628 465 b 565 582 628 553 614 582 l 488 582 l 488 754 b 499 818 488 783 492 806 b 554 843 506 831 524 843 b 731 500 671 843 731 694 b 556 157 731 306 671 157 z "},"Ď":{"ha":1153,"x_min":0,"x_max":0,"o":"m 401 1114 b 536 1064 439 1081 469 1064 b 671 1114 603 1064 633 1081 b 768 1232 703 1143 744 1194 b 788 1283 782 1254 788 1271 b 735 1325 788 1306 772 1325 b 646 1296 707 1325 679 1314 b 536 1219 606 1275 571 1249 b 426 1296 501 1249 467 1275 b 338 1325 393 1314 365 1325 b 285 1283 300 1325 285 1306 b 304 1232 285 1271 290 1254 b 401 1114 328 1194 367 1146 z m 579 1010 b 339 1003 478 1010 438 1003 b 175 1006 285 1003 229 1006 b 32 918 92 1006 32 981 b 85 842 32 875 68 853 b 115 772 115 822 115 808 l 115 228 b 85 158 115 192 115 178 b 32 82 68 147 32 125 b 175 -3 32 19 92 -3 b 349 0 229 -3 285 0 b 579 -7 438 0 478 -7 b 1126 513 889 -7 1126 194 b 579 1010 1126 817 889 1010 z m 550 157 b 493 186 521 157 503 167 b 482 249 485 201 482 222 l 482 754 b 493 818 482 783 486 806 b 549 843 500 831 518 843 b 725 500 665 843 725 694 b 550 157 725 306 665 157 z "},"Đ":{"ha":1158,"x_min":0,"x_max":0,"o":"m 585 1010 b 344 1003 483 1010 443 1003 b 181 1006 290 1003 235 1006 b 38 918 97 1006 38 981 b 90 842 38 875 74 853 b 121 772 121 822 121 808 l 121 582 l 100 582 b 38 510 51 582 38 553 b 100 436 38 465 51 436 l 121 436 l 121 228 b 90 158 121 192 121 178 b 38 82 74 147 38 125 b 181 -3 38 19 97 -3 b 354 0 235 -3 290 0 b 585 -7 443 0 483 -7 b 1132 513 894 -7 1132 194 b 585 1010 1132 817 894 1010 z m 556 157 b 499 186 526 157 508 167 b 488 249 490 201 488 222 l 488 436 l 565 436 b 628 510 614 436 628 465 b 565 582 628 553 614 582 l 488 582 l 488 754 b 499 818 488 783 492 806 b 554 843 506 831 524 843 b 731 500 671 843 731 694 b 556 157 731 306 671 157 z "},"E":{"ha":1014,"x_min":0,"x_max":0,"o":"m 894 394 b 797 303 844 394 817 357 b 744 196 785 267 765 219 b 619 160 722 171 694 160 l 547 160 b 475 293 481 160 475 179 l 475 432 b 601 392 582 431 596 418 b 675 318 610 344 622 318 b 772 507 742 318 774 399 b 675 694 771 615 742 694 b 601 618 622 694 608 665 b 475 578 597 592 581 579 l 475 719 b 547 840 475 821 481 840 l 619 840 b 733 810 690 840 713 828 b 782 731 750 794 764 767 b 869 658 804 686 824 658 b 960 799 917 658 960 701 b 814 1035 960 931 894 1035 b 746 1000 785 1035 761 1022 l 433 1000 b 211 1004 346 1000 272 1004 b 29 917 89 1004 29 981 b 88 842 29 875 65 853 b 118 772 119 825 118 808 l 118 228 b 86 158 118 192 118 174 b 26 83 63 147 26 125 b 211 -4 26 19 89 -4 b 433 0 265 -4 332 0 l 756 0 b 831 -35 772 -22 797 -35 b 989 246 918 -35 989 101 b 894 394 989 347 947 394 z "},"É":{"ha":1014,"x_min":0,"x_max":0,"o":"m 410 1047 b 499 1075 442 1047 468 1058 b 667 1179 556 1106 615 1140 b 738 1269 715 1215 738 1238 b 608 1315 738 1301 715 1315 b 471 1265 529 1315 499 1299 b 368 1121 439 1226 399 1174 b 356 1085 358 1104 356 1094 b 410 1047 356 1065 375 1047 z m 894 394 b 797 303 844 394 817 357 b 744 196 785 267 765 219 b 619 160 722 171 694 160 l 547 160 b 475 293 481 160 475 179 l 475 432 b 601 392 582 431 596 418 b 675 318 610 344 622 318 b 772 507 742 318 774 399 b 675 694 771 615 742 694 b 601 618 622 694 608 665 b 475 578 597 592 581 579 l 475 719 b 547 840 475 821 481 840 l 619 840 b 733 810 690 840 713 828 b 782 731 750 794 764 767 b 869 658 804 686 824 658 b 960 799 917 658 960 701 b 814 1035 960 931 894 1035 b 746 1000 785 1035 761 1022 l 433 1000 b 211 1004 346 1000 272 1004 b 29 917 89 1004 29 981 b 88 842 29 875 65 853 b 118 772 119 825 118 808 l 118 228 b 86 158 118 192 118 174 b 26 83 63 147 26 125 b 211 -4 26 19 89 -4 b 433 0 265 -4 332 0 l 756 0 b 831 -35 772 -22 797 -35 b 989 246 918 -35 989 101 b 894 394 989 347 947 394 z "},"Ĕ":{"ha":1014,"x_min":0,"x_max":0,"o":"m 478 1060 b 704 1190 588 1060 663 1114 b 724 1274 721 1221 725 1242 b 672 1325 722 1308 699 1325 b 583 1268 638 1325 617 1303 b 478 1217 556 1239 521 1217 b 374 1267 439 1217 401 1238 b 283 1325 340 1301 321 1325 b 232 1271 253 1325 233 1303 b 251 1190 231 1244 240 1211 b 478 1060 288 1125 356 1060 z m 894 394 b 797 303 844 394 817 357 b 744 196 785 267 765 219 b 619 160 722 171 694 160 l 547 160 b 475 293 481 160 475 179 l 475 432 b 601 392 582 431 596 418 b 675 318 610 344 622 318 b 772 507 742 318 774 399 b 675 694 771 615 742 694 b 601 618 622 694 608 665 b 475 578 597 592 581 579 l 475 719 b 547 840 475 821 481 840 l 619 840 b 733 810 690 840 713 828 b 782 731 750 794 764 767 b 869 658 804 686 824 658 b 960 799 917 658 960 701 b 814 1035 960 931 894 1035 b 746 1000 785 1035 761 1022 l 433 1000 b 211 1004 346 1000 272 1004 b 29 917 89 1004 29 981 b 88 842 29 875 65 853 b 118 772 119 825 118 808 l 118 228 b 86 158 118 192 118 174 b 26 83 63 147 26 125 b 211 -4 26 19 89 -4 b 433 0 265 -4 332 0 l 756 0 b 831 -35 772 -22 797 -35 b 989 246 918 -35 989 101 b 894 394 989 347 947 394 z "},"Ě":{"ha":1014,"x_min":0,"x_max":0,"o":"m 351 1114 b 486 1064 389 1081 419 1064 b 621 1114 553 1064 583 1081 b 718 1232 653 1143 694 1194 b 738 1283 732 1254 738 1271 b 685 1325 738 1306 722 1325 b 596 1296 657 1325 629 1314 b 486 1219 556 1275 521 1249 b 376 1296 451 1249 417 1275 b 288 1325 343 1314 315 1325 b 235 1283 250 1325 235 1306 b 254 1232 235 1271 240 1254 b 351 1114 278 1194 317 1146 z m 894 394 b 797 303 844 394 817 357 b 744 196 785 267 765 219 b 619 160 722 171 694 160 l 547 160 b 475 293 481 160 475 179 l 475 432 b 601 392 582 431 596 418 b 675 318 610 344 622 318 b 772 507 742 318 774 399 b 675 694 771 615 742 694 b 601 618 622 694 608 665 b 475 578 597 592 581 579 l 475 719 b 547 840 475 821 481 840 l 619 840 b 733 810 690 840 713 828 b 782 731 750 794 764 767 b 869 658 804 686 824 658 b 960 799 917 658 960 701 b 814 1035 960 931 894 1035 b 746 1000 785 1035 761 1022 l 433 1000 b 211 1004 346 1000 272 1004 b 29 917 89 1004 29 981 b 88 842 29 875 65 853 b 118 772 119 825 118 808 l 118 228 b 86 158 118 192 118 174 b 26 83 63 147 26 125 b 211 -4 26 19 89 -4 b 433 0 265 -4 332 0 l 756 0 b 831 -35 772 -22 797 -35 b 989 246 918 -35 989 101 b 894 394 989 347 947 394 z "},"Ê":{"ha":1014,"x_min":0,"x_max":0,"o":"m 288 1057 b 376 1086 315 1057 343 1068 b 486 1163 417 1107 451 1133 b 596 1086 521 1133 556 1107 b 685 1057 629 1068 657 1057 b 738 1099 722 1057 738 1076 b 718 1150 738 1111 732 1128 b 621 1268 694 1188 656 1236 b 486 1318 583 1301 553 1318 b 351 1268 419 1318 389 1301 b 254 1150 319 1239 278 1188 b 235 1099 240 1128 235 1111 b 288 1057 235 1076 250 1057 z m 894 394 b 797 303 844 394 817 357 b 744 196 785 267 765 219 b 619 160 722 171 694 160 l 547 160 b 475 293 481 160 475 179 l 475 432 b 601 392 582 431 596 418 b 675 318 610 344 622 318 b 772 507 742 318 774 399 b 675 694 771 615 742 694 b 601 618 622 694 608 665 b 475 578 597 592 581 579 l 475 719 b 547 840 475 821 481 840 l 619 840 b 733 810 690 840 713 828 b 782 731 750 794 764 767 b 869 658 804 686 824 658 b 960 799 917 658 960 701 b 814 1035 960 931 894 1035 b 746 1000 785 1035 761 1022 l 433 1000 b 211 1004 346 1000 272 1004 b 29 917 89 1004 29 981 b 88 842 29 875 65 853 b 118 772 119 825 118 808 l 118 228 b 86 158 118 192 118 174 b 26 83 63 147 26 125 b 211 -4 26 19 89 -4 b 433 0 265 -4 332 0 l 756 0 b 831 -35 772 -22 797 -35 b 989 246 918 -35 989 101 b 894 394 989 347 947 394 z "},"Ë":{"ha":1014,"x_min":0,"x_max":0,"o":"m 333 1063 b 442 1174 393 1063 442 1113 b 333 1286 442 1236 393 1286 b 226 1174 274 1286 226 1236 b 333 1063 226 1113 274 1063 z m 621 1063 b 729 1174 681 1063 729 1113 b 621 1286 729 1236 681 1286 b 514 1174 561 1286 514 1236 b 621 1063 514 1113 561 1063 z m 894 394 b 797 303 844 394 817 357 b 744 196 785 267 765 219 b 619 160 722 171 694 160 l 547 160 b 475 293 481 160 475 179 l 475 432 b 601 392 582 431 596 418 b 675 318 610 344 622 318 b 772 507 742 318 774 399 b 675 694 771 615 742 694 b 601 618 622 694 608 665 b 475 578 597 592 581 579 l 475 719 b 547 840 475 821 481 840 l 619 840 b 733 810 690 840 713 828 b 782 731 750 794 764 767 b 869 658 804 686 824 658 b 960 799 917 658 960 701 b 814 1035 960 931 894 1035 b 746 1000 785 1035 761 1022 l 433 1000 b 211 1004 346 1000 272 1004 b 29 917 89 1004 29 981 b 88 842 29 875 65 853 b 118 772 119 825 118 808 l 118 228 b 86 158 118 192 118 174 b 26 83 63 147 26 125 b 211 -4 26 19 89 -4 b 433 0 265 -4 332 0 l 756 0 b 831 -35 772 -22 797 -35 b 989 246 918 -35 989 101 b 894 394 989 347 947 394 z "},"Ė":{"ha":1014,"x_min":0,"x_max":0,"o":"m 481 1057 b 594 1174 543 1057 594 1110 b 481 1292 594 1239 543 1292 b 368 1174 418 1292 368 1239 b 481 1057 368 1110 418 1057 z m 894 394 b 797 303 844 394 817 357 b 744 196 785 267 765 219 b 619 160 722 171 694 160 l 547 160 b 475 293 481 160 475 179 l 475 432 b 601 392 582 431 596 418 b 675 318 610 344 622 318 b 772 507 742 318 774 399 b 675 694 771 615 742 694 b 601 618 622 694 608 665 b 475 578 597 592 581 579 l 475 719 b 547 840 475 821 481 840 l 619 840 b 733 810 690 840 713 828 b 782 731 750 794 764 767 b 869 658 804 686 824 658 b 960 799 917 658 960 701 b 814 1035 960 931 894 1035 b 746 1000 785 1035 761 1022 l 433 1000 b 211 1004 346 1000 272 1004 b 29 917 89 1004 29 981 b 88 842 29 875 65 853 b 118 772 119 825 118 808 l 118 228 b 86 158 118 192 118 174 b 26 83 63 147 26 125 b 211 -4 26 19 89 -4 b 433 0 265 -4 332 0 l 756 0 b 831 -35 772 -22 797 -35 b 989 246 918 -35 989 101 b 894 394 989 347 947 394 z "},"È":{"ha":1014,"x_min":0,"x_max":0,"o":"m 282 1179 b 450 1075 333 1140 393 1106 b 539 1047 481 1058 507 1047 b 593 1085 574 1047 593 1065 b 581 1121 593 1094 590 1104 b 478 1265 550 1174 510 1226 b 340 1315 450 1299 419 1315 b 211 1269 233 1315 211 1301 b 282 1179 211 1238 233 1215 z m 894 394 b 797 303 844 394 817 357 b 744 196 785 267 765 219 b 619 160 722 171 694 160 l 547 160 b 475 293 481 160 475 179 l 475 432 b 601 392 582 431 596 418 b 675 318 610 344 622 318 b 772 507 742 318 774 399 b 675 694 771 615 742 694 b 601 618 622 694 608 665 b 475 578 597 592 581 579 l 475 719 b 547 840 475 821 481 840 l 619 840 b 733 810 690 840 713 828 b 782 731 750 794 764 767 b 869 658 804 686 824 658 b 960 799 917 658 960 701 b 814 1035 960 931 894 1035 b 746 1000 785 1035 761 1022 l 433 1000 b 211 1004 346 1000 272 1004 b 29 917 89 1004 29 981 b 88 842 29 875 65 853 b 118 772 119 825 118 808 l 118 228 b 86 158 118 192 118 174 b 26 83 63 147 26 125 b 211 -4 26 19 89 -4 b 433 0 265 -4 332 0 l 756 0 b 831 -35 772 -22 797 -35 b 989 246 918 -35 989 101 b 894 394 989 347 947 394 z "},"Ē":{"ha":1014,"x_min":0,"x_max":0,"o":"m 281 1094 b 475 1101 343 1094 415 1101 b 654 1097 532 1101 610 1097 b 728 1199 708 1097 728 1151 b 676 1257 728 1231 717 1257 b 482 1249 615 1257 543 1249 b 301 1253 419 1249 349 1253 b 228 1153 247 1253 228 1197 b 281 1094 228 1119 239 1094 z m 894 394 b 797 303 844 394 817 357 b 744 196 785 267 765 219 b 619 160 722 171 694 160 l 547 160 b 475 293 481 160 475 179 l 475 432 b 601 392 582 431 596 418 b 675 318 610 344 622 318 b 772 507 742 318 774 399 b 675 694 771 615 742 694 b 601 618 622 694 608 665 b 475 578 597 592 581 579 l 475 719 b 547 840 475 821 481 840 l 619 840 b 733 810 690 840 713 828 b 782 731 750 794 764 767 b 869 658 804 686 824 658 b 960 799 917 658 960 701 b 814 1035 960 931 894 1035 b 746 1000 785 1035 761 1022 l 433 1000 b 211 1004 346 1000 272 1004 b 29 917 89 1004 29 981 b 88 842 29 875 65 853 b 118 772 119 825 118 808 l 118 228 b 86 158 118 192 118 174 b 26 83 63 147 26 125 b 211 -4 26 19 89 -4 b 433 0 265 -4 332 0 l 756 0 b 831 -35 772 -22 797 -35 b 989 246 918 -35 989 101 b 894 394 989 347 947 394 z "},"Ę":{"ha":1014,"x_min":0,"x_max":0,"o":"m 894 394 b 797 303 844 394 817 357 b 744 196 785 267 765 219 b 619 160 722 171 694 160 l 547 160 b 475 293 481 160 475 179 l 475 432 b 601 392 582 431 596 418 b 675 318 610 344 622 318 b 772 507 742 318 774 399 b 675 694 771 615 742 694 b 601 618 622 694 608 665 b 475 578 597 592 581 579 l 475 719 b 547 840 475 821 481 840 l 619 840 b 733 810 690 840 713 828 b 782 731 750 794 764 767 b 869 658 804 686 824 658 b 960 799 917 658 960 701 b 814 1035 960 931 894 1035 b 746 1000 785 1035 761 1022 l 433 1000 b 211 1004 346 1000 272 1004 b 29 917 89 1004 29 981 b 88 842 29 875 65 853 b 118 772 119 825 118 808 l 118 228 b 86 158 118 192 118 174 b 26 83 63 147 26 125 b 211 -4 26 19 89 -4 b 433 0 265 -4 332 0 l 567 0 b 463 -168 501 -51 463 -112 b 596 -281 463 -236 518 -281 b 722 -233 651 -281 697 -258 b 743 -187 736 -219 743 -203 b 711 -149 743 -162 729 -149 b 688 -156 703 -149 694 -153 b 658 -164 679 -158 669 -164 b 636 -128 646 -164 636 -156 b 694 0 636 -94 656 -43 l 756 0 b 831 -35 772 -22 797 -35 b 989 246 918 -35 989 101 b 894 394 989 347 947 394 z "},"F":{"ha":978,"x_min":0,"x_max":0,"o":"m 810 1035 b 736 1000 776 1035 751 1022 l 460 1000 b 210 1006 354 1000 271 1006 b 31 918 90 1006 31 982 b 86 843 31 876 69 854 b 117 774 117 824 117 810 l 117 222 b 82 156 117 190 117 176 b 31 85 54 139 31 122 b 300 -12 31 8 132 -12 b 589 82 492 -12 589 8 b 533 158 589 128 563 144 b 483 222 489 179 483 186 l 483 411 b 600 361 582 408 594 396 b 675 268 608 299 622 268 b 772 472 739 268 772 347 b 675 674 772 588 743 674 b 601 597 622 674 608 644 b 483 557 597 571 582 560 l 483 719 b 556 836 483 815 489 836 l 601 836 b 724 810 656 836 697 832 b 788 719 746 792 764 760 b 879 642 814 676 836 642 b 975 768 932 642 975 689 b 810 1035 975 906 889 1035 z "},"G":{"ha":1172,"x_min":0,"x_max":0,"o":"m 899 517 b 624 418 739 517 624 496 b 697 342 624 368 672 351 b 763 267 732 329 763 315 b 671 181 763 217 732 181 b 396 588 531 181 396 372 b 582 829 396 742 465 829 b 803 703 683 829 749 764 b 942 615 849 651 896 615 b 1050 761 1001 615 1050 651 b 892 1011 1050 888 982 1011 b 818 969 860 1011 833 996 b 572 1022 754 1000 671 1022 b 26 499 281 1022 26 824 b 588 -22 26 190 256 -22 b 1057 271 831 -22 994 92 b 1113 340 1072 313 1079 322 b 1174 418 1144 358 1174 378 b 899 517 1174 496 1058 517 z "},"Ğ":{"ha":1172,"x_min":0,"x_max":0,"o":"m 549 1060 b 775 1190 658 1060 733 1114 b 794 1274 792 1221 796 1242 b 743 1325 793 1308 769 1325 b 654 1268 708 1325 688 1303 b 549 1217 626 1239 592 1217 b 444 1267 510 1217 472 1238 b 354 1325 411 1301 392 1325 b 303 1271 324 1325 304 1303 b 322 1190 301 1244 311 1211 b 549 1060 358 1125 426 1060 z m 899 517 b 624 418 739 517 624 496 b 697 342 624 368 672 351 b 763 267 732 329 763 315 b 671 181 763 217 732 181 b 396 588 531 181 396 372 b 582 829 396 742 465 829 b 803 703 683 829 749 764 b 942 615 849 651 896 615 b 1050 761 1001 615 1050 651 b 892 1011 1050 888 982 1011 b 818 969 860 1011 833 996 b 572 1022 754 1000 671 1022 b 26 499 281 1022 26 824 b 588 -22 26 190 256 -22 b 1057 271 831 -22 994 92 b 1113 340 1072 313 1079 322 b 1174 418 1144 358 1174 378 b 899 517 1174 496 1058 517 z "},"Ĝ":{"ha":1172,"x_min":0,"x_max":0,"o":"m 358 1057 b 447 1086 386 1057 414 1068 b 557 1163 488 1107 522 1133 b 667 1086 592 1133 626 1107 b 756 1057 700 1068 728 1057 b 808 1099 793 1057 808 1076 b 789 1150 808 1111 803 1128 b 692 1268 765 1188 726 1236 b 557 1318 654 1301 624 1318 b 422 1268 490 1318 460 1301 b 325 1150 390 1239 349 1188 b 306 1099 311 1128 306 1111 b 358 1057 306 1076 321 1057 z m 899 517 b 624 418 739 517 624 496 b 697 342 624 368 672 351 b 763 267 732 329 763 315 b 671 181 763 217 732 181 b 396 588 531 181 396 372 b 582 829 396 742 465 829 b 803 703 683 829 749 764 b 942 615 849 651 896 615 b 1050 761 1001 615 1050 651 b 892 1011 1050 888 982 1011 b 818 969 860 1011 833 996 b 572 1022 754 1000 671 1022 b 26 499 281 1022 26 824 b 588 -22 26 190 256 -22 b 1057 271 831 -22 994 92 b 1113 340 1072 313 1079 322 b 1174 418 1144 358 1174 378 b 899 517 1174 496 1058 517 z "},"Ģ":{"ha":1172,"x_min":0,"x_max":0,"o":"m 899 517 b 624 418 739 517 624 496 b 697 342 624 368 672 351 b 763 267 732 329 763 315 b 671 181 763 217 732 181 b 396 588 531 181 396 372 b 582 829 396 742 465 829 b 803 703 683 829 749 764 b 942 615 849 651 896 615 b 1050 761 1001 615 1050 651 b 892 1011 1050 888 982 1011 b 818 969 860 1011 833 996 b 572 1022 754 1000 671 1022 b 26 499 281 1022 26 824 b 588 -22 26 190 256 -22 b 1057 271 831 -22 994 92 b 1113 340 1072 313 1079 322 b 1174 418 1144 358 1174 378 b 899 517 1174 496 1058 517 z m 594 -42 b 479 -126 539 -42 479 -71 b 525 -193 479 -156 496 -176 b 556 -228 542 -203 556 -211 b 519 -287 556 -247 539 -268 b 494 -332 506 -301 494 -315 b 536 -367 494 -353 513 -367 b 714 -161 603 -367 714 -262 b 594 -42 714 -99 672 -42 z "},"Ġ":{"ha":1172,"x_min":0,"x_max":0,"o":"m 551 1057 b 665 1174 614 1057 665 1110 b 551 1292 665 1239 614 1292 b 439 1174 489 1292 439 1239 b 551 1057 439 1110 489 1057 z m 899 517 b 624 418 739 517 624 496 b 697 342 624 368 672 351 b 763 267 732 329 763 315 b 671 181 763 217 732 181 b 396 588 531 181 396 372 b 582 829 396 742 465 829 b 803 703 683 829 749 764 b 942 615 849 651 896 615 b 1050 761 1001 615 1050 651 b 892 1011 1050 888 982 1011 b 818 969 860 1011 833 996 b 572 1022 754 1000 671 1022 b 26 499 281 1022 26 824 b 588 -22 26 190 256 -22 b 1057 271 831 -22 994 92 b 1113 340 1072 313 1079 322 b 1174 418 1144 358 1174 378 b 899 517 1174 496 1058 517 z "},"H":{"ha":1207,"x_min":0,"x_max":0,"o":"m 1122 156 b 1094 222 1094 171 1094 186 l 1094 778 b 1122 844 1094 814 1094 829 b 1174 913 1154 861 1174 878 b 911 1013 1174 992 1071 1013 b 649 913 751 1013 649 992 b 699 844 649 878 668 861 b 728 778 728 828 728 814 l 728 599 b 643 586 719 589 711 586 l 564 586 b 479 599 496 586 488 589 l 479 778 b 507 844 479 814 479 829 b 558 913 539 861 558 878 b 296 1013 558 992 456 1013 b 33 913 136 1013 33 992 b 83 844 33 878 53 861 b 113 778 113 828 113 814 l 113 222 b 83 156 113 186 113 172 b 33 88 53 139 33 122 b 296 -12 33 8 136 -12 b 558 88 456 -12 558 8 b 507 156 558 122 539 139 b 479 222 479 171 479 186 l 479 404 b 564 417 488 414 496 417 l 643 417 b 728 404 711 417 719 414 l 728 222 b 699 156 728 186 728 172 b 649 88 668 139 649 122 b 911 -12 649 8 751 -12 b 1174 88 1071 -12 1174 8 b 1122 156 1174 122 1154 139 z "},"Ħ":{"ha":1213,"x_min":0,"x_max":0,"o":"m 1125 156 b 1097 222 1097 171 1097 186 l 1097 651 l 1128 651 b 1190 725 1176 651 1190 681 b 1128 797 1190 768 1176 797 l 1097 797 b 1125 844 1099 819 1103 832 b 1176 913 1157 861 1176 878 b 914 1013 1176 992 1074 1013 b 651 913 754 1013 651 992 b 701 844 651 878 671 861 b 731 783 729 829 731 815 l 482 783 b 510 844 482 815 483 831 b 561 913 542 861 561 878 b 299 1013 561 992 458 1013 b 36 913 139 1013 36 992 b 86 844 36 878 56 861 b 115 797 110 831 114 819 l 85 797 b 22 725 36 797 22 768 b 85 651 22 681 36 651 l 115 651 l 115 222 b 86 156 115 186 115 172 b 36 88 56 139 36 122 b 299 -12 36 8 139 -12 b 561 88 458 -12 561 8 b 510 156 561 122 542 139 b 482 222 482 171 482 186 l 482 404 b 567 417 490 414 499 417 l 646 417 b 731 404 714 417 722 414 l 731 222 b 701 156 731 186 731 172 b 651 88 671 139 651 122 b 914 -12 651 8 754 -12 b 1176 88 1074 -12 1176 8 b 1125 156 1176 122 1157 139 z m 646 586 l 567 586 b 482 599 499 586 490 589 l 482 665 l 731 665 l 731 599 b 646 586 722 589 714 586 z "},"Ĥ":{"ha":1207,"x_min":0,"x_max":0,"o":"m 410 1057 b 499 1086 438 1057 465 1068 b 608 1163 539 1107 574 1133 b 718 1086 643 1133 678 1107 b 807 1057 751 1068 779 1057 b 860 1099 844 1057 860 1076 b 840 1150 860 1111 854 1128 b 743 1268 817 1188 778 1236 b 608 1318 706 1301 675 1318 b 474 1268 542 1318 511 1301 b 376 1150 442 1239 400 1188 b 357 1099 363 1128 357 1111 b 410 1057 357 1076 372 1057 z m 1122 156 b 1094 222 1094 171 1094 186 l 1094 778 b 1122 844 1094 814 1094 829 b 1174 913 1154 861 1174 878 b 911 1013 1174 992 1071 1013 b 649 913 751 1013 649 992 b 699 844 649 878 668 861 b 728 778 728 828 728 814 l 728 599 b 643 586 719 589 711 586 l 564 586 b 479 599 496 586 488 589 l 479 778 b 507 844 479 814 479 829 b 558 913 539 861 558 878 b 296 1013 558 992 456 1013 b 33 913 136 1013 33 992 b 83 844 33 878 53 861 b 113 778 113 828 113 814 l 113 222 b 83 156 113 186 113 172 b 33 88 53 139 33 122 b 296 -12 33 8 136 -12 b 558 88 456 -12 558 8 b 507 156 558 122 539 139 b 479 222 479 171 479 186 l 479 404 b 564 417 488 414 496 417 l 643 417 b 728 404 711 417 719 414 l 728 222 b 699 156 728 186 728 172 b 649 88 668 139 649 122 b 911 -12 649 8 751 -12 b 1174 88 1071 -12 1174 8 b 1122 156 1174 122 1154 139 z "},"I":{"ha":592,"x_min":0,"x_max":0,"o":"m 296 -12 b 558 88 450 -12 558 8 b 507 156 558 122 539 139 b 479 222 479 171 479 186 l 479 778 b 507 844 479 814 479 829 b 558 913 539 861 558 878 b 296 1013 558 992 450 1013 b 33 913 142 1013 33 992 b 83 844 33 878 53 861 b 113 778 113 828 113 814 l 113 222 b 83 156 113 186 113 172 b 33 88 53 139 33 122 b 296 -12 33 8 142 -12 z "},"Ĳ":{"ha":1488,"x_min":0,"x_max":0,"o":"m 296 -12 b 558 88 450 -12 558 8 b 507 156 558 122 539 139 b 479 222 479 171 479 186 l 479 778 b 507 844 479 814 479 829 b 558 913 539 861 558 878 b 296 1013 558 992 450 1013 b 33 913 142 1013 33 992 b 83 844 33 878 53 861 b 113 778 113 828 113 814 l 113 222 b 83 156 113 186 113 172 b 33 88 53 139 33 122 b 296 -12 33 8 142 -12 z m 988 -22 b 1393 328 1218 -22 1393 63 l 1393 778 b 1422 844 1393 814 1393 828 b 1472 913 1453 861 1472 878 b 1210 1013 1472 992 1369 1013 b 938 915 1039 1013 938 992 b 992 844 938 878 958 861 b 1026 778 1026 826 1026 810 l 1026 344 b 938 139 1026 203 990 139 b 893 181 913 139 893 156 b 904 213 893 190 899 200 b 925 286 913 232 925 251 b 765 442 925 368 861 442 b 582 263 646 442 582 363 b 988 -22 582 115 710 -22 z "},"Í":{"ha":592,"x_min":0,"x_max":0,"o":"m 226 1047 b 315 1075 258 1047 285 1058 b 483 1179 372 1106 432 1140 b 554 1269 532 1215 554 1238 b 425 1315 554 1301 532 1315 b 288 1265 346 1315 315 1299 b 185 1121 256 1226 215 1174 b 172 1085 175 1104 172 1094 b 226 1047 172 1065 192 1047 z m 296 -12 b 558 88 450 -12 558 8 b 507 156 558 122 539 139 b 479 222 479 171 479 186 l 479 778 b 507 844 479 814 479 829 b 558 913 539 861 558 878 b 296 1013 558 992 450 1013 b 33 913 142 1013 33 992 b 83 844 33 878 53 861 b 113 778 113 828 113 814 l 113 222 b 83 156 113 186 113 172 b 33 88 53 139 33 122 b 296 -12 33 8 142 -12 z "},"Ĭ":{"ha":592,"x_min":0,"x_max":0,"o":"m 294 1060 b 521 1190 404 1060 479 1114 b 540 1274 538 1221 542 1242 b 489 1325 539 1308 515 1325 b 400 1268 454 1325 433 1303 b 294 1217 372 1239 338 1217 b 190 1267 256 1217 218 1238 b 100 1325 157 1301 138 1325 b 49 1271 69 1325 50 1303 b 68 1190 47 1244 57 1211 b 294 1060 104 1125 172 1060 z m 296 -12 b 558 88 450 -12 558 8 b 507 156 558 122 539 139 b 479 222 479 171 479 186 l 479 778 b 507 844 479 814 479 829 b 558 913 539 861 558 878 b 296 1013 558 992 450 1013 b 33 913 142 1013 33 992 b 83 844 33 878 53 861 b 113 778 113 828 113 814 l 113 222 b 83 156 113 186 113 172 b 33 88 53 139 33 122 b 296 -12 33 8 142 -12 z "},"Î":{"ha":592,"x_min":0,"x_max":0,"o":"m 104 1057 b 193 1086 132 1057 160 1068 b 303 1163 233 1107 268 1133 b 413 1086 338 1133 372 1107 b 501 1057 446 1068 474 1057 b 554 1099 539 1057 554 1076 b 535 1150 554 1111 549 1128 b 438 1268 511 1188 472 1236 b 303 1318 400 1301 369 1318 b 168 1268 236 1318 206 1301 b 71 1150 136 1239 94 1188 b 51 1099 57 1128 51 1111 b 104 1057 51 1076 67 1057 z m 507 156 b 479 222 479 171 479 186 l 479 778 b 507 844 479 814 479 829 b 558 913 539 861 558 878 b 296 1013 558 992 450 1013 b 33 913 142 1013 33 992 b 83 844 33 878 53 861 b 113 778 113 828 113 814 l 113 222 b 83 156 113 186 113 172 b 33 88 53 139 33 122 b 296 -12 33 8 142 -12 b 558 88 450 -12 558 8 b 507 156 558 122 539 139 z "},"Ï":{"ha":592,"x_min":0,"x_max":0,"o":"m 150 1063 b 258 1174 210 1063 258 1113 b 150 1286 258 1236 210 1286 b 43 1174 90 1286 43 1236 b 150 1063 43 1113 90 1063 z m 438 1063 b 546 1174 497 1063 546 1113 b 438 1286 546 1236 497 1286 b 331 1174 378 1286 331 1236 b 438 1063 331 1113 378 1063 z m 296 -12 b 558 88 450 -12 558 8 b 507 156 558 122 539 139 b 479 222 479 171 479 186 l 479 778 b 507 844 479 814 479 829 b 558 913 539 861 558 878 b 296 1013 558 992 450 1013 b 33 913 142 1013 33 992 b 83 844 33 878 53 861 b 113 778 113 828 113 814 l 113 222 b 83 156 113 186 113 172 b 33 88 53 139 33 122 b 296 -12 33 8 142 -12 z "},"İ":{"ha":592,"x_min":0,"x_max":0,"o":"m 297 1057 b 411 1174 360 1057 411 1110 b 297 1292 411 1239 360 1292 b 185 1174 235 1292 185 1239 b 297 1057 185 1110 235 1057 z m 296 -12 b 558 88 450 -12 558 8 b 507 156 558 122 539 139 b 479 222 479 171 479 186 l 479 778 b 507 844 479 814 479 829 b 558 913 539 861 558 878 b 296 1013 558 992 450 1013 b 33 913 142 1013 33 992 b 83 844 33 878 53 861 b 113 778 113 828 113 814 l 113 222 b 83 156 113 186 113 172 b 33 88 53 139 33 122 b 296 -12 33 8 142 -12 z "},"Ì":{"ha":592,"x_min":0,"x_max":0,"o":"m 356 1047 b 410 1085 390 1047 410 1065 b 397 1121 410 1094 407 1104 b 294 1265 367 1174 326 1226 b 157 1315 267 1299 236 1315 b 28 1269 50 1315 28 1301 b 99 1179 28 1238 50 1215 b 267 1075 150 1140 210 1106 b 356 1047 297 1058 324 1047 z m 296 -12 b 558 88 450 -12 558 8 b 507 156 558 122 539 139 b 479 222 479 171 479 186 l 479 778 b 507 844 479 814 479 829 b 558 913 539 861 558 878 b 296 1013 558 992 450 1013 b 33 913 142 1013 33 992 b 83 844 33 878 53 861 b 113 778 113 828 113 814 l 113 222 b 83 156 113 186 113 172 b 33 88 53 139 33 122 b 296 -12 33 8 142 -12 z "},"Ī":{"ha":592,"x_min":0,"x_max":0,"o":"m 97 1094 b 292 1101 160 1094 232 1101 b 471 1097 349 1101 426 1097 b 544 1199 525 1097 544 1151 b 493 1257 544 1231 533 1257 b 299 1249 432 1257 360 1249 b 118 1253 236 1249 165 1253 b 44 1153 64 1253 44 1197 b 97 1094 44 1119 56 1094 z m 296 -12 b 558 88 450 -12 558 8 b 507 156 558 122 539 139 b 479 222 479 171 479 186 l 479 778 b 507 844 479 814 479 829 b 558 913 539 861 558 878 b 296 1013 558 992 450 1013 b 33 913 142 1013 33 992 b 83 844 33 878 53 861 b 113 778 113 828 113 814 l 113 222 b 83 156 113 186 113 172 b 33 88 53 139 33 122 b 296 -12 33 8 142 -12 z "},"Į":{"ha":592,"x_min":0,"x_max":0,"o":"m 507 156 b 479 222 479 171 479 186 l 479 778 b 507 844 479 814 479 829 b 558 913 539 861 558 878 b 296 1013 558 992 450 1013 b 33 913 142 1013 33 992 b 83 844 33 878 53 861 b 113 778 113 828 113 814 l 113 222 b 83 156 113 186 113 172 b 33 88 53 139 33 122 b 265 -12 33 14 128 -10 b 175 -168 207 -61 175 -117 b 308 -281 175 -236 231 -281 b 435 -233 364 -281 410 -258 b 456 -187 449 -219 456 -203 b 424 -149 456 -162 442 -149 b 400 -156 415 -149 407 -153 b 371 -164 392 -158 382 -164 b 349 -128 358 -164 349 -156 b 400 -8 349 -97 365 -50 b 558 88 496 1 558 28 b 507 156 558 122 539 139 z "},"Ĩ":{"ha":592,"x_min":0,"x_max":0,"o":"m 376 1060 b 528 1167 456 1060 503 1111 b 542 1236 539 1192 542 1218 b 496 1294 542 1269 521 1294 b 422 1244 467 1294 447 1276 b 389 1217 408 1226 401 1217 b 214 1308 360 1217 328 1308 b 63 1201 135 1308 88 1257 b 49 1132 51 1176 49 1150 b 94 1074 49 1099 69 1074 b 168 1124 124 1074 143 1092 b 201 1151 182 1142 189 1151 b 376 1060 231 1151 263 1060 z m 296 -12 b 558 88 450 -12 558 8 b 507 156 558 122 539 139 b 479 222 479 171 479 186 l 479 778 b 507 844 479 814 479 829 b 558 913 539 861 558 878 b 296 1013 558 992 450 1013 b 33 913 142 1013 33 992 b 83 844 33 878 53 861 b 113 778 113 828 113 814 l 113 222 b 83 156 113 186 113 172 b 33 88 53 139 33 122 b 296 -12 33 8 142 -12 z "},"J":{"ha":906,"x_min":0,"x_max":0,"o":"m 406 -22 b 811 328 636 -22 811 63 l 811 778 b 840 844 811 814 811 828 b 890 913 871 861 890 878 b 628 1013 890 992 788 1013 b 356 915 457 1013 356 992 b 410 844 356 878 376 861 b 444 778 444 826 444 810 l 444 344 b 356 139 444 203 408 139 b 311 181 331 139 311 156 b 322 213 311 190 317 200 b 343 286 331 232 343 251 b 183 442 343 368 279 442 b 0 263 64 442 0 363 b 406 -22 0 115 128 -22 z "},"Ĵ":{"ha":906,"x_min":0,"x_max":0,"o":"m 425 1057 b 514 1086 453 1057 481 1068 b 624 1163 554 1107 589 1133 b 733 1086 658 1133 693 1107 b 822 1057 767 1068 794 1057 b 875 1099 860 1057 875 1076 b 856 1150 875 1111 869 1128 b 758 1268 832 1188 793 1236 b 624 1318 721 1301 690 1318 b 489 1268 557 1318 526 1301 b 392 1150 457 1239 415 1188 b 372 1099 378 1128 372 1111 b 425 1057 372 1076 388 1057 z m 628 1013 b 356 915 457 1013 356 992 b 410 844 356 878 376 861 b 444 778 444 826 444 810 l 444 344 b 356 139 444 203 408 139 b 311 181 331 139 311 156 b 322 213 311 190 317 200 b 343 286 331 232 343 251 b 183 442 343 368 279 442 b 0 263 64 442 0 363 b 406 -22 0 115 128 -22 b 811 328 636 -22 811 63 l 811 778 b 840 844 811 814 811 828 b 890 913 871 861 890 878 b 628 1013 890 992 788 1013 z "},"K":{"ha":1174,"x_min":0,"x_max":0,"o":"m 1128 167 b 1038 244 1107 176 1081 188 b 747 647 911 413 796 568 b 986 814 850 746 913 808 b 1119 908 1076 822 1119 853 b 876 1013 1119 988 1032 1013 b 643 914 724 1013 643 989 b 675 856 643 888 656 868 b 699 828 694 843 699 839 b 479 594 699 797 593 693 l 479 778 b 507 844 479 814 479 826 b 553 913 533 861 553 878 b 296 1013 553 992 450 1013 b 33 913 136 1013 33 992 b 83 844 33 878 53 861 b 113 778 113 828 113 814 l 113 222 b 83 156 113 186 113 172 b 33 88 53 139 33 122 b 296 -12 33 8 136 -12 b 560 88 453 -12 560 8 b 511 156 560 122 540 139 b 479 222 479 174 479 186 l 479 383 b 488 397 482 388 485 392 b 722 60 536 342 649 168 b 949 -12 760 6 824 -12 b 1193 88 1110 -12 1193 22 b 1128 167 1193 121 1178 143 z "},"Ķ":{"ha":1174,"x_min":0,"x_max":0,"o":"m 1128 167 b 1038 244 1107 176 1081 188 b 747 647 911 413 796 568 b 986 814 850 746 913 808 b 1119 908 1076 822 1119 853 b 876 1013 1119 988 1032 1013 b 643 914 724 1013 643 989 b 675 856 643 888 656 868 b 699 828 694 843 699 839 b 479 594 699 797 593 693 l 479 778 b 507 844 479 814 479 826 b 553 913 533 861 553 878 b 296 1013 553 992 450 1013 b 33 913 136 1013 33 992 b 83 844 33 878 53 861 b 113 778 113 828 113 814 l 113 222 b 83 156 113 186 113 172 b 33 88 53 139 33 122 b 296 -12 33 8 136 -12 b 560 88 453 -12 560 8 b 511 156 560 122 540 139 b 479 222 479 174 479 186 l 479 383 b 488 397 482 388 485 392 b 722 60 536 342 649 168 b 949 -12 760 6 824 -12 b 1193 88 1110 -12 1193 22 b 1128 167 1193 121 1178 143 z m 607 -42 b 492 -126 551 -42 492 -71 b 538 -193 492 -156 508 -176 b 568 -228 554 -203 568 -211 b 532 -287 568 -247 551 -268 b 507 -332 518 -301 507 -315 b 549 -367 507 -353 525 -367 b 726 -161 615 -367 726 -262 b 607 -42 726 -99 685 -42 z "},"L":{"ha":956,"x_min":0,"x_max":0,"o":"m 847 422 b 744 322 794 422 765 381 b 688 199 729 282 710 225 b 575 164 665 171 635 164 l 556 164 b 483 297 489 164 483 183 l 483 774 b 518 844 483 806 482 828 b 576 915 553 861 576 875 b 310 1013 576 992 485 1013 b 29 913 150 1013 29 992 b 79 844 29 878 49 861 b 117 778 108 828 117 814 l 117 226 b 86 157 117 190 118 174 b 28 81 64 146 28 124 b 210 -6 28 18 88 -6 b 467 0 271 -6 351 0 l 703 0 b 779 -33 719 -21 746 -33 b 947 256 872 -33 947 101 b 847 422 947 371 899 422 z "},"Ĺ":{"ha":956,"x_min":0,"x_max":0,"o":"m 243 1047 b 332 1075 275 1047 301 1058 b 500 1179 389 1106 449 1140 b 571 1269 549 1215 571 1238 b 442 1315 571 1301 549 1315 b 304 1265 363 1315 332 1299 b 201 1121 272 1226 232 1174 b 189 1085 192 1104 189 1094 b 243 1047 189 1065 208 1047 z m 847 422 b 744 322 794 422 765 381 b 688 199 729 282 710 225 b 575 164 665 171 635 164 l 556 164 b 483 297 489 164 483 183 l 483 774 b 518 844 483 806 482 828 b 576 915 553 861 576 875 b 310 1013 576 992 485 1013 b 29 913 150 1013 29 992 b 79 844 29 878 49 861 b 117 778 108 828 117 814 l 117 226 b 86 157 117 190 118 174 b 28 81 64 146 28 124 b 210 -6 28 18 88 -6 b 467 0 271 -6 351 0 l 703 0 b 779 -33 719 -21 746 -33 b 947 256 872 -33 947 101 b 847 422 947 371 899 422 z "},"Ľ":{"ha":956,"x_min":0,"x_max":0,"o":"m 672 624 b 739 682 701 624 724 649 b 806 953 768 746 806 867 b 679 1038 806 1010 749 1038 b 619 950 632 1038 619 1000 l 619 689 b 672 624 619 643 639 624 z m 847 422 b 744 322 794 422 765 381 b 688 199 729 282 710 225 b 575 164 665 171 635 164 l 556 164 b 483 297 489 164 483 183 l 483 774 b 518 844 483 806 482 828 b 576 915 553 861 576 875 b 310 1013 576 992 485 1013 b 29 913 150 1013 29 992 b 79 844 29 878 49 861 b 117 778 108 828 117 814 l 117 226 b 86 157 117 190 118 174 b 28 81 64 146 28 124 b 210 -6 28 18 88 -6 b 467 0 271 -6 351 0 l 703 0 b 779 -33 719 -21 746 -33 b 947 256 872 -33 947 101 b 847 422 947 371 899 422 z "},"Ļ":{"ha":956,"x_min":0,"x_max":0,"o":"m 847 422 b 744 322 794 422 765 381 b 688 199 729 282 710 225 b 575 164 665 171 635 164 l 556 164 b 483 297 489 164 483 183 l 483 774 b 518 844 483 806 482 828 b 576 915 553 861 576 875 b 310 1013 576 992 485 1013 b 29 913 150 1013 29 992 b 79 844 29 878 49 861 b 117 778 108 828 117 814 l 117 226 b 86 157 117 190 118 174 b 28 81 64 146 28 124 b 210 -6 28 18 88 -6 b 467 0 271 -6 351 0 l 703 0 b 779 -33 719 -21 746 -33 b 947 256 872 -33 947 101 b 847 422 947 371 899 422 z m 443 -42 b 328 -126 388 -42 328 -71 b 374 -193 328 -156 344 -176 b 404 -228 390 -203 404 -211 b 368 -287 404 -247 388 -268 b 343 -332 354 -301 343 -315 b 385 -367 343 -353 361 -367 b 563 -161 451 -367 563 -262 b 443 -42 563 -99 521 -42 z "},"Ŀ":{"ha":956,"x_min":0,"x_max":0,"o":"m 847 422 b 744 322 794 422 765 381 b 688 199 729 282 710 225 b 575 164 665 171 635 164 l 556 164 b 483 297 489 164 483 183 l 483 774 b 518 844 483 806 482 828 b 576 915 553 861 576 875 b 310 1013 576 992 485 1013 b 29 913 150 1013 29 992 b 79 844 29 878 49 861 b 117 778 108 828 117 814 l 117 226 b 86 157 117 190 118 174 b 28 81 64 146 28 124 b 210 -6 28 18 88 -6 b 467 0 271 -6 351 0 l 703 0 b 779 -33 719 -21 746 -33 b 947 256 872 -33 947 101 b 847 422 947 371 899 422 z m 708 431 b 847 574 786 431 847 494 b 708 718 847 654 786 718 b 571 574 632 718 571 654 b 708 431 571 494 632 431 z "},"Ł":{"ha":983,"x_min":0,"x_max":0,"o":"m 875 422 b 772 322 822 422 793 381 b 715 199 757 282 738 225 b 603 164 693 171 663 164 l 583 164 b 511 297 517 164 511 183 l 511 526 l 639 590 b 679 647 664 603 679 624 b 611 731 679 692 647 731 b 572 721 599 731 586 728 l 511 690 l 511 774 b 546 844 511 806 510 828 b 604 915 581 861 604 875 b 338 1013 604 992 513 1013 b 57 913 178 1013 57 992 b 107 844 57 878 76 861 b 144 778 136 828 144 814 l 144 504 l 61 463 b 19 406 35 449 19 428 b 88 322 19 363 53 322 b 126 332 100 322 113 325 l 144 342 l 144 226 b 114 157 144 190 146 174 b 56 81 92 146 56 124 b 238 -6 56 18 115 -6 b 494 0 299 -6 379 0 l 731 0 b 807 -33 747 -21 774 -33 b 975 256 900 -33 975 101 b 875 422 975 371 926 422 z "},"M":{"ha":1340,"x_min":0,"x_max":0,"o":"m 1256 156 b 1221 222 1221 174 1221 190 l 1221 740 b 1253 831 1221 790 1222 811 b 1317 915 1278 846 1317 865 b 1079 1008 1317 982 1253 1008 b 857 917 936 1008 894 989 b 690 596 846 899 828 863 b 518 908 633 714 557 850 b 281 1008 464 989 432 1008 b 26 915 94 1008 26 983 b 94 829 26 863 76 844 b 128 740 124 803 128 789 l 128 338 b 85 178 128 247 119 199 b 18 89 47 156 18 132 b 235 -12 18 14 104 -12 b 450 89 358 -12 450 14 b 376 185 450 136 414 161 b 322 338 336 210 322 247 l 322 451 l 322 546 b 465 292 369 460 419 372 b 607 161 511 211 544 161 b 742 293 664 161 694 210 b 872 543 786 371 832 456 b 874 451 874 521 874 493 l 874 222 b 835 156 874 186 868 175 b 782 86 806 139 782 122 b 1047 -12 782 8 896 -12 b 1310 86 1208 -12 1310 8 b 1256 156 1310 121 1289 139 z "},"N":{"ha":1158,"x_min":0,"x_max":0,"o":"m 949 1013 b 722 910 811 1013 722 986 b 797 825 722 871 758 846 b 851 663 838 804 851 765 l 851 549 b 850 519 851 539 851 529 b 499 911 736 642 629 771 b 233 1008 415 989 388 1008 b 11 910 64 1008 11 983 b 86 822 11 865 56 840 b 133 735 119 803 133 775 l 133 338 b 92 175 133 261 131 194 b 22 90 51 156 22 129 b 231 -12 22 14 110 -12 b 457 90 368 -12 457 14 b 382 175 457 129 421 154 b 328 338 342 196 328 235 l 328 451 b 329 554 328 476 328 513 b 742 119 453 431 631 233 b 936 -17 815 44 864 -17 b 1050 115 1010 -17 1050 32 b 1046 419 1050 185 1046 286 l 1046 663 b 1088 825 1046 739 1049 806 b 1157 910 1128 844 1157 871 b 949 1013 1157 986 1069 1013 z "},"Ń":{"ha":1158,"x_min":0,"x_max":0,"o":"m 485 1047 b 574 1075 517 1047 543 1058 b 742 1179 631 1106 690 1140 b 813 1269 790 1215 813 1238 b 683 1315 813 1301 790 1315 b 546 1265 604 1315 574 1299 b 443 1121 514 1226 474 1174 b 431 1085 433 1104 431 1094 b 485 1047 431 1065 450 1047 z m 949 1013 b 722 910 811 1013 722 986 b 797 825 722 871 758 846 b 851 663 838 804 851 765 l 851 549 b 850 519 851 539 851 529 b 499 911 736 642 629 771 b 233 1008 415 989 388 1008 b 11 910 64 1008 11 983 b 86 822 11 865 56 840 b 133 735 119 803 133 775 l 133 338 b 92 175 133 261 131 194 b 22 90 51 156 22 129 b 231 -12 22 14 110 -12 b 457 90 368 -12 457 14 b 382 175 457 129 421 154 b 328 338 342 196 328 235 l 328 451 b 329 554 328 476 328 513 b 742 119 453 431 631 233 b 936 -17 815 44 864 -17 b 1050 115 1010 -17 1050 32 b 1046 419 1050 185 1046 286 l 1046 663 b 1088 825 1046 739 1049 806 b 1157 910 1128 844 1157 871 b 949 1013 1157 986 1069 1013 z "},"Ň":{"ha":1158,"x_min":0,"x_max":0,"o":"m 426 1114 b 561 1064 464 1081 494 1064 b 696 1114 628 1064 658 1081 b 793 1232 728 1143 769 1194 b 813 1283 807 1254 813 1271 b 760 1325 813 1306 797 1325 b 671 1296 732 1325 704 1314 b 561 1219 631 1275 596 1249 b 451 1296 526 1249 492 1275 b 363 1325 418 1314 390 1325 b 310 1283 325 1325 310 1306 b 329 1232 310 1271 315 1254 b 426 1114 353 1194 392 1146 z m 949 1013 b 722 910 811 1013 722 986 b 797 825 722 871 758 846 b 851 663 838 804 851 765 l 851 549 b 850 519 851 539 851 529 b 499 911 736 642 629 771 b 233 1008 415 989 388 1008 b 11 910 64 1008 11 983 b 86 822 11 865 56 840 b 133 735 119 803 133 775 l 133 338 b 92 175 133 261 131 194 b 22 90 51 156 22 129 b 231 -12 22 14 110 -12 b 457 90 368 -12 457 14 b 382 175 457 129 421 154 b 328 338 342 196 328 235 l 328 451 b 329 554 328 476 328 513 b 742 119 453 431 631 233 b 936 -17 815 44 864 -17 b 1050 115 1010 -17 1050 32 b 1046 419 1050 185 1046 286 l 1046 663 b 1088 825 1046 739 1049 806 b 1157 910 1128 844 1157 871 b 949 1013 1157 986 1069 1013 z "},"Ņ":{"ha":1158,"x_min":0,"x_max":0,"o":"m 949 1013 b 722 910 811 1013 722 986 b 797 825 722 871 758 846 b 851 663 838 804 851 765 l 851 549 b 850 519 851 539 851 529 b 499 911 736 642 629 771 b 233 1008 415 989 388 1008 b 11 910 64 1008 11 983 b 86 822 11 865 56 840 b 133 735 119 803 133 775 l 133 338 b 92 175 133 261 131 194 b 22 90 51 156 22 129 b 231 -12 22 14 110 -12 b 457 90 368 -12 457 14 b 382 175 457 129 421 154 b 328 338 342 196 328 235 l 328 451 b 329 554 328 476 328 513 b 742 119 453 431 631 233 b 936 -17 815 44 864 -17 b 1050 115 1010 -17 1050 32 b 1046 419 1050 185 1046 286 l 1046 663 b 1088 825 1046 739 1049 806 b 1157 910 1128 844 1157 871 b 949 1013 1157 986 1069 1013 z m 585 -42 b 469 -126 529 -42 469 -71 b 515 -193 469 -156 486 -176 b 546 -228 532 -203 546 -211 b 510 -287 546 -247 529 -268 b 485 -332 496 -301 485 -315 b 526 -367 485 -353 503 -367 b 704 -161 593 -367 704 -262 b 585 -42 704 -99 663 -42 z "},"Ŋ":{"ha":1160,"x_min":0,"x_max":0,"o":"m 949 1013 b 722 910 811 1013 722 986 b 797 825 722 871 758 846 b 851 663 838 804 851 765 l 851 549 b 850 519 851 539 851 529 b 499 911 736 642 629 771 b 233 1008 415 989 388 1008 b 11 910 64 1008 11 983 b 86 822 11 865 56 840 b 133 735 119 803 133 775 l 133 338 b 92 175 133 261 131 194 b 22 90 51 156 22 129 b 231 -12 22 14 110 -12 b 457 90 368 -12 457 14 b 382 175 457 129 421 154 b 328 338 342 196 328 235 l 328 451 b 329 554 328 476 328 513 b 814 46 454 428 688 174 b 561 -182 763 -78 561 -85 b 686 -264 561 -229 614 -264 b 1046 88 843 -264 1046 -161 l 1046 663 b 1088 825 1046 739 1049 806 b 1157 910 1128 844 1157 871 b 949 1013 1157 986 1069 1013 z "},"Ñ":{"ha":1158,"x_min":0,"x_max":0,"o":"m 353 1074 b 426 1124 382 1074 401 1092 b 460 1151 440 1142 447 1151 b 635 1060 489 1151 521 1060 b 786 1167 714 1060 761 1111 b 800 1236 797 1192 800 1218 b 754 1294 800 1269 779 1294 b 681 1244 725 1294 706 1276 b 647 1217 667 1226 660 1217 b 472 1308 618 1217 586 1308 b 321 1201 393 1308 346 1257 b 307 1132 310 1176 307 1150 b 353 1074 307 1099 328 1074 z m 949 1013 b 722 910 811 1013 722 986 b 797 825 722 871 758 846 b 851 663 838 804 851 765 l 851 549 b 850 519 851 539 851 529 b 499 911 736 642 629 771 b 233 1008 415 989 388 1008 b 11 910 64 1008 11 983 b 86 822 11 865 56 840 b 133 735 119 803 133 775 l 133 338 b 92 175 133 261 131 194 b 22 90 51 156 22 129 b 231 -12 22 14 110 -12 b 457 90 368 -12 457 14 b 382 175 457 129 421 154 b 328 338 342 196 328 235 l 328 451 b 329 554 328 476 328 513 b 742 119 453 431 631 233 b 936 -17 815 44 864 -17 b 1050 115 1010 -17 1050 32 b 1046 419 1050 185 1046 286 l 1046 663 b 1088 825 1046 739 1049 806 b 1157 910 1128 844 1157 871 b 949 1013 1157 986 1069 1013 z "},"O":{"ha":1167,"x_min":0,"x_max":0,"o":"m 569 -22 b 1142 497 894 -22 1142 186 b 594 1022 1142 790 928 1022 b 25 501 279 1022 25 813 b 569 -22 25 215 239 -22 z m 657 168 b 397 657 510 168 397 481 b 508 829 397 758 433 829 b 769 343 656 829 769 518 b 657 168 769 240 732 168 z "},"Ó":{"ha":1167,"x_min":0,"x_max":0,"o":"m 496 1047 b 585 1075 528 1047 554 1058 b 753 1179 642 1106 701 1140 b 824 1269 801 1215 824 1238 b 694 1315 824 1301 801 1315 b 557 1265 615 1315 585 1299 b 454 1121 525 1226 485 1174 b 442 1085 444 1104 442 1094 b 496 1047 442 1065 461 1047 z m 569 -22 b 1142 497 894 -22 1142 186 b 594 1022 1142 790 928 1022 b 25 501 279 1022 25 813 b 569 -22 25 215 239 -22 z m 657 168 b 397 657 510 168 397 481 b 508 829 397 758 433 829 b 769 343 656 829 769 518 b 657 168 769 240 732 168 z "},"Ŏ":{"ha":1167,"x_min":0,"x_max":0,"o":"m 564 1060 b 790 1190 674 1060 749 1114 b 810 1274 807 1221 811 1242 b 758 1325 808 1308 785 1325 b 669 1268 724 1325 703 1303 b 564 1217 642 1239 607 1217 b 460 1267 525 1217 488 1238 b 369 1325 426 1301 407 1325 b 318 1271 339 1325 319 1303 b 338 1190 317 1244 326 1211 b 564 1060 374 1125 442 1060 z m 569 -22 b 1142 497 894 -22 1142 186 b 594 1022 1142 790 928 1022 b 25 501 279 1022 25 813 b 569 -22 25 215 239 -22 z m 657 168 b 397 657 510 168 397 481 b 508 829 397 758 433 829 b 769 343 656 829 769 518 b 657 168 769 240 732 168 z "},"Ô":{"ha":1167,"x_min":0,"x_max":0,"o":"m 374 1057 b 463 1086 401 1057 429 1068 b 572 1163 503 1107 538 1133 b 682 1086 607 1133 642 1107 b 771 1057 715 1068 743 1057 b 824 1099 808 1057 824 1076 b 804 1150 824 1111 818 1128 b 707 1268 781 1188 742 1236 b 572 1318 669 1301 639 1318 b 438 1268 506 1318 475 1301 b 340 1150 406 1239 364 1188 b 321 1099 326 1128 321 1111 b 374 1057 321 1076 336 1057 z m 594 1022 b 25 501 279 1022 25 813 b 569 -22 25 215 239 -22 b 1142 497 894 -22 1142 186 b 594 1022 1142 790 928 1022 z m 657 168 b 397 657 510 168 397 481 b 508 829 397 758 433 829 b 769 343 656 829 769 518 b 657 168 769 240 732 168 z "},"Ö":{"ha":1167,"x_min":0,"x_max":0,"o":"m 419 1063 b 528 1174 479 1063 528 1113 b 419 1286 528 1236 479 1286 b 313 1174 360 1286 313 1236 b 419 1063 313 1113 360 1063 z m 707 1063 b 815 1174 767 1063 815 1113 b 707 1286 815 1236 767 1286 b 600 1174 647 1286 600 1236 b 707 1063 600 1113 647 1063 z m 569 -22 b 1142 497 894 -22 1142 186 b 594 1022 1142 790 928 1022 b 25 501 279 1022 25 813 b 569 -22 25 215 239 -22 z m 657 168 b 397 657 510 168 397 481 b 508 829 397 758 433 829 b 769 343 656 829 769 518 b 657 168 769 240 732 168 z "},"Ò":{"ha":1167,"x_min":0,"x_max":0,"o":"m 625 1047 b 679 1085 660 1047 679 1065 b 667 1121 679 1094 676 1104 b 564 1265 636 1174 596 1226 b 426 1315 536 1299 506 1315 b 297 1269 319 1315 297 1301 b 368 1179 297 1238 319 1215 b 536 1075 419 1140 479 1106 b 625 1047 567 1058 593 1047 z m 569 -22 b 1142 497 894 -22 1142 186 b 594 1022 1142 790 928 1022 b 25 501 279 1022 25 813 b 569 -22 25 215 239 -22 z m 657 168 b 397 657 510 168 397 481 b 508 829 397 758 433 829 b 769 343 656 829 769 518 b 657 168 769 240 732 168 z "},"Ő":{"ha":1167,"x_min":0,"x_max":0,"o":"m 407 1047 b 486 1082 433 1047 458 1063 b 603 1179 529 1113 564 1140 b 654 1264 636 1213 654 1233 b 565 1315 654 1294 639 1315 b 446 1265 489 1315 467 1297 b 371 1125 419 1225 394 1183 b 363 1088 365 1111 363 1099 b 407 1047 363 1065 381 1047 z m 665 1047 b 744 1082 692 1047 717 1063 b 861 1179 788 1113 822 1140 b 913 1264 894 1213 913 1233 b 824 1315 913 1294 897 1315 b 704 1265 747 1315 725 1297 b 629 1125 678 1225 653 1183 b 621 1088 624 1111 621 1099 b 665 1047 621 1065 639 1047 z m 569 -22 b 1142 497 894 -22 1142 186 b 594 1022 1142 790 928 1022 b 25 501 279 1022 25 813 b 569 -22 25 215 239 -22 z m 657 168 b 397 657 510 168 397 481 b 508 829 397 758 433 829 b 769 343 656 829 769 518 b 657 168 769 240 732 168 z "},"Ō":{"ha":1167,"x_min":0,"x_max":0,"o":"m 367 1094 b 561 1101 429 1094 501 1101 b 740 1097 618 1101 696 1097 b 814 1199 794 1097 814 1151 b 763 1257 814 1231 803 1257 b 568 1249 701 1257 629 1249 b 388 1253 506 1249 435 1253 b 314 1153 333 1253 314 1197 b 367 1094 314 1119 325 1094 z m 569 -22 b 1142 497 894 -22 1142 186 b 594 1022 1142 790 928 1022 b 25 501 279 1022 25 813 b 569 -22 25 215 239 -22 z m 657 168 b 397 657 510 168 397 481 b 508 829 397 758 433 829 b 769 343 656 829 769 518 b 657 168 769 240 732 168 z "},"Ø":{"ha":1181,"x_min":0,"x_max":0,"o":"m 1043 821 l 1118 890 b 1142 933 1133 906 1142 919 b 1058 1015 1142 964 1089 1015 b 1015 993 1046 1015 1031 1008 l 939 922 b 601 1022 849 985 735 1022 b 32 501 286 1022 32 813 b 138 181 32 381 69 269 l 61 110 b 39 68 46 94 39 81 b 119 -15 39 31 90 -15 b 164 7 133 -15 149 -8 l 242 79 b 576 -22 331 15 444 -22 b 1149 497 901 -22 1149 186 b 1043 821 1149 619 1111 732 z m 515 829 b 689 678 582 829 643 764 l 440 447 b 404 657 417 521 404 597 b 515 829 404 758 440 829 z m 664 168 b 490 322 596 168 536 233 l 740 553 b 776 343 763 479 776 403 b 664 168 776 240 739 168 z "},"Õ":{"ha":1167,"x_min":0,"x_max":0,"o":"m 646 1060 b 797 1167 725 1060 772 1111 b 811 1236 808 1192 811 1218 b 765 1294 811 1269 790 1294 b 692 1244 736 1294 717 1276 b 658 1217 678 1226 671 1217 b 483 1308 629 1217 597 1308 b 332 1201 404 1308 357 1257 b 318 1132 321 1176 318 1150 b 364 1074 318 1099 339 1074 b 438 1124 393 1074 413 1092 b 471 1151 451 1142 458 1151 b 646 1060 500 1151 532 1060 z m 569 -22 b 1142 497 894 -22 1142 186 b 594 1022 1142 790 928 1022 b 25 501 279 1022 25 813 b 569 -22 25 215 239 -22 z m 657 168 b 397 657 510 168 397 481 b 508 829 397 758 433 829 b 769 343 656 829 769 518 b 657 168 769 240 732 168 z "},"Œ":{"ha":1610,"x_min":0,"x_max":0,"o":"m 1490 394 b 1393 303 1440 394 1413 357 b 1340 196 1381 267 1361 219 b 1215 160 1318 171 1290 160 l 1143 160 b 1071 293 1076 160 1071 179 l 1071 432 b 1197 392 1178 431 1192 418 b 1271 318 1206 344 1218 318 b 1368 500 1336 318 1368 396 b 1271 694 1368 611 1339 694 b 1197 618 1218 694 1204 665 b 1071 578 1193 592 1176 579 l 1071 719 b 1143 840 1071 821 1076 840 l 1215 840 b 1329 810 1286 840 1308 828 b 1378 731 1346 794 1360 767 b 1465 658 1400 686 1419 658 b 1556 799 1513 658 1556 701 b 1410 1035 1556 931 1490 1035 b 1342 1000 1381 1035 1357 1022 l 764 1000 b 593 1022 713 1014 654 1022 b 26 501 278 1022 26 813 b 568 -22 26 215 228 -22 b 738 0 628 -22 685 -14 l 1351 0 b 1426 -35 1368 -22 1393 -35 b 1585 246 1514 -35 1585 101 b 1490 394 1585 347 1543 394 z m 414 596 b 540 839 414 719 446 839 b 719 576 628 839 719 699 l 719 275 b 618 160 719 210 672 160 b 414 596 482 160 414 410 z "},"P":{"ha":1000,"x_min":0,"x_max":0,"o":"m 565 329 b 988 682 817 329 988 454 b 560 1008 988 899 839 1008 b 350 1000 497 1008 413 1000 b 201 1004 300 1000 250 1004 b 32 919 93 1004 32 982 b 85 843 32 876 68 854 b 115 774 115 824 115 810 l 115 222 b 81 156 115 190 115 176 b 32 85 53 139 32 122 b 299 -12 32 8 133 -12 b 574 86 460 -12 574 8 b 521 156 574 122 550 139 b 482 222 488 175 482 186 l 482 333 b 565 329 511 331 538 329 z m 492 826 b 536 849 500 842 517 849 b 635 664 599 849 635 778 b 522 499 635 549 593 499 b 482 501 508 499 494 500 l 482 768 b 492 826 482 797 485 814 z "},"Þ":{"ha":1019,"x_min":0,"x_max":0,"o":"m 1000 525 b 560 815 1000 714 844 815 b 488 814 536 815 513 815 b 521 843 493 825 503 832 b 574 913 550 860 574 876 b 299 1011 574 990 460 1011 b 32 914 133 1011 32 990 b 81 843 32 876 53 860 b 115 776 115 822 115 808 l 115 221 b 81 154 115 189 115 175 b 32 83 53 138 32 121 b 299 -14 32 7 133 -14 b 574 85 460 -14 574 7 b 521 154 574 121 550 138 b 482 211 490 172 483 182 b 565 207 511 208 538 207 b 1000 525 822 207 1000 324 z m 482 369 l 482 656 b 536 661 499 660 518 661 b 647 507 604 661 647 603 b 522 367 647 411 599 367 b 482 369 508 367 494 368 z "},"Q":{"ha":1165,"x_min":0,"x_max":0,"o":"m 1056 -40 b 1017 -53 1046 -40 1033 -46 b 903 -79 989 -64 951 -79 b 643 -15 822 -79 735 -49 b 1140 497 931 14 1140 210 b 593 1022 1140 790 926 1022 b 24 501 278 1022 24 813 b 269 58 24 315 115 150 b 108 -17 175 51 108 22 b 119 -44 108 -28 113 -37 b 153 -61 129 -54 142 -58 b 772 -289 364 -108 513 -290 b 1099 -81 969 -287 1099 -143 b 1056 -40 1099 -64 1088 -40 z m 507 829 b 768 343 654 829 768 518 b 656 168 768 240 731 168 b 396 657 508 168 396 481 b 507 829 396 758 432 829 z "},"R":{"ha":1125,"x_min":0,"x_max":0,"o":"m 1118 157 b 1063 194 1103 165 1079 174 b 1004 311 1044 217 1029 254 b 808 490 965 401 924 468 b 994 736 924 536 994 621 b 604 1010 994 919 842 1010 b 350 1000 501 1010 413 1000 b 201 1004 300 1000 250 1004 b 28 918 88 1004 28 981 b 86 842 28 875 64 853 b 117 772 118 825 117 808 l 117 222 b 82 156 117 190 117 174 b 28 85 49 139 28 122 b 300 -12 28 8 129 -12 b 581 86 472 -12 581 8 b 522 156 581 122 557 139 b 483 222 489 172 483 186 l 483 411 l 515 411 b 644 239 600 411 621 325 b 924 -12 676 121 733 -12 b 1142 113 1053 -12 1142 51 b 1118 157 1142 138 1133 149 z m 531 558 b 483 560 514 558 499 558 l 483 775 b 493 829 483 801 486 818 b 536 850 501 843 517 850 b 642 699 597 850 642 794 b 531 558 642 611 599 558 z "},"Ŕ":{"ha":1125,"x_min":0,"x_max":0,"o":"m 433 1047 b 522 1075 465 1047 492 1058 b 690 1179 579 1106 639 1140 b 761 1269 739 1215 761 1238 b 632 1315 761 1301 739 1315 b 494 1265 553 1315 522 1299 b 392 1121 463 1226 422 1174 b 379 1085 382 1104 379 1094 b 433 1047 379 1065 399 1047 z m 1118 157 b 1063 194 1103 165 1079 174 b 1004 311 1044 217 1029 254 b 808 490 965 401 924 468 b 994 736 924 536 994 621 b 604 1010 994 919 842 1010 b 350 1000 501 1010 413 1000 b 201 1004 300 1000 250 1004 b 28 918 88 1004 28 981 b 86 842 28 875 64 853 b 117 772 118 825 117 808 l 117 222 b 82 156 117 190 117 174 b 28 85 49 139 28 122 b 300 -12 28 8 129 -12 b 581 86 472 -12 581 8 b 522 156 581 122 557 139 b 483 222 489 172 483 186 l 483 411 l 515 411 b 644 239 600 411 621 325 b 924 -12 676 121 733 -12 b 1142 113 1053 -12 1142 51 b 1118 157 1142 138 1133 149 z m 531 558 b 483 560 514 558 499 558 l 483 775 b 493 829 483 801 486 818 b 536 850 501 843 517 850 b 642 699 597 850 642 794 b 531 558 642 611 599 558 z "},"Ř":{"ha":1125,"x_min":0,"x_max":0,"o":"m 375 1114 b 510 1064 413 1081 443 1064 b 644 1114 576 1064 607 1081 b 742 1232 676 1143 718 1194 b 761 1283 756 1254 761 1271 b 708 1325 761 1306 746 1325 b 619 1296 681 1325 653 1314 b 510 1219 579 1275 544 1249 b 400 1296 475 1249 440 1275 b 311 1325 367 1314 339 1325 b 258 1283 274 1325 258 1306 b 278 1232 258 1271 264 1254 b 375 1114 301 1194 340 1146 z m 1118 157 b 1063 194 1103 165 1079 174 b 1004 311 1044 217 1029 254 b 808 490 965 401 924 468 b 994 736 924 536 994 621 b 604 1010 994 919 842 1010 b 350 1000 501 1010 413 1000 b 201 1004 300 1000 250 1004 b 28 918 88 1004 28 981 b 86 842 28 875 64 853 b 117 772 118 825 117 808 l 117 222 b 82 156 117 190 117 174 b 28 85 49 139 28 122 b 300 -12 28 8 129 -12 b 581 86 472 -12 581 8 b 522 156 581 122 557 139 b 483 222 489 172 483 186 l 483 411 l 515 411 b 644 239 600 411 621 325 b 924 -12 676 121 733 -12 b 1142 113 1053 -12 1142 51 b 1118 157 1142 138 1133 149 z m 531 558 b 483 560 514 558 499 558 l 483 775 b 493 829 483 801 486 818 b 536 850 501 843 517 850 b 642 699 597 850 642 794 b 531 558 642 611 599 558 z "},"Ŗ":{"ha":1125,"x_min":0,"x_max":0,"o":"m 1118 157 b 1063 194 1103 165 1079 174 b 1004 311 1044 217 1029 254 b 808 490 965 401 924 468 b 994 736 924 536 994 621 b 604 1010 994 919 842 1010 b 350 1000 501 1010 413 1000 b 201 1004 300 1000 250 1004 b 28 918 88 1004 28 981 b 86 842 28 875 64 853 b 117 772 118 825 117 808 l 117 222 b 82 156 117 190 117 174 b 28 85 49 139 28 122 b 300 -12 28 8 129 -12 b 581 86 472 -12 581 8 b 522 156 581 122 557 139 b 483 222 489 172 483 186 l 483 411 l 515 411 b 644 239 600 411 621 325 b 924 -12 676 121 733 -12 b 1142 113 1053 -12 1142 51 b 1118 157 1142 138 1133 149 z m 531 558 b 483 560 514 558 499 558 l 483 775 b 493 829 483 801 486 818 b 536 850 501 843 517 850 b 642 699 597 850 642 794 b 531 558 642 611 599 558 z m 604 -42 b 489 -126 549 -42 489 -71 b 535 -193 489 -156 506 -176 b 565 -228 551 -203 565 -211 b 529 -287 565 -247 549 -268 b 504 -332 515 -301 504 -315 b 546 -367 504 -353 522 -367 b 724 -161 613 -367 724 -262 b 604 -42 724 -99 682 -42 z "},"S":{"ha":978,"x_min":0,"x_max":0,"o":"m 564 676 b 397 779 433 708 397 735 b 507 853 397 822 443 853 b 717 750 604 853 669 800 b 822 682 743 722 774 682 b 911 789 868 682 911 722 b 733 1022 911 879 833 1022 b 656 976 697 1022 671 1003 b 450 1024 610 1000 542 1024 b 53 674 224 1024 53 878 b 439 335 53 464 243 383 b 611 228 579 300 611 274 b 496 149 611 181 574 149 b 228 290 393 149 290 217 b 118 363 185 340 161 363 b 28 238 72 363 28 321 b 217 -17 28 111 111 -17 b 294 35 253 -17 279 3 b 553 -22 354 6 444 -22 b 951 329 781 -22 951 126 b 564 676 951 546 761 628 z "},"Ś":{"ha":978,"x_min":0,"x_max":0,"o":"m 401 1047 b 490 1075 433 1047 460 1058 b 658 1179 547 1106 607 1140 b 729 1269 707 1215 729 1238 b 600 1315 729 1301 707 1315 b 463 1265 521 1315 490 1299 b 360 1121 431 1226 390 1174 b 347 1085 350 1104 347 1094 b 401 1047 347 1065 367 1047 z m 564 676 b 397 779 433 708 397 735 b 507 853 397 822 443 853 b 717 750 604 853 669 800 b 822 682 743 722 774 682 b 911 789 868 682 911 722 b 733 1022 911 879 833 1022 b 656 976 697 1022 671 1003 b 450 1024 610 1000 542 1024 b 53 674 224 1024 53 878 b 439 335 53 464 243 383 b 611 228 579 300 611 274 b 496 149 611 181 574 149 b 228 290 393 149 290 217 b 118 363 185 340 161 363 b 28 238 72 363 28 321 b 217 -17 28 111 111 -17 b 294 35 253 -17 279 3 b 553 -22 354 6 444 -22 b 951 329 781 -22 951 126 b 564 676 951 546 761 628 z "},"Š":{"ha":978,"x_min":0,"x_max":0,"o":"m 343 1114 b 478 1064 381 1081 411 1064 b 613 1114 544 1064 575 1081 b 710 1232 644 1143 686 1194 b 729 1283 724 1254 729 1271 b 676 1325 729 1306 714 1325 b 588 1296 649 1325 621 1314 b 478 1219 547 1275 513 1249 b 368 1296 443 1249 408 1275 b 279 1325 335 1314 307 1325 b 226 1283 242 1325 226 1306 b 246 1232 226 1271 232 1254 b 343 1114 269 1194 308 1146 z m 564 676 b 397 779 433 708 397 735 b 507 853 397 822 443 853 b 717 750 604 853 669 800 b 822 682 743 722 774 682 b 911 789 868 682 911 722 b 733 1022 911 879 833 1022 b 656 976 697 1022 671 1003 b 450 1024 610 1000 542 1024 b 53 674 224 1024 53 878 b 439 335 53 464 243 383 b 611 228 579 300 611 274 b 496 149 611 181 574 149 b 228 290 393 149 290 217 b 118 363 185 340 161 363 b 28 238 72 363 28 321 b 217 -17 28 111 111 -17 b 294 35 253 -17 279 3 b 553 -22 354 6 444 -22 b 951 329 781 -22 951 126 b 564 676 951 546 761 628 z "},"Ş":{"ha":978,"x_min":0,"x_max":0,"o":"m 553 -22 b 951 329 781 -22 951 126 b 564 676 951 546 761 628 b 397 779 433 708 397 735 b 507 853 397 822 443 853 b 717 750 604 853 669 800 b 822 682 743 722 774 682 b 911 789 868 682 911 722 b 733 1022 911 879 833 1022 b 656 976 697 1022 671 1003 b 450 1024 610 1000 542 1024 b 53 674 224 1024 53 878 b 439 335 53 464 243 383 b 611 228 579 300 611 274 b 496 149 611 181 574 149 b 228 290 393 149 290 217 b 118 363 185 340 161 363 b 28 238 72 363 28 321 b 217 -17 28 111 111 -17 b 294 35 253 -17 279 3 b 431 -10 331 18 376 1 l 401 -111 b 468 -164 411 -131 446 -158 b 532 -149 489 -156 513 -149 b 581 -169 565 -149 581 -156 b 528 -193 581 -183 561 -193 b 440 -175 494 -193 465 -183 b 401 -165 425 -169 411 -165 b 363 -203 381 -165 363 -182 b 399 -249 363 -221 376 -236 b 544 -281 436 -269 497 -281 b 731 -157 658 -281 731 -232 b 569 -43 731 -90 665 -43 b 522 -47 553 -43 538 -44 l 529 -22 z "},"Ŝ":{"ha":978,"x_min":0,"x_max":0,"o":"m 279 1057 b 368 1086 307 1057 335 1068 b 478 1163 408 1107 443 1133 b 588 1086 513 1133 547 1107 b 676 1057 621 1068 649 1057 b 729 1099 714 1057 729 1076 b 710 1150 729 1111 724 1128 b 613 1268 686 1188 647 1236 b 478 1318 575 1301 544 1318 b 343 1268 411 1318 381 1301 b 246 1150 311 1239 269 1188 b 226 1099 232 1128 226 1111 b 279 1057 226 1076 242 1057 z m 564 676 b 397 779 433 708 397 735 b 507 853 397 822 443 853 b 717 750 604 853 669 800 b 822 682 743 722 774 682 b 911 789 868 682 911 722 b 733 1022 911 879 833 1022 b 656 976 697 1022 671 1003 b 450 1024 610 1000 542 1024 b 53 674 224 1024 53 878 b 439 335 53 464 243 383 b 611 228 579 300 611 274 b 496 149 611 181 574 149 b 228 290 393 149 290 217 b 118 363 185 340 161 363 b 28 238 72 363 28 321 b 217 -17 28 111 111 -17 b 294 35 253 -17 279 3 b 553 -22 354 6 444 -22 b 951 329 781 -22 951 126 b 564 676 951 546 761 628 z "},"Ș":{"ha":978,"x_min":0,"x_max":0,"o":"m 564 676 b 397 779 433 708 397 735 b 507 853 397 822 443 853 b 717 750 604 853 669 800 b 822 682 743 722 774 682 b 911 789 868 682 911 722 b 733 1022 911 879 833 1022 b 656 976 697 1022 671 1003 b 450 1024 610 1000 542 1024 b 53 674 224 1024 53 878 b 439 335 53 464 243 383 b 611 228 579 300 611 274 b 496 149 611 181 574 149 b 228 290 393 149 290 217 b 118 363 185 340 161 363 b 28 238 72 363 28 321 b 217 -17 28 111 111 -17 b 294 35 253 -17 279 3 b 553 -22 354 6 444 -22 b 951 329 781 -22 951 126 b 564 676 951 546 761 628 z m 543 -42 b 428 -126 488 -42 428 -71 b 474 -193 428 -156 444 -176 b 504 -228 490 -203 504 -211 b 468 -287 504 -247 488 -268 b 443 -332 454 -301 443 -315 b 485 -367 443 -353 461 -367 b 663 -161 551 -367 663 -262 b 543 -42 663 -99 621 -42 z "},"ẞ":{"ha":1268,"x_min":0,"x_max":0,"o":"m 915 679 l 989 760 b 1018 821 1008 782 1018 801 b 975 888 1018 843 1001 867 b 511 1028 869 971 725 1028 b 94 717 264 1028 94 915 l 94 222 b 65 156 94 186 94 172 b 15 88 35 139 15 122 b 278 -12 15 8 124 -12 b 524 88 426 -12 524 8 b 478 156 524 122 508 136 b 458 222 456 169 458 186 l 458 771 b 532 861 458 828 492 861 b 665 675 590 861 642 822 l 571 571 b 533 492 546 543 533 517 b 600 428 533 453 556 428 b 936 218 765 428 936 329 b 864 143 936 174 910 143 b 714 283 810 143 768 213 b 617 356 678 331 651 356 b 540 239 575 356 540 315 b 700 -14 540 119 610 -14 b 769 31 731 -14 756 3 b 958 -22 819 -3 886 -22 b 1246 282 1126 -22 1246 104 b 915 679 1246 486 1101 625 z "},"T":{"ha":1076,"x_min":0,"x_max":0,"o":"m 910 1033 b 836 1000 876 1033 853 1021 l 240 1000 b 167 1033 224 1021 200 1033 b 8 753 79 1033 8 897 b 103 604 8 651 50 604 b 201 696 153 604 178 639 b 253 803 217 732 235 778 b 311 836 271 828 289 836 b 356 703 346 836 356 818 l 356 225 b 314 158 356 189 349 175 b 253 86 279 142 253 124 b 539 -12 253 8 374 -12 b 825 86 704 -12 825 8 b 764 158 825 124 799 142 b 722 225 729 175 722 189 l 722 703 b 765 836 722 818 731 836 b 824 803 788 836 806 828 b 875 696 842 778 860 732 b 974 604 899 639 924 604 b 1068 753 1026 604 1068 651 b 910 1033 1068 897 997 1033 z "},"Ŧ":{"ha":1076,"x_min":0,"x_max":0,"o":"m 910 1033 b 836 1000 876 1033 853 1021 l 240 1000 b 167 1033 224 1021 200 1033 b 8 753 79 1033 8 897 b 103 604 8 651 50 604 b 201 696 153 604 178 639 b 253 803 217 732 235 778 b 311 836 271 828 289 836 b 356 703 346 836 356 818 l 356 533 l 251 533 b 189 461 203 533 189 504 b 251 388 189 417 203 388 l 356 388 l 356 225 b 314 158 356 189 349 175 b 253 86 279 142 253 124 b 539 -12 253 8 374 -12 b 825 86 704 -12 825 8 b 764 158 825 124 799 142 b 722 225 729 175 722 189 l 722 388 l 826 388 b 889 461 875 388 889 417 b 826 533 889 504 875 533 l 722 533 l 722 703 b 765 836 722 818 731 836 b 824 803 788 836 806 828 b 875 696 842 778 860 732 b 974 604 899 639 924 604 b 1068 753 1026 604 1068 651 b 910 1033 1068 897 997 1033 z "},"Ť":{"ha":1076,"x_min":0,"x_max":0,"o":"m 421 1114 b 556 1064 458 1081 489 1064 b 690 1114 622 1064 653 1081 b 788 1232 722 1143 764 1194 b 807 1283 801 1254 807 1271 b 754 1325 807 1306 792 1325 b 665 1296 726 1325 699 1314 b 556 1219 625 1275 590 1249 b 446 1296 521 1249 486 1275 b 357 1325 413 1314 385 1325 b 304 1283 319 1325 304 1306 b 324 1232 304 1271 310 1254 b 421 1114 347 1194 386 1146 z m 910 1033 b 836 1000 876 1033 853 1021 l 240 1000 b 167 1033 224 1021 200 1033 b 8 753 79 1033 8 897 b 103 604 8 651 50 604 b 201 696 153 604 178 639 b 253 803 217 732 235 778 b 311 836 271 828 289 836 b 356 703 346 836 356 818 l 356 225 b 314 158 356 189 349 175 b 253 86 279 142 253 124 b 539 -12 253 8 374 -12 b 825 86 704 -12 825 8 b 764 158 825 124 799 142 b 722 225 729 175 722 189 l 722 703 b 765 836 722 818 731 836 b 824 803 788 836 806 828 b 875 696 842 778 860 732 b 974 604 899 639 924 604 b 1068 753 1026 604 1068 651 b 910 1033 1068 897 997 1033 z "},"Ţ":{"ha":1076,"x_min":0,"x_max":0,"o":"m 910 1033 b 836 1000 876 1033 853 1021 l 240 1000 b 167 1033 224 1021 200 1033 b 8 753 79 1033 8 897 b 103 604 8 651 50 604 b 201 696 153 604 178 639 b 253 803 217 732 235 778 b 311 836 271 828 289 836 b 356 703 346 836 356 818 l 356 225 b 314 158 356 189 349 175 b 253 86 279 142 253 124 b 539 -12 253 8 374 -12 b 825 86 704 -12 825 8 b 764 158 825 124 799 142 b 722 225 729 175 722 189 l 722 703 b 765 836 722 818 731 836 b 824 803 788 836 806 828 b 875 696 842 778 860 732 b 974 604 899 639 924 604 b 1068 753 1026 604 1068 651 b 910 1033 1068 897 997 1033 z m 558 -42 b 443 -126 503 -42 443 -71 b 489 -193 443 -156 460 -176 b 519 -228 506 -203 519 -211 b 483 -287 519 -247 503 -268 b 458 -332 469 -301 458 -315 b 500 -367 458 -353 476 -367 b 678 -161 567 -367 678 -262 b 558 -42 678 -99 636 -42 z "},"Ț":{"ha":1076,"x_min":0,"x_max":0,"o":"m 910 1033 b 836 1000 876 1033 853 1021 l 240 1000 b 167 1033 224 1021 200 1033 b 8 753 79 1033 8 897 b 103 604 8 651 50 604 b 201 696 153 604 178 639 b 253 803 217 732 235 778 b 311 836 271 828 289 836 b 356 703 346 836 356 818 l 356 225 b 314 158 356 189 349 175 b 253 86 279 142 253 124 b 539 -12 253 8 374 -12 b 825 86 704 -12 825 8 b 764 158 825 124 799 142 b 722 225 729 175 722 189 l 722 703 b 765 836 722 818 731 836 b 824 803 788 836 806 828 b 875 696 842 778 860 732 b 974 604 899 639 924 604 b 1068 753 1026 604 1068 651 b 910 1033 1068 897 997 1033 z m 558 -42 b 443 -126 503 -42 443 -71 b 489 -193 443 -156 460 -176 b 519 -228 506 -203 519 -211 b 483 -287 519 -247 503 -268 b 458 -332 469 -301 458 -315 b 500 -367 458 -353 476 -367 b 678 -161 567 -367 678 -262 b 558 -42 678 -99 636 -42 z "},"U":{"ha":1175,"x_min":0,"x_max":0,"o":"m 1044 397 l 1044 683 b 1090 843 1044 794 1044 817 b 1153 919 1117 858 1153 876 b 947 1013 1153 992 1067 1013 b 717 914 807 1013 717 992 b 785 842 717 872 754 854 b 849 683 849 815 849 794 l 849 397 b 650 206 849 267 764 206 b 454 397 526 206 454 276 l 454 774 b 488 840 454 797 451 822 b 549 914 521 857 549 872 b 271 1013 549 992 438 1013 b 7 914 111 1013 7 992 b 57 844 7 876 28 861 b 88 778 88 828 88 821 l 88 383 b 569 -18 88 124 289 -18 b 1044 397 874 -18 1044 147 z "},"Ú":{"ha":1175,"x_min":0,"x_max":0,"o":"m 564 1047 b 653 1075 596 1047 622 1058 b 821 1179 710 1106 769 1140 b 892 1269 869 1215 892 1238 b 763 1315 892 1301 869 1315 b 625 1265 683 1315 653 1299 b 522 1121 593 1226 553 1174 b 510 1085 513 1104 510 1094 b 564 1047 510 1065 529 1047 z m 1044 397 l 1044 683 b 1090 843 1044 794 1044 817 b 1153 919 1117 858 1153 876 b 947 1013 1153 992 1067 1013 b 717 914 807 1013 717 992 b 785 842 717 872 754 854 b 849 683 849 815 849 794 l 849 397 b 650 206 849 267 764 206 b 454 397 526 206 454 276 l 454 774 b 488 840 454 797 451 822 b 549 914 521 857 549 872 b 271 1013 549 992 438 1013 b 7 914 111 1013 7 992 b 57 844 7 876 28 861 b 88 778 88 828 88 821 l 88 383 b 569 -18 88 124 289 -18 b 1044 397 874 -18 1044 147 z "},"Ŭ":{"ha":1175,"x_min":0,"x_max":0,"o":"m 632 1060 b 858 1190 742 1060 817 1114 b 878 1274 875 1221 879 1242 b 826 1325 876 1308 853 1325 b 738 1268 792 1325 771 1303 b 632 1217 710 1239 675 1217 b 528 1267 593 1217 556 1238 b 438 1325 494 1301 475 1325 b 386 1271 407 1325 388 1303 b 406 1190 385 1244 394 1211 b 632 1060 442 1125 510 1060 z m 1044 397 l 1044 683 b 1090 843 1044 794 1044 817 b 1153 919 1117 858 1153 876 b 947 1013 1153 992 1067 1013 b 717 914 807 1013 717 992 b 785 842 717 872 754 854 b 849 683 849 815 849 794 l 849 397 b 650 206 849 267 764 206 b 454 397 526 206 454 276 l 454 774 b 488 840 454 797 451 822 b 549 914 521 857 549 872 b 271 1013 549 992 438 1013 b 7 914 111 1013 7 992 b 57 844 7 876 28 861 b 88 778 88 828 88 821 l 88 383 b 569 -18 88 124 289 -18 b 1044 397 874 -18 1044 147 z "},"Û":{"ha":1175,"x_min":0,"x_max":0,"o":"m 442 1057 b 531 1086 469 1057 497 1068 b 640 1163 571 1107 606 1133 b 750 1086 675 1133 710 1107 b 839 1057 783 1068 811 1057 b 892 1099 876 1057 892 1076 b 872 1150 892 1111 886 1128 b 775 1268 849 1188 810 1236 b 640 1318 738 1301 707 1318 b 506 1268 574 1318 543 1301 b 408 1150 474 1239 432 1188 b 389 1099 394 1128 389 1111 b 442 1057 389 1076 404 1057 z m 947 1013 b 717 914 807 1013 717 992 b 785 842 717 872 754 854 b 849 683 849 815 849 794 l 849 397 b 650 206 849 267 764 206 b 454 397 526 206 454 276 l 454 774 b 488 840 454 797 451 822 b 549 914 521 857 549 872 b 271 1013 549 992 438 1013 b 7 914 111 1013 7 992 b 57 844 7 876 28 861 b 88 778 88 828 88 821 l 88 383 b 569 -18 88 124 289 -18 b 1044 397 874 -18 1044 147 l 1044 683 b 1090 843 1044 794 1044 817 b 1153 919 1117 858 1153 876 b 947 1013 1153 992 1067 1013 z "},"Ü":{"ha":1175,"x_min":0,"x_max":0,"o":"m 488 1063 b 596 1174 547 1063 596 1113 b 488 1286 596 1236 547 1286 b 381 1174 428 1286 381 1236 b 488 1063 381 1113 428 1063 z m 775 1063 b 883 1174 835 1063 883 1113 b 775 1286 883 1236 835 1286 b 668 1174 715 1286 668 1236 b 775 1063 668 1113 715 1063 z m 1044 397 l 1044 683 b 1090 843 1044 794 1044 817 b 1153 919 1117 858 1153 876 b 947 1013 1153 992 1067 1013 b 717 914 807 1013 717 992 b 785 842 717 872 754 854 b 849 683 849 815 849 794 l 849 397 b 650 206 849 267 764 206 b 454 397 526 206 454 276 l 454 774 b 488 840 454 797 451 822 b 549 914 521 857 549 872 b 271 1013 549 992 438 1013 b 7 914 111 1013 7 992 b 57 844 7 876 28 861 b 88 778 88 828 88 821 l 88 383 b 569 -18 88 124 289 -18 b 1044 397 874 -18 1044 147 z "},"Ù":{"ha":1175,"x_min":0,"x_max":0,"o":"m 693 1047 b 747 1085 728 1047 747 1065 b 735 1121 747 1094 744 1104 b 632 1265 704 1174 664 1226 b 494 1315 604 1299 574 1315 b 365 1269 388 1315 365 1301 b 436 1179 365 1238 388 1215 b 604 1075 488 1140 547 1106 b 693 1047 635 1058 661 1047 z m 1044 397 l 1044 683 b 1090 843 1044 794 1044 817 b 1153 919 1117 858 1153 876 b 947 1013 1153 992 1067 1013 b 717 914 807 1013 717 992 b 785 842 717 872 754 854 b 849 683 849 815 849 794 l 849 397 b 650 206 849 267 764 206 b 454 397 526 206 454 276 l 454 774 b 488 840 454 797 451 822 b 549 914 521 857 549 872 b 271 1013 549 992 438 1013 b 7 914 111 1013 7 992 b 57 844 7 876 28 861 b 88 778 88 828 88 821 l 88 383 b 569 -18 88 124 289 -18 b 1044 397 874 -18 1044 147 z "},"Ű":{"ha":1175,"x_min":0,"x_max":0,"o":"m 475 1047 b 554 1082 501 1047 526 1063 b 671 1179 597 1113 632 1140 b 722 1264 704 1213 722 1233 b 633 1315 722 1294 707 1315 b 514 1265 557 1315 535 1297 b 439 1125 488 1225 463 1183 b 431 1088 433 1111 431 1099 b 475 1047 431 1065 449 1047 z m 733 1047 b 813 1082 760 1047 785 1063 b 929 1179 856 1113 890 1140 b 981 1264 963 1213 981 1233 b 892 1315 981 1294 965 1315 b 772 1265 815 1315 793 1297 b 697 1125 746 1225 721 1183 b 689 1088 692 1111 689 1099 b 733 1047 689 1065 707 1047 z m 1044 397 l 1044 683 b 1090 843 1044 794 1044 817 b 1153 919 1117 858 1153 876 b 947 1013 1153 992 1067 1013 b 717 914 807 1013 717 992 b 785 842 717 872 754 854 b 849 683 849 815 849 794 l 849 397 b 650 206 849 267 764 206 b 454 397 526 206 454 276 l 454 774 b 488 840 454 797 451 822 b 549 914 521 857 549 872 b 271 1013 549 992 438 1013 b 7 914 111 1013 7 992 b 57 844 7 876 28 861 b 88 778 88 828 88 821 l 88 383 b 569 -18 88 124 289 -18 b 1044 397 874 -18 1044 147 z "},"Ū":{"ha":1175,"x_min":0,"x_max":0,"o":"m 435 1094 b 629 1101 497 1094 569 1101 b 808 1097 686 1101 764 1097 b 882 1199 863 1097 882 1151 b 831 1257 882 1231 871 1257 b 636 1249 769 1257 697 1249 b 456 1253 574 1249 503 1253 b 382 1153 401 1253 382 1197 b 435 1094 382 1119 393 1094 z m 1044 397 l 1044 683 b 1090 843 1044 794 1044 817 b 1153 919 1117 858 1153 876 b 947 1013 1153 992 1067 1013 b 717 914 807 1013 717 992 b 785 842 717 872 754 854 b 849 683 849 815 849 794 l 849 397 b 650 206 849 267 764 206 b 454 397 526 206 454 276 l 454 774 b 488 840 454 797 451 822 b 549 914 521 857 549 872 b 271 1013 549 992 438 1013 b 7 914 111 1013 7 992 b 57 844 7 876 28 861 b 88 778 88 828 88 821 l 88 383 b 569 -18 88 124 289 -18 b 1044 397 874 -18 1044 147 z "},"Ų":{"ha":1175,"x_min":0,"x_max":0,"o":"m 947 1013 b 717 914 807 1013 717 992 b 785 842 717 872 754 854 b 849 683 849 815 849 794 l 849 397 b 650 206 849 267 764 206 b 454 397 526 206 454 276 l 454 774 b 488 840 454 797 451 822 b 549 914 521 857 549 872 b 271 1013 549 992 438 1013 b 7 914 111 1013 7 992 b 57 844 7 876 28 861 b 88 778 88 828 88 821 l 88 383 b 569 -18 88 124 289 -18 l 579 -18 b 496 -168 526 -65 496 -119 b 629 -281 496 -236 551 -281 b 756 -233 685 -281 731 -258 b 776 -187 769 -219 776 -203 b 744 -149 776 -162 763 -149 b 721 -156 736 -149 728 -153 b 692 -164 713 -158 703 -164 b 669 -128 679 -164 669 -156 b 726 -1 669 -96 689 -44 b 1044 397 932 47 1044 194 l 1044 683 b 1090 843 1044 794 1044 817 b 1153 919 1117 858 1153 876 b 947 1013 1153 992 1067 1013 z "},"Ů":{"ha":1175,"x_min":0,"x_max":0,"o":"m 632 1033 b 833 1186 758 1033 832 1089 b 632 1339 835 1285 758 1339 b 431 1186 506 1339 429 1285 b 632 1033 432 1089 506 1033 z m 632 1119 b 581 1196 599 1119 581 1147 b 632 1254 581 1232 597 1254 b 683 1181 665 1254 683 1228 b 632 1119 683 1142 668 1119 z m 1044 397 l 1044 683 b 1090 843 1044 794 1044 817 b 1153 919 1117 858 1153 876 b 947 1013 1153 992 1067 1013 b 717 914 807 1013 717 992 b 785 842 717 872 754 854 b 849 683 849 815 849 794 l 849 397 b 650 206 849 267 764 206 b 454 397 526 206 454 276 l 454 774 b 488 840 454 797 451 822 b 549 914 521 857 549 872 b 271 1013 549 992 438 1013 b 7 914 111 1013 7 992 b 57 844 7 876 28 861 b 88 778 88 828 88 821 l 88 383 b 569 -18 88 124 289 -18 b 1044 397 874 -18 1044 147 z "},"Ũ":{"ha":1175,"x_min":0,"x_max":0,"o":"m 714 1060 b 865 1167 793 1060 840 1111 b 879 1236 876 1192 879 1218 b 833 1294 879 1269 858 1294 b 760 1244 804 1294 785 1276 b 726 1217 746 1226 739 1217 b 551 1308 697 1217 665 1308 b 400 1201 472 1308 425 1257 b 386 1132 389 1176 386 1150 b 432 1074 386 1099 407 1074 b 506 1124 461 1074 481 1092 b 539 1151 519 1142 526 1151 b 714 1060 568 1151 600 1060 z m 1044 397 l 1044 683 b 1090 843 1044 794 1044 817 b 1153 919 1117 858 1153 876 b 947 1013 1153 992 1067 1013 b 717 914 807 1013 717 992 b 785 842 717 872 754 854 b 849 683 849 815 849 794 l 849 397 b 650 206 849 267 764 206 b 454 397 526 206 454 276 l 454 774 b 488 840 454 797 451 822 b 549 914 521 857 549 872 b 271 1013 549 992 438 1013 b 7 914 111 1013 7 992 b 57 844 7 876 28 861 b 88 778 88 828 88 821 l 88 383 b 569 -18 88 124 289 -18 b 1044 397 874 -18 1044 147 z "},"V":{"ha":1150,"x_min":0,"x_max":0,"o":"m 953 1013 b 746 914 826 1013 746 989 b 811 838 746 876 771 858 b 828 792 831 828 832 814 b 671 392 817 728 742 542 b 507 789 597 538 507 736 b 540 839 507 817 521 831 b 594 911 581 856 594 879 b 293 1013 594 992 478 1013 b -11 908 110 1013 -11 988 b 39 832 -11 864 10 846 b 131 701 65 819 82 797 b 419 110 171 621 363 215 b 569 -12 461 32 496 -12 b 714 114 639 -12 669 35 b 982 657 765 207 933 551 b 1106 836 1054 813 1069 821 b 1168 918 1146 853 1168 876 b 953 1013 1168 988 1088 1013 z "},"W":{"ha":1635,"x_min":0,"x_max":0,"o":"m 1443 1013 b 1253 914 1319 1013 1253 988 b 1307 840 1253 876 1276 860 b 1324 792 1326 828 1328 814 b 1217 415 1311 729 1265 563 b 1106 789 1163 560 1106 738 b 1136 839 1106 817 1119 829 b 1182 911 1167 857 1182 879 b 897 1013 1182 990 1079 1013 b 626 904 733 1013 626 982 b 661 835 626 868 643 850 b 717 724 674 825 688 797 b 614 406 693 642 654 517 b 499 789 560 553 499 738 b 528 839 499 817 513 826 b 561 911 549 857 561 879 b 290 1013 561 990 468 1013 b -10 904 107 1013 -12 982 b 42 832 -8 864 15 847 b 117 701 64 819 82 797 b 363 110 149 614 310 217 b 511 -12 403 29 436 -12 b 654 114 582 -12 615 31 b 810 485 685 175 753 346 b 967 110 867 342 935 174 b 1115 -12 1007 29 1040 -12 b 1258 114 1186 -12 1219 31 b 1472 657 1301 207 1426 551 b 1593 836 1540 813 1557 819 b 1651 918 1629 853 1651 876 b 1443 1013 1651 986 1575 1013 z "},"Ẃ":{"ha":1635,"x_min":0,"x_max":0,"o":"m 800 1047 b 889 1075 832 1047 858 1058 b 1057 1179 946 1106 1006 1140 b 1128 1269 1106 1215 1128 1238 b 999 1315 1128 1301 1106 1315 b 861 1265 919 1315 889 1299 b 758 1121 829 1226 789 1174 b 746 1085 749 1104 746 1094 b 800 1047 746 1065 765 1047 z m 1443 1013 b 1253 914 1319 1013 1253 988 b 1307 840 1253 876 1276 860 b 1324 792 1326 828 1328 814 b 1217 415 1311 729 1265 563 b 1106 789 1163 560 1106 738 b 1136 839 1106 817 1119 829 b 1182 911 1167 857 1182 879 b 897 1013 1182 990 1079 1013 b 626 904 733 1013 626 982 b 661 835 626 868 643 850 b 717 724 674 825 688 797 b 614 406 693 642 654 517 b 499 789 560 553 499 738 b 528 839 499 817 513 826 b 561 911 549 857 561 879 b 290 1013 561 990 468 1013 b -10 904 107 1013 -12 982 b 42 832 -8 864 15 847 b 117 701 64 819 82 797 b 363 110 149 614 310 217 b 511 -12 403 29 436 -12 b 654 114 582 -12 615 31 b 810 485 685 175 753 346 b 967 110 867 342 935 174 b 1115 -12 1007 29 1040 -12 b 1258 114 1186 -12 1219 31 b 1472 657 1301 207 1426 551 b 1593 836 1540 813 1557 819 b 1651 918 1629 853 1651 876 b 1443 1013 1651 986 1575 1013 z "},"Ŵ":{"ha":1635,"x_min":0,"x_max":0,"o":"m 678 1057 b 767 1086 706 1057 733 1068 b 876 1163 807 1107 842 1133 b 986 1086 911 1133 946 1107 b 1075 1057 1019 1068 1047 1057 b 1128 1099 1113 1057 1128 1076 b 1108 1150 1128 1111 1122 1128 b 1011 1268 1085 1188 1046 1236 b 876 1318 974 1301 943 1318 b 742 1268 810 1318 779 1301 b 644 1150 710 1239 668 1188 b 625 1099 631 1128 625 1111 b 678 1057 625 1076 640 1057 z m 1443 1013 b 1253 914 1319 1013 1253 988 b 1307 840 1253 876 1276 860 b 1324 792 1326 828 1328 814 b 1217 415 1311 729 1265 563 b 1106 789 1163 560 1106 738 b 1136 839 1106 817 1119 829 b 1182 911 1167 857 1182 879 b 897 1013 1182 990 1079 1013 b 626 904 733 1013 626 982 b 661 835 626 868 643 850 b 717 724 674 825 688 797 b 614 406 693 642 654 517 b 499 789 560 553 499 738 b 528 839 499 817 513 826 b 561 911 549 857 561 879 b 290 1013 561 990 468 1013 b -10 904 107 1013 -12 982 b 42 832 -8 864 15 847 b 117 701 64 819 82 797 b 363 110 149 614 310 217 b 511 -12 403 29 436 -12 b 654 114 582 -12 615 31 b 810 485 685 175 753 346 b 967 110 867 342 935 174 b 1115 -12 1007 29 1040 -12 b 1258 114 1186 -12 1219 31 b 1472 657 1301 207 1426 551 b 1593 836 1540 813 1557 819 b 1651 918 1629 853 1651 876 b 1443 1013 1651 986 1575 1013 z "},"Ẅ":{"ha":1635,"x_min":0,"x_max":0,"o":"m 724 1063 b 832 1174 783 1063 832 1113 b 724 1286 832 1236 783 1286 b 617 1174 664 1286 617 1236 b 724 1063 617 1113 664 1063 z m 1011 1063 b 1119 1174 1071 1063 1119 1113 b 1011 1286 1119 1236 1071 1286 b 904 1174 951 1286 904 1236 b 1011 1063 904 1113 951 1063 z m 1443 1013 b 1253 914 1319 1013 1253 988 b 1307 840 1253 876 1276 860 b 1324 792 1326 828 1328 814 b 1217 415 1311 729 1265 563 b 1106 789 1163 560 1106 738 b 1136 839 1106 817 1119 829 b 1182 911 1167 857 1182 879 b 897 1013 1182 990 1079 1013 b 626 904 733 1013 626 982 b 661 835 626 868 643 850 b 717 724 674 825 688 797 b 614 406 693 642 654 517 b 499 789 560 553 499 738 b 528 839 499 817 513 826 b 561 911 549 857 561 879 b 290 1013 561 990 468 1013 b -10 904 107 1013 -12 982 b 42 832 -8 864 15 847 b 117 701 64 819 82 797 b 363 110 149 614 310 217 b 511 -12 403 29 436 -12 b 654 114 582 -12 615 31 b 810 485 685 175 753 346 b 967 110 867 342 935 174 b 1115 -12 1007 29 1040 -12 b 1258 114 1186 -12 1219 31 b 1472 657 1301 207 1426 551 b 1593 836 1540 813 1557 819 b 1651 918 1629 853 1651 876 b 1443 1013 1651 986 1575 1013 z "},"Ẁ":{"ha":1635,"x_min":0,"x_max":0,"o":"m 672 1179 b 840 1075 724 1140 783 1106 b 929 1047 871 1058 897 1047 b 983 1085 964 1047 983 1065 b 971 1121 983 1094 981 1104 b 868 1265 940 1174 900 1226 b 731 1315 840 1299 810 1315 b 601 1269 624 1315 601 1301 b 672 1179 601 1238 624 1215 z m 1443 1013 b 1253 914 1319 1013 1253 988 b 1307 840 1253 876 1276 860 b 1324 792 1326 828 1328 814 b 1217 415 1311 729 1265 563 b 1106 789 1163 560 1106 738 b 1136 839 1106 817 1119 829 b 1182 911 1167 857 1182 879 b 897 1013 1182 990 1079 1013 b 626 904 733 1013 626 982 b 661 835 626 868 643 850 b 717 724 674 825 688 797 b 614 406 693 642 654 517 b 499 789 560 553 499 738 b 528 839 499 817 513 826 b 561 911 549 857 561 879 b 290 1013 561 990 468 1013 b -10 904 107 1013 -12 982 b 42 832 -8 864 15 847 b 117 701 64 819 82 797 b 363 110 149 614 310 217 b 511 -12 403 29 436 -12 b 654 114 582 -12 615 31 b 810 485 685 175 753 346 b 967 110 867 342 935 174 b 1115 -12 1007 29 1040 -12 b 1258 114 1186 -12 1219 31 b 1472 657 1301 207 1426 551 b 1593 836 1540 813 1557 819 b 1651 918 1629 853 1651 876 b 1443 1013 1651 986 1575 1013 z "},"X":{"ha":1108,"x_min":0,"x_max":0,"o":"m 1043 174 b 879 369 1017 189 963 265 b 736 551 843 414 789 482 b 835 663 775 596 807 632 b 1022 835 950 790 982 817 b 1093 918 1075 857 1093 878 b 881 1013 1093 988 1013 1013 b 676 917 757 1013 676 989 b 739 825 676 865 739 851 b 690 738 739 813 732 793 b 643 675 678 721 663 700 b 603 732 628 696 614 715 b 556 822 574 774 556 806 b 604 913 556 854 604 858 b 300 1013 604 992 488 1013 b 15 908 124 1013 15 988 b 89 825 15 869 36 847 b 257 636 111 815 172 742 b 379 481 296 589 338 533 l 276 363 b 67 165 146 215 110 183 b -4 82 17 144 -4 125 b 208 -12 -4 13 76 -12 b 413 83 332 -12 413 11 b 375 146 413 111 399 131 b 422 286 333 171 360 207 l 475 353 b 511 303 488 335 500 318 b 565 153 579 208 615 181 b 524 89 536 136 524 115 b 824 -12 524 8 640 -12 b 1113 92 997 -12 1113 13 b 1043 174 1113 136 1088 149 z "},"Y":{"ha":1096,"x_min":0,"x_max":0,"o":"m 897 1013 b 681 914 763 1013 681 989 b 742 842 681 879 700 863 b 760 813 760 832 761 824 b 626 617 756 772 685 672 b 503 796 569 669 506 763 b 526 842 501 818 504 828 b 578 911 563 863 578 882 b 278 1013 578 992 461 1013 b -17 908 96 1013 -17 988 b 51 832 -17 863 10 849 b 300 571 121 804 185 724 b 360 464 331 531 347 499 l 360 222 b 321 157 360 193 360 176 b 256 86 281 136 256 122 b 543 -12 256 8 375 -12 b 832 86 713 -12 832 8 b 767 157 832 119 808 136 b 726 222 728 176 726 190 l 726 458 b 789 574 740 496 758 529 b 1040 840 897 726 974 817 b 1117 918 1094 858 1117 876 b 897 1013 1117 988 1038 1013 z "},"Ý":{"ha":1096,"x_min":0,"x_max":0,"o":"m 538 1047 b 626 1075 569 1047 596 1058 b 794 1179 683 1106 743 1140 b 865 1269 843 1215 865 1238 b 736 1315 865 1301 843 1315 b 599 1265 657 1315 626 1299 b 496 1121 567 1226 526 1174 b 483 1085 486 1104 483 1094 b 538 1047 483 1065 503 1047 z m 897 1013 b 681 914 763 1013 681 989 b 742 842 681 879 700 863 b 760 813 760 832 761 824 b 626 617 756 772 685 672 b 503 796 569 669 506 763 b 526 842 501 818 504 828 b 578 911 563 863 578 882 b 278 1013 578 992 461 1013 b -17 908 96 1013 -17 988 b 51 832 -17 863 10 849 b 300 571 121 804 185 724 b 360 464 331 531 347 499 l 360 222 b 321 157 360 193 360 176 b 256 86 281 136 256 122 b 543 -12 256 8 375 -12 b 832 86 713 -12 832 8 b 767 157 832 119 808 136 b 726 222 728 176 726 190 l 726 458 b 789 574 740 496 758 529 b 1040 840 897 726 974 817 b 1117 918 1094 858 1117 876 b 897 1013 1117 988 1038 1013 z "},"Ŷ":{"ha":1096,"x_min":0,"x_max":0,"o":"m 415 1057 b 504 1086 443 1057 471 1068 b 614 1163 544 1107 579 1133 b 724 1086 649 1133 683 1107 b 813 1057 757 1068 785 1057 b 865 1099 850 1057 865 1076 b 846 1150 865 1111 860 1128 b 749 1268 822 1188 783 1236 b 614 1318 711 1301 681 1318 b 479 1268 547 1318 517 1301 b 382 1150 447 1239 406 1188 b 363 1099 368 1128 363 1111 b 415 1057 363 1076 378 1057 z m 897 1013 b 681 914 763 1013 681 989 b 742 842 681 879 700 863 b 760 813 760 832 761 824 b 626 617 756 772 685 672 b 503 796 569 669 506 763 b 526 842 501 818 504 828 b 578 911 563 863 578 882 b 278 1013 578 992 461 1013 b -17 908 96 1013 -17 988 b 51 832 -17 863 10 849 b 300 571 121 804 185 724 b 360 464 331 531 347 499 l 360 222 b 321 157 360 193 360 176 b 256 86 281 136 256 122 b 543 -12 256 8 375 -12 b 832 86 713 -12 832 8 b 767 157 832 119 808 136 b 726 222 728 176 726 190 l 726 458 b 789 574 740 496 758 529 b 1040 840 897 726 974 817 b 1117 918 1094 858 1117 876 b 897 1013 1117 988 1038 1013 z "},"Ÿ":{"ha":1096,"x_min":0,"x_max":0,"o":"m 461 1063 b 569 1174 521 1063 569 1113 b 461 1286 569 1236 521 1286 b 354 1174 401 1286 354 1236 b 461 1063 354 1113 401 1063 z m 749 1063 b 857 1174 808 1063 857 1113 b 749 1286 857 1236 808 1286 b 642 1174 689 1286 642 1236 b 749 1063 642 1113 689 1063 z m 897 1013 b 681 914 763 1013 681 989 b 742 842 681 879 700 863 b 760 813 760 832 761 824 b 626 617 756 772 685 672 b 503 796 569 669 506 763 b 526 842 501 818 504 828 b 578 911 563 863 578 882 b 278 1013 578 992 461 1013 b -17 908 96 1013 -17 988 b 51 832 -17 863 10 849 b 300 571 121 804 185 724 b 360 464 331 531 347 499 l 360 222 b 321 157 360 193 360 176 b 256 86 281 136 256 122 b 543 -12 256 8 375 -12 b 832 86 713 -12 832 8 b 767 157 832 119 808 136 b 726 222 728 176 726 190 l 726 458 b 789 574 740 496 758 529 b 1040 840 897 726 974 817 b 1117 918 1094 858 1117 876 b 897 1013 1117 988 1038 1013 z "},"Ỳ":{"ha":1096,"x_min":0,"x_max":0,"o":"m 410 1179 b 578 1075 461 1140 521 1106 b 667 1047 608 1058 635 1047 b 721 1085 701 1047 721 1065 b 708 1121 721 1094 718 1104 b 606 1265 678 1174 638 1226 b 468 1315 578 1299 547 1315 b 339 1269 361 1315 339 1301 b 410 1179 339 1238 361 1215 z m 897 1013 b 681 914 763 1013 681 989 b 742 842 681 879 700 863 b 760 813 760 832 761 824 b 626 617 756 772 685 672 b 503 796 569 669 506 763 b 526 842 501 818 504 828 b 578 911 563 863 578 882 b 278 1013 578 992 461 1013 b -17 908 96 1013 -17 988 b 51 832 -17 863 10 849 b 300 571 121 804 185 724 b 360 464 331 531 347 499 l 360 222 b 321 157 360 193 360 176 b 256 86 281 136 256 122 b 543 -12 256 8 375 -12 b 832 86 713 -12 832 8 b 767 157 832 119 808 136 b 726 222 728 176 726 190 l 726 458 b 789 574 740 496 758 529 b 1040 840 897 726 974 817 b 1117 918 1094 858 1117 876 b 897 1013 1117 988 1038 1013 z "},"Z":{"ha":1031,"x_min":0,"x_max":0,"o":"m 903 425 b 806 331 853 425 826 388 b 746 207 793 296 772 236 b 600 165 713 169 653 167 l 479 163 b 946 847 638 410 776 606 b 978 926 972 886 978 907 b 875 1004 978 969 943 1004 b 679 1000 808 1004 760 1000 l 282 1000 b 217 1035 267 1021 246 1035 b 49 750 128 1035 49 904 b 143 603 49 651 88 603 b 243 693 190 603 219 639 b 296 800 256 722 276 775 b 435 836 319 829 360 833 l 507 839 b 53 158 346 614 210 414 b 21 75 26 115 21 94 b 132 -3 21 32 47 -3 b 285 0 185 -3 235 0 l 764 0 b 831 -35 779 -22 801 -35 b 1006 265 926 -35 1006 113 b 903 425 1006 376 958 425 z "},"Ź":{"ha":1031,"x_min":0,"x_max":0,"o":"m 488 1047 b 576 1075 519 1047 546 1058 b 744 1179 633 1106 693 1140 b 815 1269 793 1215 815 1238 b 686 1315 815 1301 793 1315 b 549 1265 607 1315 576 1299 b 446 1121 517 1226 476 1174 b 433 1085 436 1104 433 1094 b 488 1047 433 1065 453 1047 z m 903 425 b 806 331 853 425 826 388 b 746 207 793 296 772 236 b 600 165 713 169 653 167 l 479 163 b 946 847 638 410 776 606 b 978 926 972 886 978 907 b 875 1004 978 969 943 1004 b 679 1000 808 1004 760 1000 l 282 1000 b 217 1035 267 1021 246 1035 b 49 750 128 1035 49 904 b 143 603 49 651 88 603 b 243 693 190 603 219 639 b 296 800 256 722 276 775 b 435 836 319 829 360 833 l 507 839 b 53 158 346 614 210 414 b 21 75 26 115 21 94 b 132 -3 21 32 47 -3 b 285 0 185 -3 235 0 l 764 0 b 831 -35 779 -22 801 -35 b 1006 265 926 -35 1006 113 b 903 425 1006 376 958 425 z "},"Ž":{"ha":1031,"x_min":0,"x_max":0,"o":"m 429 1114 b 564 1064 467 1081 497 1064 b 699 1114 631 1064 661 1081 b 796 1232 731 1143 772 1194 b 815 1283 810 1254 815 1271 b 763 1325 815 1306 800 1325 b 674 1296 735 1325 707 1314 b 564 1219 633 1275 599 1249 b 454 1296 529 1249 494 1275 b 365 1325 421 1314 393 1325 b 313 1283 328 1325 313 1306 b 332 1232 313 1271 318 1254 b 429 1114 356 1194 394 1146 z m 903 425 b 806 331 853 425 826 388 b 746 207 793 296 772 236 b 600 165 713 169 653 167 l 479 163 b 946 847 638 410 776 606 b 978 926 972 886 978 907 b 875 1004 978 969 943 1004 b 679 1000 808 1004 760 1000 l 282 1000 b 217 1035 267 1021 246 1035 b 49 750 128 1035 49 904 b 143 603 49 651 88 603 b 243 693 190 603 219 639 b 296 800 256 722 276 775 b 435 836 319 829 360 833 l 507 839 b 53 158 346 614 210 414 b 21 75 26 115 21 94 b 132 -3 21 32 47 -3 b 285 0 185 -3 235 0 l 764 0 b 831 -35 779 -22 801 -35 b 1006 265 926 -35 1006 113 b 903 425 1006 376 958 425 z "},"Ż":{"ha":1031,"x_min":0,"x_max":0,"o":"m 558 1057 b 672 1174 621 1057 672 1110 b 558 1292 672 1239 621 1292 b 446 1174 496 1292 446 1239 b 558 1057 446 1110 496 1057 z m 903 425 b 806 331 853 425 826 388 b 746 207 793 296 772 236 b 600 165 713 169 653 167 l 479 163 b 946 847 638 410 776 606 b 978 926 972 886 978 907 b 875 1004 978 969 943 1004 b 679 1000 808 1004 760 1000 l 282 1000 b 217 1035 267 1021 246 1035 b 49 750 128 1035 49 904 b 143 603 49 651 88 603 b 243 693 190 603 219 639 b 296 800 256 722 276 775 b 435 836 319 829 360 833 l 507 839 b 53 158 346 614 210 414 b 21 75 26 115 21 94 b 132 -3 21 32 47 -3 b 285 0 185 -3 235 0 l 764 0 b 831 -35 779 -22 801 -35 b 1006 265 926 -35 1006 113 b 903 425 1006 376 958 425 z "},"a":{"ha":875,"x_min":0,"x_max":0,"o":"m 849 169 b 793 256 806 183 793 207 l 793 475 b 506 733 793 642 694 733 b 69 524 299 733 69 628 b 178 443 69 483 107 443 b 343 536 268 443 314 492 b 408 600 363 565 381 600 b 446 488 442 600 446 561 l 446 393 b 317 407 411 401 364 407 b 21 185 151 407 21 338 b 242 -18 21 47 125 -18 b 465 93 338 -18 417 25 b 654 -10 503 28 567 -10 b 861 150 788 -10 861 76 b 849 169 861 161 860 165 z m 406 144 b 354 228 381 144 354 168 b 410 315 354 283 376 315 b 457 294 432 315 447 306 l 457 244 b 406 144 457 164 438 144 z "},"á":{"ha":875,"x_min":0,"x_max":0,"o":"m 363 769 b 451 797 394 769 421 781 b 619 901 508 828 568 863 b 690 992 668 938 690 960 b 561 1038 690 1024 668 1038 b 424 988 482 1038 451 1021 b 321 843 392 949 351 896 b 308 807 311 826 308 817 b 363 769 308 788 328 769 z m 849 169 b 793 256 806 183 793 207 l 793 475 b 506 733 793 642 694 733 b 69 524 299 733 69 628 b 178 443 69 483 107 443 b 343 536 268 443 314 492 b 408 600 363 565 381 600 b 446 488 442 600 446 561 l 446 393 b 317 407 411 401 364 407 b 21 185 151 407 21 338 b 242 -18 21 47 125 -18 b 465 93 338 -18 417 25 b 654 -10 503 28 567 -10 b 861 150 788 -10 861 76 b 849 169 861 161 860 165 z m 406 144 b 354 228 381 144 354 168 b 410 315 354 283 376 315 b 457 294 432 315 447 306 l 457 244 b 406 144 457 164 438 144 z "},"ă":{"ha":875,"x_min":0,"x_max":0,"o":"m 431 782 b 657 913 540 782 615 836 b 676 996 674 943 678 964 b 625 1047 675 1031 651 1047 b 536 990 590 1047 569 1025 b 431 939 508 961 474 939 b 326 989 392 939 354 960 b 236 1047 293 1024 274 1047 b 185 993 206 1047 186 1025 b 204 913 183 967 193 933 b 431 782 240 847 308 782 z m 849 169 b 793 256 806 183 793 207 l 793 475 b 506 733 793 642 694 733 b 69 524 299 733 69 628 b 178 443 69 483 107 443 b 343 536 268 443 314 492 b 408 600 363 565 381 600 b 446 488 442 600 446 561 l 446 393 b 317 407 411 401 364 407 b 21 185 151 407 21 338 b 242 -18 21 47 125 -18 b 465 93 338 -18 417 25 b 654 -10 503 28 567 -10 b 861 150 788 -10 861 76 b 849 169 861 161 860 165 z m 406 144 b 354 228 381 144 354 168 b 410 315 354 283 376 315 b 457 294 432 315 447 306 l 457 244 b 406 144 457 164 438 144 z "},"â":{"ha":875,"x_min":0,"x_max":0,"o":"m 240 779 b 329 808 268 779 296 790 b 439 885 369 829 404 856 b 549 808 474 856 508 829 b 638 779 582 790 610 779 b 690 821 675 779 690 799 b 671 872 690 833 685 850 b 574 990 647 910 608 958 b 439 1040 536 1024 506 1040 b 304 990 372 1040 342 1024 b 207 872 272 961 231 910 b 188 821 193 850 188 833 b 240 779 188 799 203 779 z m 849 169 b 793 256 806 183 793 207 l 793 475 b 506 733 793 642 694 733 b 69 524 299 733 69 628 b 178 443 69 483 107 443 b 343 536 268 443 314 492 b 408 600 363 565 381 600 b 446 488 442 600 446 561 l 446 393 b 317 407 411 401 364 407 b 21 185 151 407 21 338 b 242 -18 21 47 125 -18 b 465 93 338 -18 417 25 b 654 -10 503 28 567 -10 b 861 150 788 -10 861 76 b 849 169 861 161 860 165 z m 406 144 b 354 228 381 144 354 168 b 410 315 354 283 376 315 b 457 294 432 315 447 306 l 457 244 b 406 144 457 164 438 144 z "},"ä":{"ha":875,"x_min":0,"x_max":0,"o":"m 286 785 b 394 896 346 785 394 835 b 286 1008 394 958 346 1008 b 179 896 226 1008 179 958 b 286 785 179 835 226 785 z m 574 785 b 682 896 633 785 682 835 b 574 1008 682 958 633 1008 b 467 896 514 1008 467 958 b 574 785 467 835 514 785 z m 849 169 b 793 256 806 183 793 207 l 793 475 b 506 733 793 642 694 733 b 69 524 299 733 69 628 b 178 443 69 483 107 443 b 343 536 268 443 314 492 b 408 600 363 565 381 600 b 446 488 442 600 446 561 l 446 393 b 317 407 411 401 364 407 b 21 185 151 407 21 338 b 242 -18 21 47 125 -18 b 465 93 338 -18 417 25 b 654 -10 503 28 567 -10 b 861 150 788 -10 861 76 b 849 169 861 161 860 165 z m 406 144 b 354 228 381 144 354 168 b 410 315 354 283 376 315 b 457 294 432 315 447 306 l 457 244 b 406 144 457 164 438 144 z "},"à":{"ha":875,"x_min":0,"x_max":0,"o":"m 235 901 b 403 797 286 863 346 828 b 492 769 433 781 460 769 b 546 807 526 769 546 788 b 533 843 546 817 543 826 b 431 988 503 896 463 949 b 293 1038 403 1021 372 1038 b 164 992 186 1038 164 1024 b 235 901 164 960 186 938 z m 849 169 b 793 256 806 183 793 207 l 793 475 b 506 733 793 642 694 733 b 69 524 299 733 69 628 b 178 443 69 483 107 443 b 343 536 268 443 314 492 b 408 600 363 565 381 600 b 446 488 442 600 446 561 l 446 393 b 317 407 411 401 364 407 b 21 185 151 407 21 338 b 242 -18 21 47 125 -18 b 465 93 338 -18 417 25 b 654 -10 503 28 567 -10 b 861 150 788 -10 861 76 b 849 169 861 161 860 165 z m 406 144 b 354 228 381 144 354 168 b 410 315 354 283 376 315 b 457 294 432 315 447 306 l 457 244 b 406 144 457 164 438 144 z "},"ā":{"ha":875,"x_min":0,"x_max":0,"o":"m 247 817 b 442 824 310 817 382 824 b 621 819 499 824 576 819 b 694 921 675 819 694 874 b 643 979 694 953 683 979 b 449 971 582 979 510 971 b 268 975 386 971 315 975 b 194 875 214 975 194 919 b 247 817 194 842 206 817 z m 849 169 b 793 256 806 183 793 207 l 793 475 b 506 733 793 642 694 733 b 69 524 299 733 69 628 b 178 443 69 483 107 443 b 343 536 268 443 314 492 b 408 600 363 565 381 600 b 446 488 442 600 446 561 l 446 393 b 317 407 411 401 364 407 b 21 185 151 407 21 338 b 242 -18 21 47 125 -18 b 465 93 338 -18 417 25 b 654 -10 503 28 567 -10 b 861 150 788 -10 861 76 b 849 169 861 161 860 165 z m 406 144 b 354 228 381 144 354 168 b 410 315 354 283 376 315 b 457 294 432 315 447 306 l 457 244 b 406 144 457 164 438 144 z "},"ą":{"ha":875,"x_min":0,"x_max":0,"o":"m 861 150 b 849 169 861 161 860 165 b 793 256 806 183 793 207 l 793 475 b 506 733 793 642 694 733 b 69 524 299 733 69 628 b 178 443 69 483 107 443 b 343 536 268 443 314 492 b 408 600 363 565 381 600 b 446 488 442 600 446 561 l 446 393 b 317 407 411 401 364 407 b 21 185 151 407 21 338 b 242 -18 21 47 125 -18 b 465 93 338 -18 417 25 b 611 -7 496 39 546 4 b 515 -168 550 -57 515 -115 b 649 -281 515 -236 571 -281 b 775 -233 704 -281 750 -258 b 796 -187 789 -219 796 -203 b 764 -149 796 -162 782 -149 b 740 -156 756 -149 747 -153 b 711 -164 732 -158 722 -164 b 689 -128 699 -164 689 -156 b 756 10 689 -92 711 -35 b 861 150 825 40 861 99 z m 406 144 b 354 228 381 144 354 168 b 410 315 354 283 376 315 b 457 294 432 315 447 306 l 457 244 b 406 144 457 164 438 144 z "},"å":{"ha":875,"x_min":0,"x_max":0,"o":"m 431 756 b 632 908 557 756 631 811 b 431 1061 633 1007 557 1061 b 229 908 304 1061 228 1007 b 431 756 231 811 304 756 z m 431 976 b 482 903 464 976 482 950 b 431 842 482 864 467 842 b 379 918 397 842 379 869 b 431 976 379 954 396 976 z m 849 169 b 793 256 806 183 793 207 l 793 475 b 506 733 793 642 694 733 b 69 524 299 733 69 628 b 178 443 69 483 107 443 b 343 536 268 443 314 492 b 408 600 363 565 381 600 b 446 488 442 600 446 561 l 446 393 b 317 407 411 401 364 407 b 21 185 151 407 21 338 b 242 -18 21 47 125 -18 b 465 93 338 -18 417 25 b 654 -10 503 28 567 -10 b 861 150 788 -10 861 76 b 849 169 861 161 860 165 z m 406 144 b 354 228 381 144 354 168 b 410 315 354 283 376 315 b 457 294 432 315 447 306 l 457 244 b 406 144 457 164 438 144 z "},"ã":{"ha":875,"x_min":0,"x_max":0,"o":"m 231 796 b 304 846 260 796 279 814 b 338 874 318 864 325 874 b 513 782 367 874 399 782 b 664 889 592 782 639 833 b 678 958 675 914 678 940 b 632 1017 678 992 657 1017 b 558 967 603 1017 583 999 b 525 939 544 949 538 939 b 350 1031 496 939 464 1031 b 199 924 271 1031 224 979 b 185 854 188 899 185 872 b 231 796 185 821 206 796 z m 849 169 b 793 256 806 183 793 207 l 793 475 b 506 733 793 642 694 733 b 69 524 299 733 69 628 b 178 443 69 483 107 443 b 343 536 268 443 314 492 b 408 600 363 565 381 600 b 446 488 442 600 446 561 l 446 393 b 317 407 411 401 364 407 b 21 185 151 407 21 338 b 242 -18 21 47 125 -18 b 465 93 338 -18 417 25 b 654 -10 503 28 567 -10 b 861 150 788 -10 861 76 b 849 169 861 161 860 165 z m 406 144 b 354 228 381 144 354 168 b 410 315 354 283 376 315 b 457 294 432 315 447 306 l 457 244 b 406 144 457 164 438 144 z "},"æ":{"ha":1226,"x_min":0,"x_max":0,"o":"m 1147 308 b 1089 289 1128 308 1108 300 b 947 253 1047 265 1004 253 b 768 367 856 253 793 294 l 1060 367 b 1196 482 1149 367 1196 407 b 883 733 1196 592 1083 733 b 696 683 813 733 749 718 b 515 733 649 717 583 733 b 71 524 308 733 71 628 b 181 443 71 483 110 443 b 347 535 269 443 314 489 b 425 600 374 571 396 600 b 472 488 472 600 472 549 l 472 393 b 333 407 435 401 383 407 b 19 185 157 407 19 338 b 271 -18 19 47 131 -18 b 542 106 381 -18 478 31 b 838 -22 603 17 736 -22 b 1151 117 986 -22 1094 42 b 1200 240 1182 157 1200 201 b 1147 308 1200 288 1178 308 z m 865 604 b 935 538 910 604 935 575 b 814 456 935 493 900 461 l 754 451 b 865 604 754 539 800 604 z m 417 144 b 353 228 385 144 353 168 b 424 315 353 282 381 315 b 483 292 450 315 471 304 l 483 244 b 417 144 483 172 463 144 z "},"b":{"ha":940,"x_min":0,"x_max":0,"o":"m 638 733 b 414 600 536 733 454 675 l 414 722 l 414 872 b 315 1040 414 983 413 1040 b 25 960 246 1040 101 1010 b -14 896 -3 942 -14 921 b 36 822 -14 860 11 842 b 72 750 53 810 72 792 l 72 263 b 50 88 72 185 68 150 b 44 54 47 78 44 65 b 104 0 44 21 69 0 b 225 65 144 0 186 28 b 511 -18 292 17 396 -18 b 914 383 757 -18 914 136 b 638 733 914 589 794 733 z m 482 108 b 407 303 436 108 407 149 b 483 521 407 458 436 521 b 563 313 529 521 563 465 b 482 108 563 160 529 108 z "},"c":{"ha":769,"x_min":0,"x_max":0,"o":"m 397 -22 b 690 101 532 -22 632 33 b 750 244 729 147 750 200 b 697 313 750 292 728 313 b 640 293 678 313 660 304 b 519 257 601 272 567 257 b 331 481 404 257 331 350 b 389 601 331 543 347 601 b 451 517 426 601 440 553 b 589 381 472 451 503 381 b 726 518 663 381 726 431 b 424 738 726 638 603 738 b 24 343 194 738 24 572 b 397 -22 24 125 179 -22 z "},"ć":{"ha":769,"x_min":0,"x_max":0,"o":"m 307 769 b 396 797 339 769 365 781 b 564 901 453 828 513 863 b 635 992 613 938 635 960 b 506 1038 635 1024 613 1038 b 368 988 426 1038 396 1021 b 265 843 336 949 296 896 b 253 807 256 826 253 817 b 307 769 253 788 272 769 z m 397 -22 b 690 101 532 -22 632 33 b 750 244 729 147 750 200 b 697 313 750 292 728 313 b 640 293 678 313 660 304 b 519 257 601 272 567 257 b 331 481 404 257 331 350 b 389 601 331 543 347 601 b 451 517 426 601 440 553 b 589 381 472 451 503 381 b 726 518 663 381 726 431 b 424 738 726 638 603 738 b 24 343 194 738 24 572 b 397 -22 24 125 179 -22 z "},"č":{"ha":769,"x_min":0,"x_max":0,"o":"m 249 836 b 383 786 286 803 317 786 b 518 836 450 786 481 803 b 615 954 550 865 592 917 b 635 1006 629 976 635 993 b 582 1047 635 1028 619 1047 b 493 1018 554 1047 526 1036 b 383 942 453 997 418 971 b 274 1018 349 971 314 997 b 185 1047 240 1036 213 1047 b 132 1006 147 1047 132 1028 b 151 954 132 993 138 976 b 249 836 175 917 214 868 z m 697 313 b 640 293 678 313 660 304 b 519 257 601 272 567 257 b 331 481 404 257 331 350 b 389 601 331 543 347 601 b 451 517 426 601 440 553 b 589 381 472 451 503 381 b 726 518 663 381 726 431 b 424 738 726 638 603 738 b 24 343 194 738 24 572 b 397 -22 24 125 179 -22 b 690 101 532 -22 632 33 b 750 244 729 147 750 200 b 697 313 750 292 728 313 z "},"ç":{"ha":769,"x_min":0,"x_max":0,"o":"m 697 313 b 640 293 678 313 660 304 b 519 257 601 272 567 257 b 331 481 404 257 331 350 b 389 601 331 543 347 601 b 451 517 426 601 440 553 b 589 381 472 451 503 381 b 726 518 663 381 726 431 b 424 738 726 638 603 738 b 24 343 194 738 24 572 b 313 -14 24 154 140 18 l 285 -111 b 351 -164 294 -131 329 -158 b 415 -149 372 -156 396 -149 b 464 -169 449 -149 464 -156 b 411 -193 464 -183 444 -193 b 324 -175 378 -193 349 -183 b 285 -165 308 -169 294 -165 b 246 -203 264 -165 246 -182 b 282 -249 246 -221 260 -236 b 428 -281 319 -269 381 -281 b 614 -157 542 -281 614 -232 b 453 -43 614 -90 549 -43 b 406 -47 436 -43 421 -44 l 413 -22 b 690 101 539 -18 635 36 b 750 244 729 147 750 200 b 697 313 750 292 728 313 z "},"ċ":{"ha":769,"x_min":0,"x_max":0,"o":"m 378 779 b 492 896 440 779 492 832 b 378 1014 492 961 440 1014 b 265 896 315 1014 265 961 b 378 779 265 832 315 779 z m 397 -22 b 690 101 532 -22 632 33 b 750 244 729 147 750 200 b 697 313 750 292 728 313 b 640 293 678 313 660 304 b 519 257 601 272 567 257 b 331 481 404 257 331 350 b 389 601 331 543 347 601 b 451 517 426 601 440 553 b 589 381 472 451 503 381 b 726 518 663 381 726 431 b 424 738 726 638 603 738 b 24 343 194 738 24 572 b 397 -22 24 125 179 -22 z "},"d":{"ha":951,"x_min":0,"x_max":0,"o":"m 893 189 b 868 244 881 199 868 213 l 868 722 l 868 872 b 769 1040 868 983 867 1040 b 468 960 697 1040 549 1010 b 426 896 439 942 426 921 b 481 822 426 860 453 840 b 526 750 501 808 526 792 l 526 700 b 375 733 489 719 438 733 b 26 349 176 733 26 600 b 303 -18 26 132 140 -18 b 538 124 407 -18 492 43 b 631 -17 539 32 546 -17 b 892 63 694 -17 824 13 b 929 125 918 82 929 100 b 893 189 929 156 911 175 z m 454 185 b 379 396 408 185 379 236 b 456 606 379 556 408 606 b 531 396 504 606 531 551 b 454 185 531 247 506 185 z "},"ð":{"ha":903,"x_min":0,"x_max":0,"o":"m 688 874 l 718 885 b 761 935 749 896 761 913 b 703 1010 761 964 740 1010 b 674 1004 694 1010 685 1008 l 567 965 b 511 993 549 976 529 985 b 326 1043 444 1022 379 1043 b 215 975 261 1043 215 1018 b 314 874 215 942 243 915 l 257 853 b 214 803 225 842 214 824 b 269 728 214 771 232 728 b 300 733 278 728 289 729 l 436 783 b 514 674 467 753 493 715 b 374 701 478 690 431 701 b 25 357 175 701 25 594 b 443 -22 25 115 196 -22 b 881 428 700 -22 881 160 b 688 874 881 614 797 768 z m 453 114 b 378 339 407 114 378 172 b 454 563 378 506 407 563 b 529 339 503 563 529 501 b 453 114 529 185 504 114 z "},"ď":{"ha":951,"x_min":0,"x_max":0,"o":"m 893 189 b 868 244 881 199 868 213 l 868 722 l 868 872 b 769 1040 868 983 867 1040 b 468 960 697 1040 549 1010 b 426 896 439 942 426 921 b 481 822 426 860 453 840 b 526 750 501 808 526 792 l 526 700 b 375 733 489 719 438 733 b 26 349 176 733 26 600 b 303 -18 26 132 140 -18 b 538 124 407 -18 492 43 b 631 -17 539 32 546 -17 b 892 63 694 -17 824 13 b 929 125 918 82 929 100 b 893 189 929 156 911 175 z m 988 1038 b 928 950 940 1038 928 1000 l 928 689 b 981 624 928 643 947 624 b 1047 682 1010 624 1032 649 b 1114 953 1076 746 1114 867 b 988 1038 1114 1010 1057 1038 z m 454 185 b 379 396 408 185 379 236 b 456 606 379 556 408 606 b 531 396 504 606 531 551 b 454 185 531 247 506 185 z "},"đ":{"ha":951,"x_min":0,"x_max":0,"o":"m 868 793 l 894 793 b 957 861 943 793 957 819 b 894 929 957 901 943 929 l 868 929 b 769 1043 863 1014 835 1043 b 563 1007 701 1043 611 1029 b 519 943 535 994 519 974 l 519 929 l 425 929 b 363 861 376 929 363 901 b 425 793 363 819 376 793 l 525 793 b 526 767 526 783 526 775 l 526 700 b 375 733 489 719 438 733 b 26 349 176 733 26 600 b 303 -18 26 132 140 -18 b 538 124 407 -18 492 43 b 631 -17 539 32 546 -17 b 892 63 694 -17 824 13 b 929 125 918 82 929 100 b 893 189 929 156 911 175 b 868 244 881 199 868 213 l 868 722 z m 454 185 b 379 396 408 185 379 236 b 456 606 379 556 408 606 b 531 396 504 606 531 551 b 454 185 531 247 506 185 z "},"e":{"ha":786,"x_min":0,"x_max":0,"o":"m 707 308 b 649 289 688 308 668 300 b 507 253 607 265 564 253 b 328 367 415 253 353 294 l 619 367 b 756 482 708 367 756 407 b 425 733 756 592 642 733 b 24 340 199 733 24 568 b 397 -22 24 129 178 -22 b 711 117 546 -22 654 42 b 760 240 743 157 760 201 b 707 308 760 288 738 308 z m 425 604 b 494 538 469 604 494 575 b 374 456 494 493 460 461 l 314 451 b 425 604 314 539 360 604 z "},"é":{"ha":786,"x_min":0,"x_max":0,"o":"m 338 769 b 426 797 369 769 396 781 b 594 901 483 828 543 863 b 665 992 643 938 665 960 b 536 1038 665 1024 643 1038 b 399 988 457 1038 426 1021 b 296 843 367 949 326 896 b 283 807 286 826 283 817 b 338 769 283 788 303 769 z m 707 308 b 649 289 688 308 668 300 b 507 253 607 265 564 253 b 328 367 415 253 353 294 l 619 367 b 756 482 708 367 756 407 b 425 733 756 592 642 733 b 24 340 199 733 24 568 b 397 -22 24 129 178 -22 b 711 117 546 -22 654 42 b 760 240 743 157 760 201 b 707 308 760 288 738 308 z m 425 604 b 494 538 469 604 494 575 b 374 456 494 493 460 461 l 314 451 b 425 604 314 539 360 604 z "},"ĕ":{"ha":786,"x_min":0,"x_max":0,"o":"m 406 782 b 632 913 515 782 590 836 b 651 996 649 943 653 964 b 600 1047 650 1031 626 1047 b 511 990 565 1047 544 1025 b 406 939 483 961 449 939 b 301 989 367 939 329 960 b 211 1047 268 1024 249 1047 b 160 993 181 1047 161 1025 b 179 913 158 967 168 933 b 406 782 215 847 283 782 z m 707 308 b 649 289 688 308 668 300 b 507 253 607 265 564 253 b 328 367 415 253 353 294 l 619 367 b 756 482 708 367 756 407 b 425 733 756 592 642 733 b 24 340 199 733 24 568 b 397 -22 24 129 178 -22 b 711 117 546 -22 654 42 b 760 240 743 157 760 201 b 707 308 760 288 738 308 z m 425 604 b 494 538 469 604 494 575 b 374 456 494 493 460 461 l 314 451 b 425 604 314 539 360 604 z "},"ě":{"ha":786,"x_min":0,"x_max":0,"o":"m 279 836 b 414 786 317 803 347 786 b 549 836 481 786 511 803 b 646 954 581 865 622 917 b 665 1006 660 976 665 993 b 613 1047 665 1028 650 1047 b 524 1018 585 1047 557 1036 b 414 942 483 997 449 971 b 304 1018 379 971 344 997 b 215 1047 271 1036 243 1047 b 163 1006 178 1047 163 1028 b 182 954 163 993 168 976 b 279 836 206 917 244 868 z m 707 308 b 649 289 688 308 668 300 b 507 253 607 265 564 253 b 328 367 415 253 353 294 l 619 367 b 756 482 708 367 756 407 b 425 733 756 592 642 733 b 24 340 199 733 24 568 b 397 -22 24 129 178 -22 b 711 117 546 -22 654 42 b 760 240 743 157 760 201 b 707 308 760 288 738 308 z m 425 604 b 494 538 469 604 494 575 b 374 456 494 493 460 461 l 314 451 b 425 604 314 539 360 604 z "},"ê":{"ha":786,"x_min":0,"x_max":0,"o":"m 215 779 b 304 808 243 779 271 790 b 414 885 344 829 379 856 b 524 808 449 856 483 829 b 613 779 557 790 585 779 b 665 821 650 779 665 799 b 646 872 665 833 660 850 b 549 990 622 910 583 958 b 414 1040 511 1024 481 1040 b 279 990 347 1040 317 1024 b 182 872 247 961 206 910 b 163 821 168 850 163 833 b 215 779 163 799 178 779 z m 707 308 b 649 289 688 308 668 300 b 507 253 607 265 564 253 b 328 367 415 253 353 294 l 619 367 b 756 482 708 367 756 407 b 425 733 756 592 642 733 b 24 340 199 733 24 568 b 397 -22 24 129 178 -22 b 711 117 546 -22 654 42 b 760 240 743 157 760 201 b 707 308 760 288 738 308 z m 425 604 b 494 538 469 604 494 575 b 374 456 494 493 460 461 l 314 451 b 425 604 314 539 360 604 z "},"ë":{"ha":786,"x_min":0,"x_max":0,"o":"m 261 785 b 369 896 321 785 369 835 b 261 1008 369 958 321 1008 b 154 896 201 1008 154 958 b 261 785 154 835 201 785 z m 549 785 b 657 896 608 785 657 835 b 549 1008 657 958 608 1008 b 442 896 489 1008 442 958 b 549 785 442 835 489 785 z m 707 308 b 649 289 688 308 668 300 b 507 253 607 265 564 253 b 328 367 415 253 353 294 l 619 367 b 756 482 708 367 756 407 b 425 733 756 592 642 733 b 24 340 199 733 24 568 b 397 -22 24 129 178 -22 b 711 117 546 -22 654 42 b 760 240 743 157 760 201 b 707 308 760 288 738 308 z m 425 604 b 494 538 469 604 494 575 b 374 456 494 493 460 461 l 314 451 b 425 604 314 539 360 604 z "},"ė":{"ha":786,"x_min":0,"x_max":0,"o":"m 408 779 b 522 896 471 779 522 832 b 408 1014 522 961 471 1014 b 296 896 346 1014 296 961 b 408 779 296 832 346 779 z m 707 308 b 649 289 688 308 668 300 b 507 253 607 265 564 253 b 328 367 415 253 353 294 l 619 367 b 756 482 708 367 756 407 b 425 733 756 592 642 733 b 24 340 199 733 24 568 b 397 -22 24 129 178 -22 b 711 117 546 -22 654 42 b 760 240 743 157 760 201 b 707 308 760 288 738 308 z m 425 604 b 494 538 469 604 494 575 b 374 456 494 493 460 461 l 314 451 b 425 604 314 539 360 604 z "},"è":{"ha":786,"x_min":0,"x_max":0,"o":"m 210 901 b 378 797 261 863 321 828 b 467 769 408 781 435 769 b 521 807 501 769 521 788 b 508 843 521 817 518 826 b 406 988 478 896 438 949 b 268 1038 378 1021 347 1038 b 139 992 161 1038 139 1024 b 210 901 139 960 161 938 z m 707 308 b 649 289 688 308 668 300 b 507 253 607 265 564 253 b 328 367 415 253 353 294 l 619 367 b 756 482 708 367 756 407 b 425 733 756 592 642 733 b 24 340 199 733 24 568 b 397 -22 24 129 178 -22 b 711 117 546 -22 654 42 b 760 240 743 157 760 201 b 707 308 760 288 738 308 z m 425 604 b 494 538 469 604 494 575 b 374 456 494 493 460 461 l 314 451 b 425 604 314 539 360 604 z "},"ē":{"ha":786,"x_min":0,"x_max":0,"o":"m 208 817 b 403 824 271 817 343 824 b 582 819 460 824 538 819 b 656 921 636 819 656 874 b 604 979 656 953 644 979 b 410 971 543 979 471 971 b 229 975 347 971 276 975 b 156 875 175 975 156 919 b 208 817 156 842 167 817 z m 707 308 b 649 289 688 308 668 300 b 507 253 607 265 564 253 b 328 367 415 253 353 294 l 619 367 b 756 482 708 367 756 407 b 425 733 756 592 642 733 b 24 340 199 733 24 568 b 397 -22 24 129 178 -22 b 711 117 546 -22 654 42 b 760 240 743 157 760 201 b 707 308 760 288 738 308 z m 425 604 b 494 538 469 604 494 575 b 374 456 494 493 460 461 l 314 451 b 425 604 314 539 360 604 z "},"ę":{"ha":786,"x_min":0,"x_max":0,"o":"m 707 308 b 649 289 688 308 668 300 b 507 253 607 265 564 253 b 328 367 415 253 353 294 l 619 367 b 756 482 708 367 756 407 b 425 733 756 592 642 733 b 24 340 199 733 24 568 b 372 -22 24 138 167 -11 b 293 -168 322 -68 293 -121 b 426 -281 293 -236 349 -281 b 553 -233 482 -281 528 -258 b 574 -187 567 -219 574 -203 b 542 -149 574 -162 560 -149 b 518 -156 533 -149 525 -153 b 489 -164 510 -158 500 -164 b 467 -128 476 -164 467 -156 b 519 -7 467 -97 485 -49 b 711 117 606 17 671 64 b 760 240 743 157 760 201 b 707 308 760 288 738 308 z m 425 604 b 494 538 469 604 494 575 b 374 456 494 493 460 461 l 314 451 b 425 604 314 539 360 604 z "},"f":{"ha":593,"x_min":0,"x_max":0,"o":"m 313 915 b 379 824 354 915 363 858 b 503 738 401 776 436 738 b 621 854 572 738 621 782 b 349 1050 621 965 508 1050 b 46 811 150 1050 46 933 b 101 657 46 740 78 694 l 76 657 b 14 585 28 657 14 635 b 76 511 14 533 28 511 l 119 511 l 119 207 b 86 156 119 176 100 164 b 36 86 60 139 36 124 b 290 -12 36 10 151 -12 b 551 86 429 -12 551 8 b 497 156 551 124 531 138 b 461 217 479 165 461 176 l 461 511 l 519 511 b 582 585 568 511 582 533 b 519 657 582 635 568 657 l 419 657 b 274 861 364 717 274 761 b 313 915 274 890 285 915 z "},"g":{"ha":878,"x_min":0,"x_max":0,"o":"m 683 188 b 338 151 589 188 469 151 b 274 190 307 151 274 160 b 286 225 274 201 276 214 b 379 218 315 221 346 218 b 778 492 608 218 778 340 b 774 531 778 506 776 518 b 857 700 821 578 857 646 b 806 764 857 735 840 764 b 736 742 788 764 763 756 b 615 700 696 721 672 708 b 424 733 563 721 499 733 b 31 463 188 733 31 614 b 161 265 31 378 79 308 b 44 101 93 229 44 171 b 103 -17 44 61 64 17 b 31 -118 63 -39 31 -74 b 379 -281 31 -203 163 -281 b 867 18 540 -281 867 -225 b 683 188 867 139 776 188 z m 390 610 b 479 442 460 610 479 506 b 417 338 479 378 460 338 b 329 507 347 338 329 443 b 390 610 329 574 349 610 z m 394 -168 b 217 -83 258 -168 217 -124 b 218 -72 217 -79 217 -76 b 310 -82 246 -79 276 -82 b 567 -64 413 -82 521 -64 b 606 -92 593 -64 606 -76 b 394 -168 606 -139 506 -168 z "},"ğ":{"ha":878,"x_min":0,"x_max":0,"o":"m 413 782 b 639 913 522 782 597 836 b 658 996 656 943 660 964 b 607 1047 657 1031 633 1047 b 518 990 572 1047 551 1025 b 413 939 490 961 456 939 b 308 989 374 939 336 960 b 218 1047 275 1024 256 1047 b 167 993 188 1047 168 1025 b 186 913 165 967 175 933 b 413 782 222 847 290 782 z m 683 188 b 338 151 589 188 469 151 b 274 190 307 151 274 160 b 286 225 274 201 276 214 b 379 218 315 221 346 218 b 778 492 608 218 778 340 b 774 531 778 506 776 518 b 857 700 821 578 857 646 b 806 764 857 735 840 764 b 736 742 788 764 763 756 b 615 700 696 721 672 708 b 424 733 563 721 499 733 b 31 463 188 733 31 614 b 161 265 31 378 79 308 b 44 101 93 229 44 171 b 103 -17 44 61 64 17 b 31 -118 63 -39 31 -74 b 379 -281 31 -203 163 -281 b 867 18 540 -281 867 -225 b 683 188 867 139 776 188 z m 390 610 b 479 442 460 610 479 506 b 417 338 479 378 460 338 b 329 507 347 338 329 443 b 390 610 329 574 349 610 z m 394 -168 b 217 -83 258 -168 217 -124 b 218 -72 217 -79 217 -76 b 310 -82 246 -79 276 -82 b 567 -64 413 -82 521 -64 b 606 -92 593 -64 606 -76 b 394 -168 606 -139 506 -168 z "},"ĝ":{"ha":878,"x_min":0,"x_max":0,"o":"m 222 779 b 311 808 250 779 278 790 b 421 885 351 829 386 856 b 531 808 456 856 490 829 b 619 779 564 790 592 779 b 672 821 657 779 672 799 b 653 872 672 833 667 850 b 556 990 629 910 590 958 b 421 1040 518 1024 488 1040 b 286 990 354 1040 324 1024 b 189 872 254 961 213 910 b 169 821 175 850 169 833 b 222 779 169 799 185 779 z m 683 188 b 338 151 589 188 469 151 b 274 190 307 151 274 160 b 286 225 274 201 276 214 b 379 218 315 221 346 218 b 778 492 608 218 778 340 b 774 531 778 506 776 518 b 857 700 821 578 857 646 b 806 764 857 735 840 764 b 736 742 788 764 763 756 b 615 700 696 721 672 708 b 424 733 563 721 499 733 b 31 463 188 733 31 614 b 161 265 31 378 79 308 b 44 101 93 229 44 171 b 103 -17 44 61 64 17 b 31 -118 63 -39 31 -74 b 379 -281 31 -203 163 -281 b 867 18 540 -281 867 -225 b 683 188 867 139 776 188 z m 390 610 b 479 442 460 610 479 506 b 417 338 479 378 460 338 b 329 507 347 338 329 443 b 390 610 329 574 349 610 z m 394 -168 b 217 -83 258 -168 217 -124 b 218 -72 217 -79 217 -76 b 310 -82 246 -79 276 -82 b 567 -64 413 -82 521 -64 b 606 -92 593 -64 606 -76 b 394 -168 606 -139 506 -168 z "},"ģ":{"ha":878,"x_min":0,"x_max":0,"o":"m 411 754 b 519 835 463 754 519 782 b 476 897 519 861 503 881 b 447 929 460 906 447 914 b 481 986 447 947 463 967 b 504 1028 494 999 504 1011 b 465 1060 504 1047 488 1060 b 299 867 403 1060 299 963 b 411 754 299 808 338 754 z m 683 188 b 338 151 589 188 469 151 b 274 190 307 151 274 160 b 286 225 274 201 276 214 b 379 218 315 221 346 218 b 778 492 608 218 778 340 b 774 531 778 506 776 518 b 857 700 821 578 857 646 b 806 764 857 735 840 764 b 736 742 788 764 763 756 b 615 700 696 721 672 708 b 424 733 563 721 499 733 b 31 463 188 733 31 614 b 161 265 31 378 79 308 b 44 101 93 229 44 171 b 103 -17 44 61 64 17 b 31 -118 63 -39 31 -74 b 379 -281 31 -203 163 -281 b 867 18 540 -281 867 -225 b 683 188 867 139 776 188 z m 390 610 b 479 442 460 610 479 506 b 417 338 479 378 460 338 b 329 507 347 338 329 443 b 390 610 329 574 349 610 z m 394 -168 b 217 -83 258 -168 217 -124 b 218 -72 217 -79 217 -76 b 310 -82 246 -79 276 -82 b 567 -64 413 -82 521 -64 b 606 -92 593 -64 606 -76 b 394 -168 606 -139 506 -168 z "},"ġ":{"ha":878,"x_min":0,"x_max":0,"o":"m 415 779 b 529 896 478 779 529 832 b 415 1014 529 961 478 1014 b 303 896 353 1014 303 961 b 415 779 303 832 353 779 z m 683 188 b 338 151 589 188 469 151 b 274 190 307 151 274 160 b 286 225 274 201 276 214 b 379 218 315 221 346 218 b 778 492 608 218 778 340 b 774 531 778 506 776 518 b 857 700 821 578 857 646 b 806 764 857 735 840 764 b 736 742 788 764 763 756 b 615 700 696 721 672 708 b 424 733 563 721 499 733 b 31 463 188 733 31 614 b 161 265 31 378 79 308 b 44 101 93 229 44 171 b 103 -17 44 61 64 17 b 31 -118 63 -39 31 -74 b 379 -281 31 -203 163 -281 b 867 18 540 -281 867 -225 b 683 188 867 139 776 188 z m 390 610 b 479 442 460 610 479 506 b 417 338 479 378 460 338 b 329 507 347 338 329 443 b 390 610 329 574 349 610 z m 394 -168 b 217 -83 258 -168 217 -124 b 218 -72 217 -79 217 -76 b 310 -82 246 -79 276 -82 b 567 -64 413 -82 521 -64 b 606 -92 593 -64 606 -76 b 394 -168 606 -139 506 -168 z "},"h":{"ha":976,"x_min":0,"x_max":0,"o":"m 917 153 b 899 203 904 163 899 172 l 899 476 b 678 733 899 636 819 733 b 428 576 554 733 472 661 l 428 722 l 428 872 b 329 1040 428 983 426 1040 b 39 960 260 1040 114 1011 b 0 896 11 942 0 921 b 50 822 0 860 25 842 b 86 750 67 810 86 792 l 86 203 b 68 153 86 172 81 163 b 28 88 49 138 28 124 b 257 -12 28 10 128 -12 b 474 83 386 -12 474 10 b 443 147 474 119 453 133 b 428 203 428 169 428 188 l 428 360 b 492 511 429 476 450 511 b 557 335 536 511 557 472 l 557 203 b 542 147 557 186 557 167 b 511 83 531 133 511 119 b 728 -12 511 10 599 -12 b 957 88 857 -12 957 10 b 917 153 957 124 936 138 z "},"ħ":{"ha":976,"x_min":0,"x_max":0,"o":"m 917 153 b 899 203 904 163 899 172 l 899 476 b 678 733 899 636 819 733 b 428 576 554 733 472 661 l 428 722 l 428 786 l 529 786 b 592 854 578 786 592 813 b 529 922 592 894 578 922 l 428 922 b 329 1043 424 1013 397 1043 b 126 1007 261 1043 175 1029 b 83 943 99 994 83 974 l 83 922 l 58 922 b -4 854 10 922 -4 894 b 58 786 -4 813 10 786 l 86 786 l 86 767 l 86 203 b 68 153 86 172 81 163 b 28 88 49 138 28 124 b 257 -12 28 10 128 -12 b 474 83 386 -12 474 10 b 443 147 474 119 453 133 b 428 203 428 169 428 188 l 428 360 b 492 511 429 476 450 511 b 557 335 536 511 557 472 l 557 203 b 542 147 557 186 557 167 b 511 83 531 133 511 119 b 728 -12 511 10 599 -12 b 957 88 857 -12 957 10 b 917 153 957 124 936 138 z "},"ĥ":{"ha":976,"x_min":0,"x_max":0,"o":"m 56 1064 b 144 1093 83 1064 111 1075 b 254 1169 185 1114 219 1140 b 364 1093 289 1140 324 1114 b 453 1064 397 1075 425 1064 b 506 1106 490 1064 506 1083 b 486 1157 506 1118 500 1135 b 389 1275 463 1194 424 1243 b 254 1325 351 1308 321 1325 b 119 1275 188 1325 157 1308 b 22 1157 88 1246 46 1194 b 3 1106 8 1135 3 1118 b 56 1064 3 1083 18 1064 z m 917 153 b 899 203 904 163 899 172 l 899 476 b 678 733 899 636 819 733 b 428 576 554 733 472 661 l 428 722 l 428 872 b 329 1040 428 983 426 1040 b 39 960 260 1040 114 1011 b 0 896 11 942 0 921 b 50 822 0 860 25 842 b 86 750 67 810 86 792 l 86 203 b 68 153 86 172 81 163 b 28 88 49 138 28 124 b 257 -12 28 10 128 -12 b 474 83 386 -12 474 10 b 443 147 474 119 453 133 b 428 203 428 169 428 188 l 428 360 b 492 511 429 476 450 511 b 557 335 536 511 557 472 l 557 203 b 542 147 557 186 557 167 b 511 83 531 133 511 119 b 728 -12 511 10 599 -12 b 957 88 857 -12 957 10 b 917 153 957 124 936 138 z "},"i":{"ha":522,"x_min":0,"x_max":0,"o":"m 213 765 b 456 904 315 765 456 807 b 307 1018 456 972 410 1018 b 64 874 196 1018 64 982 b 213 765 64 810 111 765 z m 268 -12 b 497 88 397 -12 497 10 b 457 153 497 124 476 138 b 439 203 444 163 439 172 l 439 410 l 439 563 b 346 728 439 672 438 728 b 72 649 281 728 143 699 b 35 586 46 631 35 611 b 72 522 35 556 53 538 b 97 467 85 513 97 499 l 97 203 b 79 153 97 172 92 163 b 39 88 60 138 39 124 b 268 -12 39 10 139 -12 z "},"ı":{"ha":522,"x_min":0,"x_max":0,"o":"m 268 -12 b 497 88 397 -12 497 10 b 457 153 497 124 476 138 b 439 203 444 163 439 172 l 439 410 l 439 563 b 346 728 439 672 438 728 b 72 649 281 728 143 699 b 35 586 46 631 35 611 b 72 522 35 556 53 538 b 97 467 85 513 97 499 l 97 203 b 79 153 97 172 92 163 b 39 88 60 138 39 124 b 268 -12 39 10 139 -12 z "},"í":{"ha":522,"x_min":0,"x_max":0,"o":"m 182 769 b 271 797 214 769 240 781 b 439 901 328 828 388 863 b 510 992 488 938 510 960 b 381 1038 510 1024 488 1038 b 243 988 301 1038 271 1021 b 140 843 211 949 171 896 b 128 807 131 826 128 817 b 182 769 128 788 147 769 z m 268 -12 b 497 88 397 -12 497 10 b 457 153 497 124 476 138 b 439 203 444 163 439 172 l 439 410 l 439 563 b 346 728 439 672 438 728 b 72 649 281 728 143 699 b 35 586 46 631 35 611 b 72 522 35 556 53 538 b 97 467 85 513 97 499 l 97 203 b 79 153 97 172 92 163 b 39 88 60 138 39 124 b 268 -12 39 10 139 -12 z "},"ĭ":{"ha":522,"x_min":0,"x_max":0,"o":"m 250 782 b 476 913 360 782 435 836 b 496 996 493 943 497 964 b 444 1047 494 1031 471 1047 b 356 990 410 1047 389 1025 b 250 939 328 961 293 939 b 146 989 211 939 174 960 b 56 1047 113 1024 93 1047 b 4 993 25 1047 6 1025 b 24 913 3 967 13 933 b 250 782 60 847 128 782 z m 268 -12 b 497 88 397 -12 497 10 b 457 153 497 124 476 138 b 439 203 444 163 439 172 l 439 410 l 439 563 b 346 728 439 672 438 728 b 72 649 281 728 143 699 b 35 586 46 631 35 611 b 72 522 35 556 53 538 b 97 467 85 513 97 499 l 97 203 b 79 153 97 172 92 163 b 39 88 60 138 39 124 b 268 -12 39 10 139 -12 z "},"î":{"ha":522,"x_min":0,"x_max":0,"o":"m 490 872 b 393 990 467 910 428 958 b 258 1040 356 1024 325 1040 b 124 990 192 1040 161 1024 b 26 872 92 961 50 910 b 7 821 13 850 7 833 b 60 779 7 799 22 779 b 149 808 88 779 115 790 b 258 885 189 829 224 856 b 368 808 293 856 328 829 b 457 779 401 790 429 779 b 510 821 494 779 510 799 b 490 872 510 833 504 850 z m 457 153 b 439 203 444 163 439 172 l 439 410 l 439 563 b 346 728 439 672 438 728 b 72 649 281 728 143 699 b 35 586 46 631 35 611 b 72 522 35 556 53 538 b 97 467 85 513 97 499 l 97 203 b 79 153 97 172 92 163 b 39 88 60 138 39 124 b 268 -12 39 10 139 -12 b 497 88 397 -12 497 10 b 457 153 497 124 476 138 z "},"ï":{"ha":522,"x_min":0,"x_max":0,"o":"m 106 785 b 214 896 165 785 214 835 b 106 1008 214 958 165 1008 b -1 896 46 1008 -1 958 b 106 785 -1 835 46 785 z m 393 785 b 501 896 453 785 501 835 b 393 1008 501 958 453 1008 b 286 896 333 1008 286 958 b 393 785 286 835 333 785 z m 268 -12 b 497 88 397 -12 497 10 b 457 153 497 124 476 138 b 439 203 444 163 439 172 l 439 410 l 439 563 b 346 728 439 672 438 728 b 72 649 281 728 143 699 b 35 586 46 631 35 611 b 72 522 35 556 53 538 b 97 467 85 513 97 499 l 97 203 b 79 153 97 172 92 163 b 39 88 60 138 39 124 b 268 -12 39 10 139 -12 z "},"ì":{"ha":522,"x_min":0,"x_max":0,"o":"m 311 769 b 365 807 346 769 365 788 b 353 843 365 817 363 826 b 250 988 322 896 282 949 b 113 1038 222 1021 192 1038 b -17 992 6 1038 -17 1024 b 54 901 -17 960 6 938 b 222 797 106 863 165 828 b 311 769 253 781 279 769 z m 268 -12 b 497 88 397 -12 497 10 b 457 153 497 124 476 138 b 439 203 444 163 439 172 l 439 410 l 439 563 b 346 728 439 672 438 728 b 72 649 281 728 143 699 b 35 586 46 631 35 611 b 72 522 35 556 53 538 b 97 467 85 513 97 499 l 97 203 b 79 153 97 172 92 163 b 39 88 60 138 39 124 b 268 -12 39 10 139 -12 z "},"ĳ":{"ha":1014,"x_min":0,"x_max":0,"o":"m 213 765 b 456 904 315 765 456 807 b 307 1018 456 972 410 1018 b 64 874 196 1018 64 982 b 213 765 64 810 111 765 z m 724 765 b 967 904 826 765 967 807 b 818 1018 967 972 921 1018 b 575 874 707 1018 575 982 b 724 765 575 810 622 765 z m 268 -12 b 497 88 397 -12 497 10 b 457 153 497 124 476 138 b 439 203 444 163 439 172 l 439 410 l 439 563 b 346 728 439 672 438 728 b 72 649 281 728 143 699 b 35 586 46 631 35 611 b 72 522 35 556 53 538 b 97 467 85 513 97 499 l 97 203 b 79 153 97 172 92 163 b 39 88 60 138 39 124 b 268 -12 39 10 139 -12 z m 590 -264 b 950 54 747 -264 950 -189 l 950 410 l 950 563 b 857 728 950 672 949 728 b 583 649 792 728 656 697 b 546 586 557 631 546 611 b 583 522 546 556 564 538 b 608 467 596 513 608 499 l 607 8 b 465 -192 607 -129 465 -110 b 590 -264 465 -246 526 -264 z "},"ī":{"ha":522,"x_min":0,"x_max":0,"o":"m 53 817 b 247 824 115 817 188 824 b 426 819 304 824 382 819 b 500 921 481 819 500 874 b 449 979 500 953 489 979 b 254 971 388 979 315 971 b 74 975 192 971 121 975 b 0 875 19 975 0 919 b 53 817 0 842 11 817 z m 268 -12 b 497 88 397 -12 497 10 b 457 153 497 124 476 138 b 439 203 444 163 439 172 l 439 410 l 439 563 b 346 728 439 672 438 728 b 72 649 281 728 143 699 b 35 586 46 631 35 611 b 72 522 35 556 53 538 b 97 467 85 513 97 499 l 97 203 b 79 153 97 172 92 163 b 39 88 60 138 39 124 b 268 -12 39 10 139 -12 z "},"į":{"ha":522,"x_min":0,"x_max":0,"o":"m 213 765 b 456 904 315 765 456 807 b 307 1018 456 972 410 1018 b 64 874 196 1018 64 982 b 213 765 64 810 111 765 z m 497 88 b 457 153 497 124 476 138 b 439 203 444 163 439 172 l 439 410 l 439 563 b 346 728 439 672 438 728 b 72 649 281 728 143 699 b 35 586 46 631 35 611 b 72 522 35 556 53 538 b 97 467 85 513 97 499 l 97 203 b 79 153 97 172 92 163 b 39 88 60 138 39 124 b 221 -11 39 19 115 -6 b 131 -168 164 -61 131 -117 b 264 -281 131 -236 186 -281 b 390 -233 319 -281 365 -258 b 411 -187 404 -219 411 -203 b 379 -149 411 -162 397 -149 b 356 -156 371 -149 363 -153 b 326 -164 347 -158 338 -164 b 304 -128 314 -164 304 -156 b 356 -8 304 -97 321 -50 b 497 88 439 1 497 28 z "},"ĩ":{"ha":522,"x_min":0,"x_max":0,"o":"m 332 782 b 483 889 411 782 458 833 b 497 958 494 914 497 940 b 451 1017 497 992 476 1017 b 378 967 422 1017 403 999 b 344 939 364 949 357 939 b 169 1031 315 939 283 1031 b 18 924 90 1031 43 979 b 4 854 7 899 4 872 b 50 796 4 821 25 796 b 124 846 79 796 99 814 b 157 874 138 864 144 874 b 332 782 186 874 218 782 z m 268 -12 b 497 88 397 -12 497 10 b 457 153 497 124 476 138 b 439 203 444 163 439 172 l 439 410 l 439 563 b 346 728 439 672 438 728 b 72 649 281 728 143 699 b 35 586 46 631 35 611 b 72 522 35 556 53 538 b 97 467 85 513 97 499 l 97 203 b 79 153 97 172 92 163 b 39 88 60 138 39 124 b 268 -12 39 10 139 -12 z "},"j":{"ha":492,"x_min":0,"x_max":0,"o":"m 201 765 b 444 904 304 765 444 807 b 296 1018 444 972 399 1018 b 53 874 185 1018 53 982 b 201 765 53 810 100 765 z m 68 -264 b 428 54 225 -264 428 -189 l 428 410 l 428 563 b 335 728 428 672 426 728 b 61 649 269 728 133 697 b 24 586 35 631 24 611 b 61 522 24 556 42 538 b 86 467 74 513 86 499 l 85 8 b -57 -192 85 -129 -57 -110 b 68 -264 -57 -246 4 -264 z "},"ȷ":{"ha":492,"x_min":0,"x_max":0,"o":"m 68 -264 b 428 54 225 -264 428 -189 l 428 410 l 428 563 b 335 728 428 672 426 728 b 61 649 269 728 133 697 b 24 586 35 631 24 611 b 61 522 24 556 42 538 b 86 467 74 513 86 499 l 85 8 b -57 -192 85 -129 -57 -110 b 68 -264 -57 -246 4 -264 z "},"ĵ":{"ha":492,"x_min":0,"x_max":0,"o":"m 479 872 b 382 990 456 910 417 958 b 247 1040 344 1024 314 1040 b 113 990 181 1040 150 1024 b 15 872 81 961 39 910 b -4 821 1 850 -4 833 b 49 779 -4 799 11 779 b 138 808 76 779 104 790 b 247 885 178 829 213 856 b 357 808 282 856 317 829 b 446 779 390 790 418 779 b 499 821 483 779 499 799 b 479 872 499 833 493 850 z m 335 728 b 61 649 269 728 133 697 b 24 586 35 631 24 611 b 61 522 24 556 42 538 b 86 467 74 513 86 499 l 85 8 b -57 -192 85 -129 -57 -110 b 68 -264 -57 -246 4 -264 b 428 54 225 -264 428 -189 l 428 410 l 428 563 b 335 728 428 672 426 728 z "},"k":{"ha":990,"x_min":0,"x_max":0,"o":"m 956 153 b 882 225 931 165 914 178 b 735 488 803 344 758 438 b 869 547 789 521 821 536 b 958 629 915 557 958 572 b 735 728 958 692 886 728 b 499 628 560 728 499 689 b 546 565 499 588 528 575 b 575 536 565 556 575 551 b 486 453 575 518 535 485 b 428 417 467 440 447 428 l 428 722 l 428 872 b 329 1040 428 983 426 1040 b 39 960 260 1040 114 1011 b 0 896 11 942 0 921 b 50 822 0 860 25 842 b 86 750 67 810 86 792 l 86 203 b 68 153 86 172 81 163 b 28 88 49 138 28 124 b 257 -12 28 10 128 -12 b 486 88 386 -12 486 10 b 446 153 486 124 465 138 b 428 203 433 163 428 172 l 428 282 b 471 314 442 293 457 304 b 604 53 499 247 572 100 b 789 -12 636 3 671 -12 b 1007 85 922 -12 1007 21 b 956 153 1007 126 981 140 z "},"ķ":{"ha":990,"x_min":0,"x_max":0,"o":"m 956 153 b 882 225 931 165 914 178 b 735 488 803 344 758 438 b 869 547 789 521 821 536 b 958 629 915 557 958 572 b 735 728 958 692 886 728 b 499 628 560 728 499 689 b 546 565 499 588 528 575 b 575 536 565 556 575 551 b 486 453 575 518 535 485 b 428 417 467 440 447 428 l 428 722 l 428 872 b 329 1040 428 983 426 1040 b 39 960 260 1040 114 1011 b 0 896 11 942 0 921 b 50 822 0 860 25 842 b 86 750 67 810 86 792 l 86 203 b 68 153 86 172 81 163 b 28 88 49 138 28 124 b 257 -12 28 10 128 -12 b 486 88 386 -12 486 10 b 446 153 486 124 465 138 b 428 203 433 163 428 172 l 428 282 b 471 314 442 293 457 304 b 604 53 499 247 572 100 b 789 -12 636 3 671 -12 b 1007 85 922 -12 1007 21 b 956 153 1007 126 981 140 z m 525 -42 b 410 -126 469 -42 410 -71 b 456 -193 410 -156 426 -176 b 486 -228 472 -203 486 -211 b 450 -287 486 -247 469 -268 b 425 -332 436 -301 425 -315 b 467 -367 425 -353 443 -367 b 644 -161 533 -367 644 -262 b 525 -42 644 -99 603 -42 z "},"ĸ":{"ha":1001,"x_min":0,"x_max":0,"o":"m 967 153 b 893 225 942 165 925 178 b 746 488 814 344 769 438 b 881 547 800 521 832 536 b 969 629 926 557 969 572 b 746 728 969 692 897 728 b 510 628 571 728 510 689 b 557 565 510 588 539 575 b 586 536 576 556 586 551 b 497 453 586 518 546 485 b 439 417 478 440 458 428 l 439 563 b 346 728 439 672 438 728 b 72 649 281 728 144 697 b 35 586 46 631 35 611 b 72 522 35 556 53 538 b 97 467 85 513 97 499 l 97 203 b 79 153 97 182 97 168 b 39 88 64 140 39 126 b 268 -12 39 10 139 -12 b 485 83 397 -12 485 10 b 454 147 485 119 464 133 b 439 203 439 168 439 185 l 439 282 b 482 314 453 293 468 304 b 615 53 510 247 583 100 b 800 -12 647 3 682 -12 b 1018 85 933 -12 1018 21 b 967 153 1018 126 992 140 z "},"l":{"ha":515,"x_min":0,"x_max":0,"o":"m 258 -12 b 488 88 388 -12 488 10 b 447 153 488 124 467 138 b 429 203 435 163 429 172 l 429 722 l 429 872 b 331 1040 429 983 428 1040 b 40 960 261 1040 115 1011 b 1 896 13 942 1 921 b 51 822 1 860 26 842 b 88 750 68 810 88 792 l 88 203 b 68 153 88 172 81 163 b 25 88 47 138 25 124 b 258 -12 25 10 126 -12 z "},"ĺ":{"ha":515,"x_min":0,"x_max":0,"o":"m 188 1068 b 276 1096 219 1068 246 1079 b 444 1200 333 1126 393 1161 b 515 1290 493 1236 515 1258 b 386 1336 515 1322 493 1336 b 249 1286 307 1336 276 1319 b 146 1142 217 1247 176 1194 b 133 1106 136 1125 133 1115 b 188 1068 133 1086 153 1068 z m 258 -12 b 488 88 388 -12 488 10 b 447 153 488 124 467 138 b 429 203 435 163 429 172 l 429 722 l 429 872 b 331 1040 429 983 428 1040 b 40 960 261 1040 115 1011 b 1 896 13 942 1 921 b 51 822 1 860 26 842 b 88 750 68 810 88 792 l 88 203 b 68 153 88 172 81 163 b 25 88 47 138 25 124 b 258 -12 25 10 126 -12 z "},"ľ":{"ha":515,"x_min":0,"x_max":0,"o":"m 258 -12 b 488 88 388 -12 488 10 b 447 153 488 124 467 138 b 429 203 435 163 429 172 l 429 722 l 429 872 b 331 1040 429 983 428 1040 b 40 960 261 1040 115 1011 b 1 896 13 942 1 921 b 51 822 1 860 26 842 b 88 750 68 810 88 792 l 88 203 b 68 153 88 172 81 163 b 25 88 47 138 25 124 b 258 -12 25 10 126 -12 z m 542 624 b 608 682 571 624 593 649 b 675 953 638 746 675 867 b 549 1038 675 1010 618 1038 b 489 950 501 1038 489 1000 l 489 689 b 542 624 489 643 508 624 z "},"ļ":{"ha":515,"x_min":0,"x_max":0,"o":"m 258 -12 b 488 88 388 -12 488 10 b 447 153 488 124 467 138 b 429 203 435 163 429 172 l 429 722 l 429 872 b 331 1040 429 983 428 1040 b 40 960 261 1040 115 1011 b 1 896 13 942 1 921 b 51 822 1 860 26 842 b 88 750 68 810 88 792 l 88 203 b 68 153 88 172 81 163 b 25 88 47 138 25 124 b 258 -12 25 10 126 -12 z m 197 -367 b 375 -161 264 -367 375 -262 b 256 -42 375 -99 333 -42 b 140 -126 200 -42 140 -71 b 186 -193 140 -156 157 -176 b 217 -228 203 -203 217 -211 b 181 -287 217 -247 200 -268 b 156 -332 167 -301 156 -315 b 197 -367 156 -353 174 -367 z "},"ŀ":{"ha":660,"x_min":0,"x_max":0,"o":"m 258 -12 b 488 88 388 -12 488 10 b 447 153 488 124 467 138 b 429 203 435 163 429 172 l 429 722 l 429 872 b 331 1040 429 983 428 1040 b 40 960 261 1040 115 1011 b 1 896 13 942 1 921 b 51 822 1 860 26 842 b 88 750 68 810 88 792 l 88 203 b 68 153 88 172 81 163 b 25 88 47 138 25 124 b 258 -12 25 10 126 -12 z m 588 407 b 713 536 657 407 713 465 b 588 667 713 608 657 667 b 464 536 519 667 464 608 b 588 407 464 465 519 407 z "},"ł":{"ha":613,"x_min":0,"x_max":0,"o":"m 540 701 b 506 692 531 701 519 699 l 474 675 l 474 722 l 474 872 b 375 1040 474 983 472 1040 b 85 960 306 1040 160 1011 b 46 896 57 942 46 921 b 96 822 46 860 71 842 b 132 750 113 810 132 792 l 132 503 l 50 461 b 13 413 24 449 13 431 b 74 336 13 367 49 336 b 108 346 83 336 94 339 l 132 358 l 132 203 b 113 153 132 172 125 163 b 69 88 92 138 69 124 b 303 -12 69 10 171 -12 b 532 88 432 -12 532 10 b 492 153 532 124 511 138 b 474 203 479 163 474 172 l 474 531 l 565 576 b 601 625 590 589 601 606 b 540 701 601 668 568 701 z "},"m":{"ha":1458,"x_min":0,"x_max":0,"o":"m 1399 153 b 1381 203 1386 163 1381 172 l 1381 476 b 1160 733 1381 636 1301 733 b 899 574 1032 733 944 660 b 689 733 871 675 799 733 b 439 576 567 733 483 661 b 346 728 439 676 433 728 b 72 649 281 728 143 699 b 35 586 46 631 35 611 b 72 522 35 556 53 538 b 97 467 85 513 97 499 l 97 203 b 79 153 97 172 92 163 b 39 88 60 138 39 124 b 268 -12 39 10 139 -12 b 485 83 397 -12 485 10 b 454 147 485 119 464 133 b 439 203 439 169 439 188 l 439 360 b 503 511 440 476 461 511 b 568 335 547 511 568 472 l 568 203 b 553 147 568 186 568 167 b 522 83 542 133 522 119 b 739 -12 522 10 610 -12 b 956 83 868 -12 956 10 b 925 147 956 119 935 133 b 910 203 910 169 910 188 l 910 360 b 974 511 911 476 932 511 b 1039 335 1018 511 1039 472 l 1039 203 b 1024 147 1039 186 1039 167 b 993 83 1013 133 993 119 b 1210 -12 993 10 1081 -12 b 1439 88 1339 -12 1439 10 b 1399 153 1439 124 1418 138 z "},"n":{"ha":988,"x_min":0,"x_max":0,"o":"m 928 153 b 910 203 910 168 910 182 l 910 476 b 689 733 910 636 831 733 b 439 576 565 733 483 661 b 346 728 439 676 433 728 b 72 649 281 728 143 699 b 35 586 46 631 35 611 b 72 522 35 556 53 538 b 97 467 85 513 97 499 l 97 203 b 79 153 97 182 97 168 b 39 88 64 140 39 126 b 268 -12 39 10 139 -12 b 485 83 397 -12 485 10 b 454 147 485 119 464 133 b 439 203 439 168 439 185 l 439 360 b 503 511 440 476 461 511 b 568 335 547 511 568 472 l 568 203 b 553 147 568 185 568 168 b 522 83 543 133 522 119 b 739 -12 522 10 610 -12 b 968 88 868 -12 968 10 b 928 153 968 126 943 140 z "},"ń":{"ha":988,"x_min":0,"x_max":0,"o":"m 404 769 b 493 797 436 769 463 781 b 661 901 550 828 610 863 b 732 992 710 938 732 960 b 603 1038 732 1024 710 1038 b 465 988 524 1038 493 1021 b 363 843 433 949 393 896 b 350 807 353 826 350 817 b 404 769 350 788 369 769 z m 928 153 b 910 203 910 168 910 182 l 910 476 b 689 733 910 636 831 733 b 439 576 565 733 483 661 b 346 728 439 676 433 728 b 72 649 281 728 143 699 b 35 586 46 631 35 611 b 72 522 35 556 53 538 b 97 467 85 513 97 499 l 97 203 b 79 153 97 182 97 168 b 39 88 64 140 39 126 b 268 -12 39 10 139 -12 b 485 83 397 -12 485 10 b 454 147 485 119 464 133 b 439 203 439 168 439 185 l 439 360 b 503 511 440 476 461 511 b 568 335 547 511 568 472 l 568 203 b 553 147 568 185 568 168 b 522 83 543 133 522 119 b 739 -12 522 10 610 -12 b 968 88 868 -12 968 10 b 928 153 968 126 943 140 z "},"ň":{"ha":988,"x_min":0,"x_max":0,"o":"m 346 836 b 481 786 383 803 414 786 b 615 836 547 786 578 803 b 713 954 647 865 689 917 b 732 1006 726 976 732 993 b 679 1047 732 1028 717 1047 b 590 1018 651 1047 624 1036 b 481 942 550 997 515 971 b 371 1018 446 971 411 997 b 282 1047 338 1036 310 1047 b 229 1006 244 1047 229 1028 b 249 954 229 993 235 976 b 346 836 272 917 311 868 z m 928 153 b 910 203 910 168 910 182 l 910 476 b 689 733 910 636 831 733 b 439 576 565 733 483 661 b 346 728 439 676 433 728 b 72 649 281 728 143 699 b 35 586 46 631 35 611 b 72 522 35 556 53 538 b 97 467 85 513 97 499 l 97 203 b 79 153 97 182 97 168 b 39 88 64 140 39 126 b 268 -12 39 10 139 -12 b 485 83 397 -12 485 10 b 454 147 485 119 464 133 b 439 203 439 168 439 185 l 439 360 b 503 511 440 476 461 511 b 568 335 547 511 568 472 l 568 203 b 553 147 568 185 568 168 b 522 83 543 133 522 119 b 739 -12 522 10 610 -12 b 968 88 868 -12 968 10 b 928 153 968 126 943 140 z "},"ņ":{"ha":988,"x_min":0,"x_max":0,"o":"m 928 153 b 910 203 910 168 910 182 l 910 476 b 689 733 910 636 831 733 b 439 576 565 733 483 661 b 346 728 439 676 433 728 b 72 649 281 728 143 699 b 35 586 46 631 35 611 b 72 522 35 556 53 538 b 97 467 85 513 97 499 l 97 203 b 79 153 97 182 97 168 b 39 88 64 140 39 126 b 268 -12 39 10 139 -12 b 485 83 397 -12 485 10 b 454 147 485 119 464 133 b 439 203 439 168 439 185 l 439 360 b 503 511 440 476 461 511 b 568 335 547 511 568 472 l 568 203 b 553 147 568 185 568 168 b 522 83 543 133 522 119 b 739 -12 522 10 610 -12 b 968 88 868 -12 968 10 b 928 153 968 126 943 140 z m 507 -42 b 392 -126 451 -42 392 -71 b 438 -193 392 -156 408 -176 b 468 -228 454 -203 468 -211 b 432 -287 468 -247 451 -268 b 407 -332 418 -301 407 -315 b 449 -367 407 -353 425 -367 b 626 -161 515 -367 626 -262 b 507 -42 626 -99 585 -42 z "},"ŋ":{"ha":968,"x_min":0,"x_max":0,"o":"m 689 733 b 439 576 565 733 483 661 b 346 728 439 676 433 728 b 72 649 281 728 143 699 b 35 586 46 631 35 611 b 72 522 35 556 53 538 b 97 467 85 513 97 499 l 97 203 b 79 153 97 182 97 168 b 39 88 64 140 39 126 b 268 -12 39 10 139 -12 b 485 83 397 -12 485 10 b 454 147 485 119 464 133 b 439 203 439 168 439 185 l 439 360 b 503 511 440 476 461 511 b 568 335 547 511 568 472 l 567 8 b 425 -192 565 -129 425 -110 b 550 -264 425 -246 486 -264 b 910 54 707 -264 910 -189 l 910 476 b 689 733 910 636 831 733 z "},"ñ":{"ha":988,"x_min":0,"x_max":0,"o":"m 272 796 b 346 846 301 796 321 814 b 379 874 360 864 367 874 b 554 782 408 874 440 782 b 706 889 633 782 681 833 b 719 958 717 914 719 940 b 674 1017 719 992 699 1017 b 600 967 644 1017 625 999 b 567 939 586 949 579 939 b 392 1031 538 939 506 1031 b 240 924 313 1031 265 979 b 226 854 229 899 226 872 b 272 796 226 821 247 796 z m 928 153 b 910 203 910 168 910 182 l 910 476 b 689 733 910 636 831 733 b 439 576 565 733 483 661 b 346 728 439 676 433 728 b 72 649 281 728 143 699 b 35 586 46 631 35 611 b 72 522 35 556 53 538 b 97 467 85 513 97 499 l 97 203 b 79 153 97 182 97 168 b 39 88 64 140 39 126 b 268 -12 39 10 139 -12 b 485 83 397 -12 485 10 b 454 147 485 119 464 133 b 439 203 439 168 439 185 l 439 360 b 503 511 440 476 461 511 b 568 335 547 511 568 472 l 568 203 b 553 147 568 185 568 168 b 522 83 543 133 522 119 b 739 -12 522 10 610 -12 b 968 88 868 -12 968 10 b 928 153 968 126 943 140 z "},"o":{"ha":914,"x_min":0,"x_max":0,"o":"m 431 -22 b 890 364 703 -22 890 133 b 486 738 890 582 731 738 b 24 350 210 738 24 579 b 431 -22 24 132 183 -22 z m 507 115 b 356 518 426 115 356 383 b 408 600 356 569 374 600 b 558 196 488 600 558 329 b 507 115 558 144 540 115 z "},"ó":{"ha":914,"x_min":0,"x_max":0,"o":"m 374 769 b 463 797 406 769 432 781 b 631 901 519 828 579 863 b 701 992 679 938 701 960 b 572 1038 701 1024 679 1038 b 435 988 493 1038 463 1021 b 332 843 403 949 363 896 b 319 807 322 826 319 817 b 374 769 319 788 339 769 z m 431 -22 b 890 364 703 -22 890 133 b 486 738 890 582 731 738 b 24 350 210 738 24 579 b 431 -22 24 132 183 -22 z m 507 115 b 356 518 426 115 356 383 b 408 600 356 569 374 600 b 558 196 488 600 558 329 b 507 115 558 144 540 115 z "},"ŏ":{"ha":914,"x_min":0,"x_max":0,"o":"m 442 782 b 668 913 551 782 626 836 b 688 996 685 943 689 964 b 636 1047 686 1031 663 1047 b 547 990 601 1047 581 1025 b 442 939 519 961 485 939 b 338 989 403 939 365 960 b 247 1047 304 1024 285 1047 b 196 993 217 1047 197 1025 b 215 913 194 967 204 933 b 442 782 251 847 319 782 z m 431 -22 b 890 364 703 -22 890 133 b 486 738 890 582 731 738 b 24 350 210 738 24 579 b 431 -22 24 132 183 -22 z m 507 115 b 356 518 426 115 356 383 b 408 600 356 569 374 600 b 558 196 488 600 558 329 b 507 115 558 144 540 115 z "},"ô":{"ha":914,"x_min":0,"x_max":0,"o":"m 251 779 b 340 808 279 779 307 790 b 450 885 381 829 415 856 b 560 808 485 856 519 829 b 649 779 593 790 621 779 b 701 821 686 779 701 799 b 682 872 701 833 696 850 b 585 990 658 910 619 958 b 450 1040 547 1024 517 1040 b 315 990 383 1040 353 1024 b 218 872 283 961 242 910 b 199 821 204 850 199 833 b 251 779 199 799 214 779 z m 486 738 b 24 350 210 738 24 579 b 431 -22 24 132 183 -22 b 890 364 703 -22 890 133 b 486 738 890 582 731 738 z m 507 115 b 356 518 426 115 356 383 b 408 600 356 569 374 600 b 558 196 488 600 558 329 b 507 115 558 144 540 115 z "},"ö":{"ha":914,"x_min":0,"x_max":0,"o":"m 297 785 b 406 896 357 785 406 835 b 297 1008 406 958 357 1008 b 190 896 238 1008 190 958 b 297 785 190 835 238 785 z m 585 785 b 693 896 644 785 693 835 b 585 1008 693 958 644 1008 b 478 896 525 1008 478 958 b 585 785 478 835 525 785 z m 431 -22 b 890 364 703 -22 890 133 b 486 738 890 582 731 738 b 24 350 210 738 24 579 b 431 -22 24 132 183 -22 z m 507 115 b 356 518 426 115 356 383 b 408 600 356 569 374 600 b 558 196 488 600 558 329 b 507 115 558 144 540 115 z "},"ò":{"ha":914,"x_min":0,"x_max":0,"o":"m 503 769 b 557 807 538 769 557 788 b 544 843 557 817 554 826 b 442 988 514 896 474 949 b 304 1038 414 1021 383 1038 b 175 992 197 1038 175 1024 b 246 901 175 960 197 938 b 414 797 297 863 357 828 b 503 769 444 781 471 769 z m 431 -22 b 890 364 703 -22 890 133 b 486 738 890 582 731 738 b 24 350 210 738 24 579 b 431 -22 24 132 183 -22 z m 507 115 b 356 518 426 115 356 383 b 408 600 356 569 374 600 b 558 196 488 600 558 329 b 507 115 558 144 540 115 z "},"ő":{"ha":914,"x_min":0,"x_max":0,"o":"m 285 769 b 364 804 311 769 336 785 b 481 901 407 835 442 863 b 532 986 514 935 532 956 b 443 1038 532 1017 517 1038 b 324 988 367 1038 344 1019 b 249 847 297 947 272 906 b 240 810 243 833 240 821 b 285 769 240 788 258 769 z m 543 769 b 622 804 569 769 594 785 b 739 901 665 835 700 863 b 790 986 772 935 790 956 b 701 1038 790 1017 775 1038 b 582 988 625 1038 603 1019 b 507 847 556 947 531 906 b 499 810 501 833 499 821 b 543 769 499 788 517 769 z m 431 -22 b 890 364 703 -22 890 133 b 486 738 890 582 731 738 b 24 350 210 738 24 579 b 431 -22 24 132 183 -22 z m 507 115 b 356 518 426 115 356 383 b 408 600 356 569 374 600 b 558 196 488 600 558 329 b 507 115 558 144 540 115 z "},"ō":{"ha":914,"x_min":0,"x_max":0,"o":"m 244 817 b 439 824 307 817 379 824 b 618 819 496 824 574 819 b 692 921 672 819 692 874 b 640 979 692 953 681 979 b 446 971 579 979 507 971 b 265 975 383 971 313 975 b 192 875 211 975 192 919 b 244 817 192 842 203 817 z m 431 -22 b 890 364 703 -22 890 133 b 486 738 890 582 731 738 b 24 350 210 738 24 579 b 431 -22 24 132 183 -22 z m 507 115 b 356 518 426 115 356 383 b 408 600 356 569 374 600 b 558 196 488 600 558 329 b 507 115 558 144 540 115 z "},"ø":{"ha":929,"x_min":0,"x_max":0,"o":"m 829 586 l 871 622 b 894 664 888 636 894 650 b 828 735 894 693 857 735 b 781 713 814 735 799 728 l 735 674 b 494 738 671 714 589 738 b 32 350 218 738 32 579 b 100 131 32 265 56 192 l 57 94 b 33 53 40 81 33 67 b 100 -17 33 22 71 -17 b 147 4 115 -17 131 -10 l 193 43 b 439 -22 258 1 342 -22 b 899 364 711 -22 899 133 b 829 586 899 450 874 525 z m 417 600 b 515 467 453 600 488 542 l 385 356 b 364 518 372 415 364 474 b 417 600 364 569 382 600 z m 515 115 b 414 251 478 115 442 175 l 544 363 b 567 196 558 301 567 240 b 515 115 567 144 549 115 z "},"õ":{"ha":914,"x_min":0,"x_max":0,"o":"m 524 782 b 675 889 603 782 650 833 b 689 958 686 914 689 940 b 643 1017 689 992 668 1017 b 569 967 614 1017 594 999 b 536 939 556 949 549 939 b 361 1031 507 939 475 1031 b 210 924 282 1031 235 979 b 196 854 199 899 196 872 b 242 796 196 821 217 796 b 315 846 271 796 290 814 b 349 874 329 864 336 874 b 524 782 378 874 410 782 z m 431 -22 b 890 364 703 -22 890 133 b 486 738 890 582 731 738 b 24 350 210 738 24 579 b 431 -22 24 132 183 -22 z m 507 115 b 356 518 426 115 356 383 b 408 600 356 569 374 600 b 558 196 488 600 558 329 b 507 115 558 144 540 115 z "},"œ":{"ha":1322,"x_min":0,"x_max":0,"o":"m 1243 308 b 1185 289 1224 308 1204 300 b 1043 253 1143 265 1100 253 b 864 367 951 253 889 294 l 1156 367 b 1292 482 1244 367 1292 407 b 979 733 1292 592 1171 733 b 733 656 881 733 799 710 b 471 738 663 713 569 738 b 24 350 210 738 24 579 b 422 -22 24 132 183 -22 b 707 61 531 -22 631 1 b 956 -22 769 3 854 -22 b 1247 117 1088 -22 1190 42 b 1296 240 1278 157 1296 201 b 1243 308 1296 288 1274 308 z m 961 604 b 1031 538 1006 604 1031 575 b 910 456 1031 493 996 461 l 850 451 b 961 604 850 539 896 604 z m 507 115 b 356 518 426 115 356 383 b 408 600 356 569 374 600 b 558 196 488 600 558 329 b 507 115 558 144 540 115 z "},"p":{"ha":949,"x_min":0,"x_max":0,"o":"m 658 733 b 428 596 560 733 472 676 b 335 728 426 682 417 728 b 61 649 269 728 133 697 b 24 586 35 631 24 611 b 61 522 24 554 42 538 b 86 467 74 513 86 497 l 86 -57 b 65 -108 86 -87 82 -94 b 22 -178 46 -125 22 -142 b 257 -276 22 -254 132 -276 b 496 -178 383 -276 496 -254 b 450 -107 496 -140 471 -124 b 428 -57 431 -93 428 -82 l 428 8 b 582 -18 472 -8 529 -18 b 922 374 775 -18 922 131 b 658 733 922 585 814 733 z m 492 108 b 418 303 446 108 418 150 b 493 521 418 457 446 521 b 571 313 538 521 571 465 b 492 108 571 160 538 108 z "},"þ":{"ha":929,"x_min":0,"x_max":0,"o":"m 639 733 b 408 592 538 733 451 675 l 408 722 l 408 872 b 310 1040 408 983 407 1040 b 19 960 240 1040 96 1010 b -19 896 -8 942 -19 921 b 31 822 -19 860 6 842 b 67 750 47 810 67 792 l 67 -57 b 46 -108 67 -87 63 -94 b 3 -178 26 -125 3 -142 b 238 -276 3 -254 113 -276 b 476 -178 364 -276 476 -254 b 431 -107 476 -140 451 -124 b 408 -57 411 -93 408 -82 l 408 8 b 563 -18 453 -8 510 -18 b 903 374 756 -18 903 131 b 639 733 903 585 794 733 z m 472 108 b 399 303 426 108 399 150 b 474 521 399 457 426 521 b 551 313 518 521 551 465 b 472 108 551 160 518 108 z "},"q":{"ha":932,"x_min":0,"x_max":0,"o":"m 885 -110 b 864 -58 868 -96 864 -89 l 864 444 b 872 667 864 592 872 635 b 797 728 872 706 860 728 b 646 681 743 728 696 713 b 422 733 582 711 506 733 b 25 346 206 733 25 600 b 317 -18 25 132 140 -18 b 522 90 410 -18 479 26 l 522 -58 b 497 -108 522 -81 522 -93 b 449 -179 472 -124 449 -142 b 693 -278 449 -256 564 -278 b 928 -179 818 -278 928 -256 b 885 -110 928 -143 904 -126 z m 453 178 b 378 392 407 178 378 229 b 454 601 378 551 407 601 b 529 392 503 601 529 547 b 453 178 529 240 504 178 z "},"r":{"ha":793,"x_min":0,"x_max":0,"o":"m 638 738 b 439 571 546 738 479 668 b 346 728 439 675 435 728 b 72 649 281 728 143 699 b 35 586 46 631 35 611 b 72 522 35 556 53 538 b 97 467 85 513 97 499 l 97 203 b 79 153 97 172 92 163 b 39 88 60 138 39 124 b 268 -12 39 10 139 -12 b 515 85 406 -12 515 10 b 463 157 515 124 489 140 b 439 208 446 168 439 178 l 439 410 l 439 421 b 461 457 439 431 440 457 b 511 424 476 457 492 440 b 639 372 538 400 581 372 b 794 554 736 372 794 447 b 638 738 794 669 728 738 z "},"ŕ":{"ha":793,"x_min":0,"x_max":0,"o":"m 339 769 b 428 797 371 769 397 781 b 596 901 485 828 544 863 b 667 992 644 938 667 960 b 538 1038 667 1024 644 1038 b 400 988 458 1038 428 1021 b 297 843 368 949 328 896 b 285 807 288 826 285 817 b 339 769 285 788 304 769 z m 638 738 b 439 571 546 738 479 668 b 346 728 439 675 435 728 b 72 649 281 728 143 699 b 35 586 46 631 35 611 b 72 522 35 556 53 538 b 97 467 85 513 97 499 l 97 203 b 79 153 97 172 92 163 b 39 88 60 138 39 124 b 268 -12 39 10 139 -12 b 515 85 406 -12 515 10 b 463 157 515 124 489 140 b 439 208 446 168 439 178 l 439 410 l 439 421 b 461 457 439 431 440 457 b 511 424 476 457 492 440 b 639 372 538 400 581 372 b 794 554 736 372 794 447 b 638 738 794 669 728 738 z "},"ř":{"ha":793,"x_min":0,"x_max":0,"o":"m 281 836 b 415 786 318 803 349 786 b 550 836 482 786 513 803 b 647 954 582 865 624 917 b 667 1006 661 976 667 993 b 614 1047 667 1028 651 1047 b 525 1018 586 1047 558 1036 b 415 942 485 997 450 971 b 306 1018 381 971 346 997 b 217 1047 272 1036 244 1047 b 164 1006 179 1047 164 1028 b 183 954 164 993 169 976 b 281 836 207 917 246 868 z m 638 738 b 439 571 546 738 479 668 b 346 728 439 675 435 728 b 72 649 281 728 143 699 b 35 586 46 631 35 611 b 72 522 35 556 53 538 b 97 467 85 513 97 499 l 97 203 b 79 153 97 172 92 163 b 39 88 60 138 39 124 b 268 -12 39 10 139 -12 b 515 85 406 -12 515 10 b 463 157 515 124 489 140 b 439 208 446 168 439 178 l 439 410 l 439 421 b 461 457 439 431 440 457 b 511 424 476 457 492 440 b 639 372 538 400 581 372 b 794 554 736 372 794 447 b 638 738 794 669 728 738 z "},"ŗ":{"ha":793,"x_min":0,"x_max":0,"o":"m 638 738 b 439 571 546 738 479 668 b 346 728 439 675 435 728 b 72 649 281 728 143 699 b 35 586 46 631 35 611 b 72 522 35 556 53 538 b 97 467 85 513 97 499 l 97 203 b 79 153 97 172 92 163 b 39 88 60 138 39 124 b 268 -12 39 10 139 -12 b 515 85 406 -12 515 10 b 463 157 515 124 489 140 b 439 208 446 168 439 178 l 439 410 l 439 421 b 461 457 439 431 440 457 b 511 424 476 457 492 440 b 639 372 538 400 581 372 b 794 554 736 372 794 447 b 638 738 794 669 728 738 z m 282 -42 b 167 -126 226 -42 167 -71 b 213 -193 167 -156 183 -176 b 243 -228 229 -203 243 -211 b 207 -287 243 -247 226 -268 b 182 -332 193 -301 182 -315 b 224 -367 182 -353 200 -367 b 401 -161 290 -367 401 -262 b 282 -42 401 -99 360 -42 z "},"s":{"ha":790,"x_min":0,"x_max":0,"o":"m 482 497 b 375 565 396 524 375 539 b 432 606 375 588 393 606 b 583 522 475 606 535 579 b 672 468 614 490 638 468 b 747 554 706 468 747 489 b 610 740 747 635 683 740 b 546 693 579 740 556 722 b 358 738 492 724 422 738 b 42 476 178 738 42 631 b 314 229 42 336 169 282 b 425 154 401 197 425 182 b 367 111 425 131 407 111 b 189 221 321 111 258 139 b 100 278 163 251 139 278 b 28 185 63 278 28 247 b 182 -24 28 93 93 -24 b 250 24 217 -24 240 -6 b 444 -21 306 -7 375 -21 b 763 235 626 -21 763 86 b 482 497 763 399 600 461 z "},"ś":{"ha":790,"x_min":0,"x_max":0,"o":"m 303 769 b 392 797 335 769 361 781 b 560 901 449 828 508 863 b 631 992 608 938 631 960 b 501 1038 631 1024 608 1038 b 364 988 422 1038 392 1021 b 261 843 332 949 292 896 b 249 807 251 826 249 817 b 303 769 249 788 268 769 z m 482 497 b 375 565 396 524 375 539 b 432 606 375 588 393 606 b 583 522 475 606 535 579 b 672 468 614 490 638 468 b 747 554 706 468 747 489 b 610 740 747 635 683 740 b 546 693 579 740 556 722 b 358 738 492 724 422 738 b 42 476 178 738 42 631 b 314 229 42 336 169 282 b 425 154 401 197 425 182 b 367 111 425 131 407 111 b 189 221 321 111 258 139 b 100 278 163 251 139 278 b 28 185 63 278 28 247 b 182 -24 28 93 93 -24 b 250 24 217 -24 240 -6 b 444 -21 306 -7 375 -21 b 763 235 626 -21 763 86 b 482 497 763 399 600 461 z "},"š":{"ha":790,"x_min":0,"x_max":0,"o":"m 244 836 b 379 786 282 803 313 786 b 514 836 446 786 476 803 b 611 954 546 865 588 917 b 631 1006 625 976 631 993 b 578 1047 631 1028 615 1047 b 489 1018 550 1047 522 1036 b 379 942 449 997 414 971 b 269 1018 344 971 310 997 b 181 1047 236 1036 208 1047 b 128 1006 143 1047 128 1028 b 147 954 128 993 133 976 b 244 836 171 917 210 868 z m 482 497 b 375 565 396 524 375 539 b 432 606 375 588 393 606 b 583 522 475 606 535 579 b 672 468 614 490 638 468 b 747 554 706 468 747 489 b 610 740 747 635 683 740 b 546 693 579 740 556 722 b 358 738 492 724 422 738 b 42 476 178 738 42 631 b 314 229 42 336 169 282 b 425 154 401 197 425 182 b 367 111 425 131 407 111 b 189 221 321 111 258 139 b 100 278 163 251 139 278 b 28 185 63 278 28 247 b 182 -24 28 93 93 -24 b 250 24 217 -24 240 -6 b 444 -21 306 -7 375 -21 b 763 235 626 -21 763 86 b 482 497 763 399 600 461 z "},"ş":{"ha":790,"x_min":0,"x_max":0,"o":"m 444 -21 b 763 235 626 -21 763 86 b 482 497 763 399 600 461 b 375 565 396 524 375 539 b 432 606 375 588 393 606 b 583 522 475 606 535 579 b 672 468 614 490 638 468 b 747 554 706 468 747 489 b 610 740 747 635 683 740 b 546 693 579 740 556 722 b 358 738 492 724 422 738 b 42 476 178 738 42 631 b 314 229 42 336 169 282 b 425 154 401 197 425 182 b 367 111 425 131 407 111 b 189 221 321 111 258 139 b 100 278 163 251 139 278 b 28 185 63 278 28 247 b 182 -24 28 93 93 -24 b 250 24 217 -24 240 -6 b 339 -10 276 10 307 -1 l 310 -111 b 376 -164 319 -131 354 -158 b 440 -149 397 -156 421 -149 b 489 -169 474 -149 489 -156 b 436 -193 489 -183 469 -193 b 349 -175 403 -193 374 -183 b 310 -165 333 -169 319 -165 b 271 -203 289 -165 271 -182 b 307 -249 271 -221 285 -236 b 453 -281 344 -269 406 -281 b 639 -157 567 -281 639 -232 b 478 -43 639 -90 574 -43 b 431 -47 461 -43 446 -44 l 438 -21 z "},"ŝ":{"ha":790,"x_min":0,"x_max":0,"o":"m 181 779 b 269 808 208 779 236 790 b 379 885 310 829 344 856 b 489 808 414 856 449 829 b 578 779 522 790 550 779 b 631 821 615 779 631 799 b 611 872 631 833 625 850 b 514 990 588 910 549 958 b 379 1040 476 1024 446 1040 b 244 990 313 1040 282 1024 b 147 872 213 961 171 910 b 128 821 133 850 128 833 b 181 779 128 799 143 779 z m 482 497 b 375 565 396 524 375 539 b 432 606 375 588 393 606 b 583 522 475 606 535 579 b 672 468 614 490 638 468 b 747 554 706 468 747 489 b 610 740 747 635 683 740 b 546 693 579 740 556 722 b 358 738 492 724 422 738 b 42 476 178 738 42 631 b 314 229 42 336 169 282 b 425 154 401 197 425 182 b 367 111 425 131 407 111 b 189 221 321 111 258 139 b 100 278 163 251 139 278 b 28 185 63 278 28 247 b 182 -24 28 93 93 -24 b 250 24 217 -24 240 -6 b 444 -21 306 -7 375 -21 b 763 235 626 -21 763 86 b 482 497 763 399 600 461 z "},"ș":{"ha":790,"x_min":0,"x_max":0,"o":"m 482 497 b 375 565 396 524 375 539 b 432 606 375 588 393 606 b 583 522 475 606 535 579 b 672 468 614 490 638 468 b 747 554 706 468 747 489 b 610 740 747 635 683 740 b 546 693 579 740 556 722 b 358 738 492 724 422 738 b 42 476 178 738 42 631 b 314 229 42 336 169 282 b 425 154 401 197 425 182 b 367 111 425 131 407 111 b 189 221 321 111 258 139 b 100 278 163 251 139 278 b 28 185 63 278 28 247 b 182 -24 28 93 93 -24 b 250 24 217 -24 240 -6 b 444 -21 306 -7 375 -21 b 763 235 626 -21 763 86 b 482 497 763 399 600 461 z m 451 -42 b 336 -126 396 -42 336 -71 b 382 -193 336 -156 353 -176 b 413 -228 399 -203 413 -211 b 376 -287 413 -247 396 -268 b 351 -332 363 -301 351 -315 b 393 -367 351 -353 369 -367 b 571 -161 460 -367 571 -262 b 451 -42 571 -99 529 -42 z "},"ß":{"ha":1125,"x_min":0,"x_max":0,"o":"m 935 486 b 769 617 847 539 769 568 b 826 701 769 650 797 675 b 903 831 863 733 903 769 b 536 1050 903 964 725 1050 b 64 649 226 1050 64 876 l 64 203 b 44 153 64 172 57 163 b 1 88 24 138 1 124 b 235 -12 1 10 103 -12 b 464 89 371 -12 464 10 b 426 153 464 119 447 138 b 410 203 413 163 410 172 l 408 732 b 533 901 408 842 457 901 b 638 788 590 901 638 864 b 575 642 638 726 607 683 b 508 481 542 597 508 553 b 629 297 508 408 542 349 b 800 158 781 208 800 197 b 747 114 800 128 767 114 b 631 203 701 114 671 139 b 554 271 611 233 590 271 b 496 178 519 271 496 242 b 621 -21 496 83 544 -21 b 679 26 650 -21 671 0 b 849 -22 729 -7 790 -22 b 1111 225 1003 -22 1111 104 b 935 486 1111 358 1036 425 z "},"t":{"ha":650,"x_min":0,"x_max":0,"o":"m 590 247 b 481 206 553 247 526 206 b 440 283 457 206 440 217 l 440 539 l 571 539 b 633 613 619 539 633 561 b 571 685 633 663 619 685 l 440 685 l 440 790 b 376 868 440 840 418 868 b 181 778 333 868 250 822 b 15 608 106 729 15 660 b 99 539 15 553 65 540 l 99 197 b 333 -17 99 65 181 -17 b 640 185 514 -17 640 111 b 590 247 640 228 618 247 z "},"ŧ":{"ha":651,"x_min":0,"x_max":0,"o":"m 590 247 b 481 206 553 247 526 206 b 440 283 457 206 440 217 l 440 319 l 513 319 b 575 388 561 319 575 346 b 513 456 575 428 561 456 l 440 456 l 440 539 l 571 539 b 633 613 619 539 633 561 b 571 685 633 663 619 685 l 440 685 l 440 790 b 376 868 440 840 418 868 b 181 778 333 868 250 822 b 15 608 106 729 15 660 b 99 539 15 553 65 540 l 99 456 l 71 456 b 8 388 22 456 8 428 b 71 319 8 346 22 319 l 99 319 l 99 197 b 333 -17 99 65 181 -17 b 640 185 514 -17 640 111 b 590 247 640 228 618 247 z "},"ť":{"ha":650,"x_min":0,"x_max":0,"o":"m 543 724 b 610 782 572 724 594 749 b 676 1053 639 846 676 967 b 550 1138 676 1110 619 1138 b 490 1050 503 1138 490 1100 l 490 789 b 543 724 490 743 510 724 z m 590 247 b 481 206 553 247 526 206 b 440 283 457 206 440 217 l 440 539 l 571 539 b 633 613 619 539 633 561 b 571 685 633 663 619 685 l 440 685 l 440 790 b 376 868 440 840 418 868 b 181 778 333 868 250 822 b 15 608 106 729 15 660 b 99 539 15 553 65 540 l 99 197 b 333 -17 99 65 181 -17 b 640 185 514 -17 640 111 b 590 247 640 228 618 247 z "},"ţ":{"ha":650,"x_min":0,"x_max":0,"o":"m 590 247 b 481 206 553 247 526 206 b 440 283 457 206 440 217 l 440 539 l 571 539 b 633 613 619 539 633 561 b 571 685 633 663 619 685 l 440 685 l 440 790 b 376 868 440 840 418 868 b 181 778 333 868 250 822 b 15 608 106 729 15 660 b 99 539 15 553 65 540 l 99 197 b 333 -17 99 65 181 -17 b 640 185 514 -17 640 111 b 590 247 640 228 618 247 z m 343 -42 b 228 -126 288 -42 228 -71 b 274 -193 228 -156 244 -176 b 304 -228 290 -203 304 -211 b 268 -287 304 -247 288 -268 b 243 -332 254 -301 243 -315 b 285 -367 243 -353 261 -367 b 463 -161 351 -367 463 -262 b 343 -42 463 -99 421 -42 z "},"ț":{"ha":650,"x_min":0,"x_max":0,"o":"m 590 247 b 481 206 553 247 526 206 b 440 283 457 206 440 217 l 440 539 l 571 539 b 633 613 619 539 633 561 b 571 685 633 663 619 685 l 440 685 l 440 790 b 376 868 440 840 418 868 b 181 778 333 868 250 822 b 15 608 106 729 15 660 b 99 539 15 553 65 540 l 99 197 b 333 -17 99 65 181 -17 b 640 185 514 -17 640 111 b 590 247 640 228 618 247 z m 343 -42 b 228 -126 288 -42 228 -71 b 274 -193 228 -156 244 -176 b 304 -228 290 -203 304 -211 b 268 -287 304 -247 288 -268 b 243 -332 254 -301 243 -315 b 285 -367 243 -353 261 -367 b 463 -161 351 -367 463 -262 b 343 -42 463 -99 421 -42 z "},"u":{"ha":974,"x_min":0,"x_max":0,"o":"m 911 189 b 886 244 899 199 886 213 l 886 410 l 886 563 b 793 728 886 672 885 728 b 517 667 726 728 590 708 b 476 604 489 651 476 628 b 514 540 476 575 496 554 b 544 483 533 525 544 511 l 544 350 b 483 200 543 233 524 200 b 421 376 436 200 421 254 l 421 421 l 421 563 b 328 728 421 672 419 728 b 57 667 261 728 129 708 b 18 604 29 650 18 629 b 54 540 18 574 36 556 b 79 485 67 531 79 517 l 79 235 b 297 -22 79 75 157 -22 b 544 133 419 -22 501 49 b 638 -17 544 35 550 -17 b 910 63 704 -17 839 11 b 947 125 936 82 947 100 b 911 189 947 156 929 174 z "},"ú":{"ha":974,"x_min":0,"x_max":0,"o":"m 425 769 b 514 797 457 769 483 781 b 682 901 571 828 631 863 b 753 992 731 938 753 960 b 624 1038 753 1024 731 1038 b 486 988 544 1038 514 1021 b 383 843 454 949 414 896 b 371 807 374 826 371 817 b 425 769 371 788 390 769 z m 911 189 b 886 244 899 199 886 213 l 886 410 l 886 563 b 793 728 886 672 885 728 b 517 667 726 728 590 708 b 476 604 489 651 476 628 b 514 540 476 575 496 554 b 544 483 533 525 544 511 l 544 350 b 483 200 543 233 524 200 b 421 376 436 200 421 254 l 421 421 l 421 563 b 328 728 421 672 419 728 b 57 667 261 728 129 708 b 18 604 29 650 18 629 b 54 540 18 574 36 556 b 79 485 67 531 79 517 l 79 235 b 297 -22 79 75 157 -22 b 544 133 419 -22 501 49 b 638 -17 544 35 550 -17 b 910 63 704 -17 839 11 b 947 125 936 82 947 100 b 911 189 947 156 929 174 z "},"ŭ":{"ha":974,"x_min":0,"x_max":0,"o":"m 493 782 b 719 913 603 782 678 836 b 739 996 736 943 740 964 b 688 1047 738 1031 714 1047 b 599 990 653 1047 632 1025 b 493 939 571 961 536 939 b 389 989 454 939 417 960 b 299 1047 356 1024 336 1047 b 247 993 268 1047 249 1025 b 267 913 246 967 256 933 b 493 782 303 847 371 782 z m 911 189 b 886 244 899 199 886 213 l 886 410 l 886 563 b 793 728 886 672 885 728 b 517 667 726 728 590 708 b 476 604 489 651 476 628 b 514 540 476 575 496 554 b 544 483 533 525 544 511 l 544 350 b 483 200 543 233 524 200 b 421 376 436 200 421 254 l 421 421 l 421 563 b 328 728 421 672 419 728 b 57 667 261 728 129 708 b 18 604 29 650 18 629 b 54 540 18 574 36 556 b 79 485 67 531 79 517 l 79 235 b 297 -22 79 75 157 -22 b 544 133 419 -22 501 49 b 638 -17 544 35 550 -17 b 910 63 704 -17 839 11 b 947 125 936 82 947 100 b 911 189 947 156 929 174 z "},"û":{"ha":974,"x_min":0,"x_max":0,"o":"m 303 779 b 392 808 331 779 358 790 b 501 885 432 829 467 856 b 611 808 536 856 571 829 b 700 779 644 790 672 779 b 753 821 738 779 753 799 b 733 872 753 833 747 850 b 636 990 710 910 671 958 b 501 1040 599 1024 568 1040 b 367 990 435 1040 404 1024 b 269 872 335 961 293 910 b 250 821 256 850 250 833 b 303 779 250 799 265 779 z m 911 189 b 886 244 899 199 886 213 l 886 410 l 886 563 b 793 728 886 672 885 728 b 517 667 726 728 590 708 b 476 604 489 651 476 628 b 514 540 476 575 496 554 b 544 483 533 525 544 511 l 544 350 b 483 200 543 233 524 200 b 421 376 436 200 421 254 l 421 421 l 421 563 b 328 728 421 672 419 728 b 57 667 261 728 129 708 b 18 604 29 650 18 629 b 54 540 18 574 36 556 b 79 485 67 531 79 517 l 79 235 b 297 -22 79 75 157 -22 b 544 133 419 -22 501 49 b 638 -17 544 35 550 -17 b 910 63 704 -17 839 11 b 947 125 936 82 947 100 b 911 189 947 156 929 174 z "},"ü":{"ha":974,"x_min":0,"x_max":0,"o":"m 349 785 b 457 896 408 785 457 835 b 349 1008 457 958 408 1008 b 242 896 289 1008 242 958 b 349 785 242 835 289 785 z m 636 785 b 744 896 696 785 744 835 b 636 1008 744 958 696 1008 b 529 896 576 1008 529 958 b 636 785 529 835 576 785 z m 911 189 b 886 244 899 199 886 213 l 886 410 l 886 563 b 793 728 886 672 885 728 b 517 667 726 728 590 708 b 476 604 489 651 476 628 b 514 540 476 575 496 554 b 544 483 533 525 544 511 l 544 350 b 483 200 543 233 524 200 b 421 376 436 200 421 254 l 421 421 l 421 563 b 328 728 421 672 419 728 b 57 667 261 728 129 708 b 18 604 29 650 18 629 b 54 540 18 574 36 556 b 79 485 67 531 79 517 l 79 235 b 297 -22 79 75 157 -22 b 544 133 419 -22 501 49 b 638 -17 544 35 550 -17 b 910 63 704 -17 839 11 b 947 125 936 82 947 100 b 911 189 947 156 929 174 z "},"ù":{"ha":974,"x_min":0,"x_max":0,"o":"m 297 901 b 465 797 349 863 408 828 b 554 769 496 781 522 769 b 608 807 589 769 608 788 b 596 843 608 817 606 826 b 493 988 565 896 525 949 b 356 1038 465 1021 435 1038 b 226 992 249 1038 226 1024 b 297 901 226 960 249 938 z m 911 189 b 886 244 899 199 886 213 l 886 410 l 886 563 b 793 728 886 672 885 728 b 517 667 726 728 590 708 b 476 604 489 651 476 628 b 514 540 476 575 496 554 b 544 483 533 525 544 511 l 544 350 b 483 200 543 233 524 200 b 421 376 436 200 421 254 l 421 421 l 421 563 b 328 728 421 672 419 728 b 57 667 261 728 129 708 b 18 604 29 650 18 629 b 54 540 18 574 36 556 b 79 485 67 531 79 517 l 79 235 b 297 -22 79 75 157 -22 b 544 133 419 -22 501 49 b 638 -17 544 35 550 -17 b 910 63 704 -17 839 11 b 947 125 936 82 947 100 b 911 189 947 156 929 174 z "},"ű":{"ha":974,"x_min":0,"x_max":0,"o":"m 336 769 b 415 804 363 769 388 785 b 532 901 458 835 493 863 b 583 986 565 935 583 956 b 494 1038 583 1017 568 1038 b 375 988 418 1038 396 1019 b 300 847 349 947 324 906 b 292 810 294 833 292 821 b 336 769 292 788 310 769 z m 550 810 b 594 769 550 788 568 769 b 674 804 621 769 646 785 b 790 901 717 835 751 863 b 842 986 824 935 842 956 b 753 1038 842 1017 826 1038 b 633 988 676 1038 654 1019 b 558 847 607 947 582 906 b 550 810 553 833 550 821 z m 911 189 b 886 244 899 199 886 213 l 886 410 l 886 563 b 793 728 886 672 885 728 b 517 667 726 728 590 708 b 476 604 489 651 476 628 b 514 540 476 575 496 554 b 544 483 533 525 544 511 l 544 350 b 483 200 543 233 524 200 b 421 376 436 200 421 254 l 421 421 l 421 563 b 328 728 421 672 419 728 b 57 667 261 728 129 708 b 18 604 29 650 18 629 b 54 540 18 574 36 556 b 79 485 67 531 79 517 l 79 235 b 297 -22 79 75 157 -22 b 544 133 419 -22 501 49 b 638 -17 544 35 550 -17 b 910 63 704 -17 839 11 b 947 125 936 82 947 100 b 911 189 947 156 929 174 z "},"ū":{"ha":974,"x_min":0,"x_max":0,"o":"m 296 817 b 490 824 358 817 431 824 b 669 819 547 824 625 819 b 743 921 724 819 743 874 b 692 979 743 953 732 979 b 497 971 631 979 558 971 b 317 975 435 971 364 975 b 243 875 263 975 243 919 b 296 817 243 842 254 817 z m 911 189 b 886 244 899 199 886 213 l 886 410 l 886 563 b 793 728 886 672 885 728 b 517 667 726 728 590 708 b 476 604 489 651 476 628 b 514 540 476 575 496 554 b 544 483 533 525 544 511 l 544 350 b 483 200 543 233 524 200 b 421 376 436 200 421 254 l 421 421 l 421 563 b 328 728 421 672 419 728 b 57 667 261 728 129 708 b 18 604 29 650 18 629 b 54 540 18 574 36 556 b 79 485 67 531 79 517 l 79 235 b 297 -22 79 75 157 -22 b 544 133 419 -22 501 49 b 638 -17 544 35 550 -17 b 910 63 704 -17 839 11 b 947 125 936 82 947 100 b 911 189 947 156 929 174 z "},"ų":{"ha":974,"x_min":0,"x_max":0,"o":"m 911 189 b 886 244 899 199 886 213 l 886 410 l 886 563 b 793 728 886 672 885 728 b 517 667 726 728 590 708 b 476 604 489 651 476 628 b 514 540 476 575 496 554 b 544 483 533 525 544 511 l 544 350 b 483 200 543 233 524 200 b 421 376 436 200 421 254 l 421 421 l 421 563 b 328 728 421 672 419 728 b 57 667 261 728 129 708 b 18 604 29 650 18 629 b 54 540 18 574 36 556 b 79 485 67 531 79 517 l 79 235 b 297 -22 79 75 157 -22 b 544 133 419 -22 501 49 b 556 26 544 88 546 51 b 414 -168 467 -31 414 -103 b 547 -281 414 -236 469 -281 b 674 -233 603 -281 649 -258 b 694 -187 688 -219 694 -203 b 663 -149 694 -162 681 -149 b 639 -156 654 -149 646 -153 b 610 -164 631 -158 621 -164 b 588 -128 597 -164 588 -156 b 632 -17 588 -99 603 -56 l 638 -17 b 910 63 704 -17 839 11 b 947 125 936 82 947 100 b 911 189 947 156 929 174 z "},"ů":{"ha":974,"x_min":0,"x_max":0,"o":"m 493 756 b 694 908 619 756 693 811 b 493 1061 696 1007 619 1061 b 292 908 367 1061 290 1007 b 493 756 293 811 367 756 z m 493 976 b 544 903 526 976 544 950 b 493 842 544 864 529 842 b 442 918 460 842 442 869 b 493 976 442 954 458 976 z m 911 189 b 886 244 899 199 886 213 l 886 410 l 886 563 b 793 728 886 672 885 728 b 517 667 726 728 590 708 b 476 604 489 651 476 628 b 514 540 476 575 496 554 b 544 483 533 525 544 511 l 544 350 b 483 200 543 233 524 200 b 421 376 436 200 421 254 l 421 421 l 421 563 b 328 728 421 672 419 728 b 57 667 261 728 129 708 b 18 604 29 650 18 629 b 54 540 18 574 36 556 b 79 485 67 531 79 517 l 79 235 b 297 -22 79 75 157 -22 b 544 133 419 -22 501 49 b 638 -17 544 35 550 -17 b 910 63 704 -17 839 11 b 947 125 936 82 947 100 b 911 189 947 156 929 174 z "},"ũ":{"ha":974,"x_min":0,"x_max":0,"o":"m 293 796 b 367 846 322 796 342 814 b 400 874 381 864 388 874 b 575 782 429 874 461 782 b 726 889 654 782 701 833 b 740 958 738 914 740 940 b 694 1017 740 992 719 1017 b 621 967 665 1017 646 999 b 588 939 607 949 600 939 b 413 1031 558 939 526 1031 b 261 924 333 1031 286 979 b 247 854 250 899 247 872 b 293 796 247 821 268 796 z m 911 189 b 886 244 899 199 886 213 l 886 410 l 886 563 b 793 728 886 672 885 728 b 517 667 726 728 590 708 b 476 604 489 651 476 628 b 514 540 476 575 496 554 b 544 483 533 525 544 511 l 544 350 b 483 200 543 233 524 200 b 421 376 436 200 421 254 l 421 421 l 421 563 b 328 728 421 672 419 728 b 57 667 261 728 129 708 b 18 604 29 650 18 629 b 54 540 18 574 36 556 b 79 485 67 531 79 517 l 79 235 b 297 -22 79 75 157 -22 b 544 133 419 -22 501 49 b 638 -17 544 35 550 -17 b 910 63 704 -17 839 11 b 947 125 936 82 947 100 b 911 189 947 156 929 174 z "},"v":{"ha":874,"x_min":0,"x_max":0,"o":"m 728 728 b 550 635 599 728 550 688 b 590 571 550 611 565 590 b 618 501 614 553 625 542 b 539 286 611 458 576 368 b 450 501 499 365 460 456 b 463 560 444 528 444 547 b 507 628 481 572 507 593 b 250 728 507 692 424 728 b -8 628 49 728 -8 682 b 39 554 -8 590 15 574 b 108 429 57 539 60 532 b 268 125 153 335 229 192 b 429 -12 322 32 350 -12 b 594 135 508 -12 535 33 b 735 400 643 218 693 317 b 828 551 774 478 797 533 b 889 638 871 576 889 600 b 728 728 889 693 840 728 z "},"w":{"ha":1308,"x_min":0,"x_max":0,"o":"m 1164 728 b 1006 635 1060 728 1006 688 b 1036 571 1006 611 1017 590 b 1063 501 1056 551 1069 542 b 986 297 1056 460 1024 378 b 910 501 953 375 921 457 b 926 560 903 528 906 546 b 967 628 944 571 967 593 b 736 728 967 692 878 728 b 513 624 574 728 513 682 b 546 554 513 590 526 574 b 608 438 560 540 571 532 b 528 294 589 396 560 344 b 438 501 488 372 449 457 b 447 560 431 528 433 546 b 474 621 460 572 474 593 b 250 728 474 692 381 728 b -8 628 49 728 -8 682 b 39 554 -8 590 15 574 b 108 429 57 539 61 532 b 260 125 153 332 221 196 b 413 -12 311 31 340 -12 b 571 135 485 -12 514 31 b 663 296 603 189 633 243 b 732 125 688 232 714 168 b 882 -12 775 26 810 -12 b 1038 135 954 -12 981 31 b 1168 400 1086 224 1126 314 b 1261 551 1206 478 1231 533 b 1322 638 1304 576 1322 600 b 1164 728 1322 693 1275 728 z "},"ẃ":{"ha":1308,"x_min":0,"x_max":0,"o":"m 639 769 b 728 797 671 769 697 781 b 896 901 785 828 844 863 b 967 992 944 938 967 960 b 838 1038 967 1024 944 1038 b 700 988 758 1038 728 1021 b 597 843 668 949 628 896 b 585 807 588 826 585 817 b 639 769 585 788 604 769 z m 1164 728 b 1006 635 1060 728 1006 688 b 1036 571 1006 611 1017 590 b 1063 501 1056 551 1069 542 b 986 297 1056 460 1024 378 b 910 501 953 375 921 457 b 926 560 903 528 906 546 b 967 628 944 571 967 593 b 736 728 967 692 878 728 b 513 624 574 728 513 682 b 546 554 513 590 526 574 b 608 438 560 540 571 532 b 528 294 589 396 560 344 b 438 501 488 372 449 457 b 447 560 431 528 433 546 b 474 621 460 572 474 593 b 250 728 474 692 381 728 b -8 628 49 728 -8 682 b 39 554 -8 590 15 574 b 108 429 57 539 61 532 b 260 125 153 332 221 196 b 413 -12 311 31 340 -12 b 571 135 485 -12 514 31 b 663 296 603 189 633 243 b 732 125 688 232 714 168 b 882 -12 775 26 810 -12 b 1038 135 954 -12 981 31 b 1168 400 1086 224 1126 314 b 1261 551 1206 478 1231 533 b 1322 638 1304 576 1322 600 b 1164 728 1322 693 1275 728 z "},"ŵ":{"ha":1308,"x_min":0,"x_max":0,"o":"m 517 779 b 606 808 544 779 572 790 b 715 885 646 829 681 856 b 825 808 750 856 785 829 b 914 779 858 790 886 779 b 967 821 951 779 967 799 b 947 872 967 833 961 850 b 850 990 924 910 885 958 b 715 1040 813 1024 782 1040 b 581 990 649 1040 618 1024 b 483 872 549 961 507 910 b 464 821 469 850 464 833 b 517 779 464 799 479 779 z m 1164 728 b 1006 635 1060 728 1006 688 b 1036 571 1006 611 1017 590 b 1063 501 1056 551 1069 542 b 986 297 1056 460 1024 378 b 910 501 953 375 921 457 b 926 560 903 528 906 546 b 967 628 944 571 967 593 b 736 728 967 692 878 728 b 513 624 574 728 513 682 b 546 554 513 590 526 574 b 608 438 560 540 571 532 b 528 294 589 396 560 344 b 438 501 488 372 449 457 b 447 560 431 528 433 546 b 474 621 460 572 474 593 b 250 728 474 692 381 728 b -8 628 49 728 -8 682 b 39 554 -8 590 15 574 b 108 429 57 539 61 532 b 260 125 153 332 221 196 b 413 -12 311 31 340 -12 b 571 135 485 -12 514 31 b 663 296 603 189 633 243 b 732 125 688 232 714 168 b 882 -12 775 26 810 -12 b 1038 135 954 -12 981 31 b 1168 400 1086 224 1126 314 b 1261 551 1206 478 1231 533 b 1322 638 1304 576 1322 600 b 1164 728 1322 693 1275 728 z "},"ẅ":{"ha":1308,"x_min":0,"x_max":0,"o":"m 563 785 b 671 896 622 785 671 835 b 563 1008 671 958 622 1008 b 456 896 503 1008 456 958 b 563 785 456 835 503 785 z m 850 785 b 958 896 910 785 958 835 b 850 1008 958 958 910 1008 b 743 896 790 1008 743 958 b 850 785 743 835 790 785 z m 1164 728 b 1006 635 1060 728 1006 688 b 1036 571 1006 611 1017 590 b 1063 501 1056 551 1069 542 b 986 297 1056 460 1024 378 b 910 501 953 375 921 457 b 926 560 903 528 906 546 b 967 628 944 571 967 593 b 736 728 967 692 878 728 b 513 624 574 728 513 682 b 546 554 513 590 526 574 b 608 438 560 540 571 532 b 528 294 589 396 560 344 b 438 501 488 372 449 457 b 447 560 431 528 433 546 b 474 621 460 572 474 593 b 250 728 474 692 381 728 b -8 628 49 728 -8 682 b 39 554 -8 590 15 574 b 108 429 57 539 61 532 b 260 125 153 332 221 196 b 413 -12 311 31 340 -12 b 571 135 485 -12 514 31 b 663 296 603 189 633 243 b 732 125 688 232 714 168 b 882 -12 775 26 810 -12 b 1038 135 954 -12 981 31 b 1168 400 1086 224 1126 314 b 1261 551 1206 478 1231 533 b 1322 638 1304 576 1322 600 b 1164 728 1322 693 1275 728 z "},"ẁ":{"ha":1308,"x_min":0,"x_max":0,"o":"m 511 901 b 679 797 563 863 622 828 b 768 769 710 781 736 769 b 822 807 803 769 822 788 b 810 843 822 817 819 826 b 707 988 779 896 739 949 b 569 1038 679 1021 649 1038 b 440 992 463 1038 440 1024 b 511 901 440 960 463 938 z m 1164 728 b 1006 635 1060 728 1006 688 b 1036 571 1006 611 1017 590 b 1063 501 1056 551 1069 542 b 986 297 1056 460 1024 378 b 910 501 953 375 921 457 b 926 560 903 528 906 546 b 967 628 944 571 967 593 b 736 728 967 692 878 728 b 513 624 574 728 513 682 b 546 554 513 590 526 574 b 608 438 560 540 571 532 b 528 294 589 396 560 344 b 438 501 488 372 449 457 b 447 560 431 528 433 546 b 474 621 460 572 474 593 b 250 728 474 692 381 728 b -8 628 49 728 -8 682 b 39 554 -8 590 15 574 b 108 429 57 539 61 532 b 260 125 153 332 221 196 b 413 -12 311 31 340 -12 b 571 135 485 -12 514 31 b 663 296 603 189 633 243 b 732 125 688 232 714 168 b 882 -12 775 26 810 -12 b 1038 135 954 -12 981 31 b 1168 400 1086 224 1126 314 b 1261 551 1206 478 1231 533 b 1322 638 1304 576 1322 600 b 1164 728 1322 693 1275 728 z "},"x":{"ha":910,"x_min":0,"x_max":0,"o":"m 840 175 b 735 282 828 188 785 229 b 629 392 701 317 664 354 b 696 458 656 417 678 439 b 838 569 789 549 811 560 b 901 640 871 582 901 600 b 744 728 901 694 854 728 b 575 638 622 728 575 689 b 600 568 575 604 600 593 b 568 504 600 549 588 528 b 549 483 563 497 556 490 b 528 510 540 493 533 501 b 501 556 511 531 501 547 b 522 628 501 585 522 596 b 268 728 522 692 442 728 b 10 628 67 728 10 682 b 81 542 10 586 43 568 b 172 456 92 533 128 500 b 271 351 203 425 238 388 b 204 281 244 324 224 300 b 50 149 115 186 90 172 b -4 74 29 136 -4 111 b 154 -12 -4 21 44 -12 b 328 72 279 -12 328 26 b 281 158 328 121 281 132 b 329 238 281 176 299 204 l 351 261 b 381 225 363 249 372 236 b 422 157 406 193 422 168 b 392 88 422 129 392 124 b 653 -12 392 24 478 -12 b 917 88 854 -12 917 33 b 840 175 917 136 865 150 z "},"y":{"ha":875,"x_min":0,"x_max":0,"o":"m 726 728 b 549 635 597 728 549 688 b 589 571 549 611 564 590 b 617 501 613 553 624 542 b 544 281 610 460 579 365 b 454 501 507 363 467 456 b 467 560 447 528 449 547 b 511 628 485 572 511 593 b 260 728 511 692 431 728 b -1 622 63 728 -1 682 b 50 549 -1 588 22 564 b 129 429 71 538 81 526 b 275 124 176 335 250 176 b 364 -79 321 28 364 -32 b 317 -149 364 -122 346 -149 b 278 -122 297 -149 285 -140 b 269 -82 274 -112 271 -93 b 165 15 263 -26 226 15 b 53 -103 96 15 53 -40 b 278 -281 53 -194 154 -281 b 614 88 489 -281 544 -114 b 729 400 661 225 697 317 b 822 550 760 481 782 522 b 888 638 863 578 888 597 b 726 728 888 693 839 728 z "},"ý":{"ha":875,"x_min":0,"x_max":0,"o":"m 397 769 b 486 797 429 769 456 781 b 654 901 543 828 603 863 b 725 992 703 938 725 960 b 596 1038 725 1024 703 1038 b 458 988 517 1038 486 1021 b 356 843 426 949 386 896 b 343 807 346 826 343 817 b 397 769 343 788 363 769 z m 726 728 b 549 635 597 728 549 688 b 589 571 549 611 564 590 b 617 501 613 553 624 542 b 544 281 610 460 579 365 b 454 501 507 363 467 456 b 467 560 447 528 449 547 b 511 628 485 572 511 593 b 260 728 511 692 431 728 b -1 622 63 728 -1 682 b 50 549 -1 588 22 564 b 129 429 71 538 81 526 b 275 124 176 335 250 176 b 364 -79 321 28 364 -32 b 317 -149 364 -122 346 -149 b 278 -122 297 -149 285 -140 b 269 -82 274 -112 271 -93 b 165 15 263 -26 226 15 b 53 -103 96 15 53 -40 b 278 -281 53 -194 154 -281 b 614 88 489 -281 544 -114 b 729 400 661 225 697 317 b 822 550 760 481 782 522 b 888 638 863 578 888 597 b 726 728 888 693 839 728 z "},"ŷ":{"ha":875,"x_min":0,"x_max":0,"o":"m 275 779 b 364 808 303 779 331 790 b 474 885 404 829 439 856 b 583 808 508 856 543 829 b 672 779 617 790 644 779 b 725 821 710 779 725 799 b 706 872 725 833 719 850 b 608 990 682 910 643 958 b 474 1040 571 1024 540 1040 b 339 990 407 1040 376 1024 b 242 872 307 961 265 910 b 222 821 228 850 222 833 b 275 779 222 799 238 779 z m 726 728 b 549 635 597 728 549 688 b 589 571 549 611 564 590 b 617 501 613 553 624 542 b 544 281 610 460 579 365 b 454 501 507 363 467 456 b 467 560 447 528 449 547 b 511 628 485 572 511 593 b 260 728 511 692 431 728 b -1 622 63 728 -1 682 b 50 549 -1 588 22 564 b 129 429 71 538 81 526 b 275 124 176 335 250 176 b 364 -79 321 28 364 -32 b 317 -149 364 -122 346 -149 b 278 -122 297 -149 285 -140 b 269 -82 274 -112 271 -93 b 165 15 263 -26 226 15 b 53 -103 96 15 53 -40 b 278 -281 53 -194 154 -281 b 614 88 489 -281 544 -114 b 729 400 661 225 697 317 b 822 550 760 481 782 522 b 888 638 863 578 888 597 b 726 728 888 693 839 728 z "},"ÿ":{"ha":875,"x_min":0,"x_max":0,"o":"m 321 785 b 429 896 381 785 429 835 b 321 1008 429 958 381 1008 b 214 896 261 1008 214 958 b 321 785 214 835 261 785 z m 608 785 b 717 896 668 785 717 835 b 608 1008 717 958 668 1008 b 501 896 549 1008 501 958 b 608 785 501 835 549 785 z m 726 728 b 549 635 597 728 549 688 b 589 571 549 611 564 590 b 617 501 613 553 624 542 b 544 281 610 460 579 365 b 454 501 507 363 467 456 b 467 560 447 528 449 547 b 511 628 485 572 511 593 b 260 728 511 692 431 728 b -1 622 63 728 -1 682 b 50 549 -1 588 22 564 b 129 429 71 538 81 526 b 275 124 176 335 250 176 b 364 -79 321 28 364 -32 b 317 -149 364 -122 346 -149 b 278 -122 297 -149 285 -140 b 269 -82 274 -112 271 -93 b 165 15 263 -26 226 15 b 53 -103 96 15 53 -40 b 278 -281 53 -194 154 -281 b 614 88 489 -281 544 -114 b 729 400 661 225 697 317 b 822 550 760 481 782 522 b 888 638 863 578 888 597 b 726 728 888 693 839 728 z "},"ỳ":{"ha":875,"x_min":0,"x_max":0,"o":"m 269 901 b 438 797 321 863 381 828 b 526 769 468 781 494 769 b 581 807 561 769 581 788 b 568 843 581 817 578 826 b 465 988 538 896 497 949 b 328 1038 438 1021 407 1038 b 199 992 221 1038 199 1024 b 269 901 199 960 221 938 z m 726 728 b 549 635 597 728 549 688 b 589 571 549 611 564 590 b 617 501 613 553 624 542 b 544 281 610 460 579 365 b 454 501 507 363 467 456 b 467 560 447 528 449 547 b 511 628 485 572 511 593 b 260 728 511 692 431 728 b -1 622 63 728 -1 682 b 50 549 -1 588 22 564 b 129 429 71 538 81 526 b 275 124 176 335 250 176 b 364 -79 321 28 364 -32 b 317 -149 364 -122 346 -149 b 278 -122 297 -149 285 -140 b 269 -82 274 -112 271 -93 b 165 15 263 -26 226 15 b 53 -103 96 15 53 -40 b 278 -281 53 -194 154 -281 b 614 88 489 -281 544 -114 b 729 400 661 225 697 317 b 822 550 760 481 782 522 b 888 638 863 578 888 597 b 726 728 888 693 839 728 z "},"z":{"ha":815,"x_min":0,"x_max":0,"o":"m 715 335 b 629 257 672 335 649 299 b 578 174 615 228 606 199 b 465 143 549 149 500 144 l 431 142 b 753 596 529 288 663 471 b 775 651 771 621 775 635 b 679 719 775 679 760 719 b 458 715 615 719 525 715 l 226 715 b 172 746 214 735 196 746 b 35 510 97 746 35 632 b 99 397 35 432 60 397 b 188 472 139 397 167 431 b 229 542 200 497 211 519 b 343 572 254 571 292 571 l 369 574 b 40 115 250 413 139 263 b 22 61 28 96 22 76 b 118 -3 22 31 40 -3 b 311 0 181 -3 251 0 l 592 0 b 647 -31 606 -19 624 -31 b 792 211 722 -31 792 88 b 715 335 792 301 756 335 z "},"ź":{"ha":815,"x_min":0,"x_max":0,"o":"m 372 769 b 461 797 404 769 431 781 b 629 901 518 828 578 863 b 700 992 678 938 700 960 b 571 1038 700 1024 678 1038 b 433 988 492 1038 461 1021 b 331 843 401 949 361 896 b 318 807 321 826 318 817 b 372 769 318 788 338 769 z m 715 335 b 629 257 672 335 649 299 b 578 174 615 228 606 199 b 465 143 549 149 500 144 l 431 142 b 753 596 529 288 663 471 b 775 651 771 621 775 635 b 679 719 775 679 760 719 b 458 715 615 719 525 715 l 226 715 b 172 746 214 735 196 746 b 35 510 97 746 35 632 b 99 397 35 432 60 397 b 188 472 139 397 167 431 b 229 542 200 497 211 519 b 343 572 254 571 292 571 l 369 574 b 40 115 250 413 139 263 b 22 61 28 96 22 76 b 118 -3 22 31 40 -3 b 311 0 181 -3 251 0 l 592 0 b 647 -31 606 -19 624 -31 b 792 211 722 -31 792 88 b 715 335 792 301 756 335 z "},"ž":{"ha":815,"x_min":0,"x_max":0,"o":"m 314 836 b 449 786 351 803 382 786 b 583 836 515 786 546 803 b 681 954 615 865 657 917 b 700 1006 694 976 700 993 b 647 1047 700 1028 685 1047 b 558 1018 619 1047 592 1036 b 449 942 518 997 483 971 b 339 1018 414 971 379 997 b 250 1047 306 1036 278 1047 b 197 1006 213 1047 197 1028 b 217 954 197 993 203 976 b 314 836 240 917 279 868 z m 715 335 b 629 257 672 335 649 299 b 578 174 615 228 606 199 b 465 143 549 149 500 144 l 431 142 b 753 596 529 288 663 471 b 775 651 771 621 775 635 b 679 719 775 679 760 719 b 458 715 615 719 525 715 l 226 715 b 172 746 214 735 196 746 b 35 510 97 746 35 632 b 99 397 35 432 60 397 b 188 472 139 397 167 431 b 229 542 200 497 211 519 b 343 572 254 571 292 571 l 369 574 b 40 115 250 413 139 263 b 22 61 28 96 22 76 b 118 -3 22 31 40 -3 b 311 0 181 -3 251 0 l 592 0 b 647 -31 606 -19 624 -31 b 792 211 722 -31 792 88 b 715 335 792 301 756 335 z "},"ż":{"ha":815,"x_min":0,"x_max":0,"o":"m 443 779 b 557 896 506 779 557 832 b 443 1014 557 961 506 1014 b 331 896 381 1014 331 961 b 443 779 331 832 381 779 z m 715 335 b 629 257 672 335 649 299 b 578 174 615 228 606 199 b 465 143 549 149 500 144 l 431 142 b 753 596 529 288 663 471 b 775 651 771 621 775 635 b 679 719 775 679 760 719 b 458 715 615 719 525 715 l 226 715 b 172 746 214 735 196 746 b 35 510 97 746 35 632 b 99 397 35 432 60 397 b 188 472 139 397 167 431 b 229 542 200 497 211 519 b 343 572 254 571 292 571 l 369 574 b 40 115 250 413 139 263 b 22 61 28 96 22 76 b 118 -3 22 31 40 -3 b 311 0 181 -3 251 0 l 592 0 b 647 -31 606 -19 624 -31 b 792 211 722 -31 792 88 b 715 335 792 301 756 335 z "},"ﬁ":{"ha":1115,"x_min":0,"x_max":0,"o":"m 349 1050 b 46 811 150 1050 46 933 b 101 657 46 740 78 694 l 76 657 b 14 585 28 657 14 635 b 76 511 14 533 28 511 l 119 511 l 119 207 b 86 156 119 176 100 164 b 36 86 60 139 36 124 b 290 -12 36 10 151 -12 b 551 86 429 -12 551 8 b 497 156 551 124 531 138 b 461 217 479 165 461 176 l 461 511 l 519 511 b 582 585 568 511 582 533 b 519 657 582 635 568 657 l 419 657 b 274 861 364 717 274 761 b 313 915 274 890 285 915 b 379 824 354 915 363 858 b 503 738 401 776 436 738 b 621 854 572 738 621 782 b 349 1050 621 965 508 1050 z m 806 765 b 1049 904 908 765 1049 807 b 900 1018 1049 972 1003 1018 b 657 874 789 1018 657 982 b 806 765 657 810 704 765 z m 1050 153 b 1032 203 1038 163 1032 172 l 1032 410 l 1032 563 b 939 728 1032 672 1031 728 b 665 649 874 728 736 699 b 628 586 639 631 628 611 b 665 522 628 556 646 538 b 690 467 678 513 690 499 l 690 203 b 672 153 690 172 685 163 b 632 88 653 138 632 124 b 861 -12 632 10 732 -12 b 1090 88 990 -12 1090 10 b 1050 153 1090 124 1069 138 z "},"ﬂ":{"ha":1144,"x_min":0,"x_max":0,"o":"m 313 915 b 379 824 354 915 363 858 b 500 738 401 776 435 738 b 613 854 564 738 613 782 b 349 1050 613 965 500 1050 b 46 811 150 1050 46 933 b 101 657 46 740 78 694 l 76 657 b 14 585 28 657 14 635 b 76 511 14 533 28 511 l 119 511 l 119 207 b 86 156 119 176 100 164 b 36 86 60 139 36 124 b 290 -12 36 10 151 -12 b 551 86 429 -12 551 8 b 497 156 551 124 531 138 b 461 217 479 165 461 176 l 461 511 l 519 511 b 582 585 568 511 582 533 b 519 657 582 635 568 657 l 419 657 b 274 861 364 717 274 761 b 313 915 274 890 285 915 z m 1076 153 b 1058 203 1064 163 1058 172 l 1058 722 l 1058 872 b 960 1040 1058 983 1057 1040 b 679 960 890 1040 756 1010 b 642 896 651 942 642 921 b 690 822 642 860 665 842 b 717 750 707 810 717 792 l 717 203 b 697 153 717 172 710 163 b 654 88 676 138 654 124 b 888 -12 654 10 756 -12 b 1117 88 1017 -12 1117 10 b 1076 153 1117 124 1096 138 z "},"ª":{"ha":690,"x_min":0,"x_max":0,"o":"m 667 588 b 625 650 632 597 625 618 l 625 814 b 399 1013 625 942 547 1013 b 57 851 236 1013 57 932 b 143 789 57 821 88 789 b 274 863 213 789 249 826 b 322 904 286 881 300 904 b 350 826 349 904 350 875 l 350 753 b 250 764 324 760 286 764 b 19 594 122 764 19 713 b 192 440 19 489 103 440 b 365 525 268 440 329 475 b 514 447 394 475 446 447 b 676 572 619 447 676 515 b 667 588 676 582 676 585 z m 321 571 b 282 629 303 571 282 586 b 324 690 282 667 299 690 b 360 675 340 690 353 683 l 360 639 b 321 571 360 588 349 571 z "}}}
